M48
; DRILL file {KiCad (6.0.0-rc1-172-gb8b8c0d34c)} date Monday, December 06, 2021 at 03:46:51 PM
; FORMAT={-:-/ absolute / metric / decimal}
; #@! TF.CreationDate,2021-12-06T15:46:51-06:00
; #@! TF.GenerationSoftware,Kicad,Pcbnew,(6.0.0-rc1-172-gb8b8c0d34c)
; #@! TF.FileFunction,NonPlated,1,2,NPTH
FMAT,2
METRIC
; #@! TA.AperFunction,NonPlated,NPTH,ComponentDrill
T1C0.762
; #@! TA.AperFunction,NonPlated,NPTH,ComponentDrill
T2C3.200
%
G90
G05
T1
X221.5Y-76.0
X221.5Y-92.0
X221.5Y-108.0
X221.5Y-124.0
X226.5Y-71.0
X226.5Y-81.0
X226.5Y-87.0
X226.5Y-97.0
X226.5Y-103.0
X226.5Y-113.0
X226.5Y-119.0
X226.5Y-129.0
X229.0Y-71.0
X229.0Y-81.0
X229.0Y-87.0
X229.0Y-97.0
X229.0Y-103.0
X229.0Y-113.0
X229.0Y-119.0
X229.0Y-129.0
T2
X56.0Y-56.0
X56.0Y-144.0
X149.0Y-118.0
X199.73Y-141.85
X211.16Y-141.85
X224.0Y-56.0
X224.0Y-144.0
T0
M30
