M48
; DRILL file {KiCad (6.0.0-rc1-172-gb8b8c0d34c)} date Monday, December 06, 2021 at 03:46:51 PM
; FORMAT={-:-/ absolute / metric / decimal}
; #@! TF.CreationDate,2021-12-06T15:46:51-06:00
; #@! TF.GenerationSoftware,Kicad,Pcbnew,(6.0.0-rc1-172-gb8b8c0d34c)
; #@! TF.FileFunction,Plated,1,2,PTH
FMAT,2
METRIC
; #@! TA.AperFunction,Plated,PTH,ViaDrill
T1C0.400
; #@! TA.AperFunction,Plated,PTH,ComponentDrill
T2C0.760
; #@! TA.AperFunction,Plated,PTH,ComponentDrill
T3C0.900
; #@! TA.AperFunction,Plated,PTH,ComponentDrill
T4C1.000
; #@! TA.AperFunction,Plated,PTH,ComponentDrill
T5C1.200
; #@! TA.AperFunction,Plated,PTH,ComponentDrill
T6C1.290
; #@! TA.AperFunction,Plated,PTH,ComponentDrill
T7C1.300
; #@! TA.AperFunction,Plated,PTH,ComponentDrill
T8C1.320
; #@! TA.AperFunction,Plated,PTH,ComponentDrill
T9C1.400
; #@! TA.AperFunction,Plated,PTH,ComponentDrill
T10C3.200
%
G90
G05
T1
X58.0Y-134.0
X65.0Y-56.0
X74.0Y-95.5
X84.0Y-95.5
X85.5Y-77.0
X88.5Y-91.5
X91.0Y-84.5
X104.0Y-122.0
X104.5Y-143.0
X105.0Y-55.0
X105.5Y-87.5
X115.0Y-116.5
X118.5Y-128.0
X125.0Y-55.0
X127.5Y-120.0
X137.5Y-120.0
X139.0Y-142.5
X141.0Y-124.5
X145.0Y-55.0
X149.0Y-86.0
X151.0Y-77.0
X158.5Y-120.0
X163.5Y-75.5
X163.5Y-81.0
X163.5Y-123.0
X172.0Y-86.0
X178.0Y-142.5
X179.5Y-120.0
X183.0Y-125.5
X183.5Y-64.5
X187.5Y-86.0
X188.5Y-81.0
X191.0Y-84.0
X200.5Y-119.0
X201.0Y-96.5
X206.0Y-80.0
X206.5Y-115.5
X206.5Y-119.0
X211.5Y-93.0
X215.0Y-92.5
X217.0Y-88.3
X218.5Y-62.5
X219.0Y-100.0
X219.0Y-116.0
X219.0Y-136.5
X221.5Y-89.5
T2
X201.0Y-135.5
X202.27Y-132.96
X203.54Y-135.5
X204.81Y-132.96
X206.08Y-135.5
X207.35Y-132.96
X208.62Y-135.5
X209.89Y-132.96
T4
X70.5Y-64.735
X70.5Y-67.275
X70.5Y-77.735
X70.5Y-80.275
X70.5Y-90.735
X70.5Y-93.275
X70.5Y-103.735
X70.5Y-106.275
X76.97Y-123.69
X76.97Y-136.97
X78.355Y-120.85
X78.355Y-139.81
X79.74Y-123.69
X79.74Y-136.97
X81.125Y-120.85
X81.125Y-139.81
X82.51Y-123.69
X82.51Y-136.97
X83.895Y-120.85
X83.895Y-139.81
X85.28Y-123.69
X85.28Y-136.97
X86.665Y-120.85
X86.665Y-139.81
X88.05Y-123.69
X88.05Y-136.97
X113.58Y-92.38
X113.58Y-95.15
X113.58Y-97.92
X113.58Y-100.69
X113.58Y-103.46
X116.42Y-93.765
X116.42Y-96.535
X116.42Y-99.305
X116.42Y-102.075
X136.44Y-92.38
X136.44Y-95.15
X136.44Y-97.92
X136.44Y-100.69
X136.44Y-103.46
X139.28Y-93.765
X139.28Y-96.535
X139.28Y-99.305
X139.28Y-102.075
X159.3Y-92.38
X159.3Y-95.15
X159.3Y-97.92
X159.3Y-100.69
X159.3Y-103.46
X162.14Y-93.765
X162.14Y-96.535
X162.14Y-99.305
X162.14Y-102.075
X169.5Y-68.5
X170.885Y-71.34
X172.27Y-68.5
X173.655Y-71.34
X175.04Y-68.5
X176.425Y-71.34
X177.81Y-68.5
X179.195Y-71.34
X180.58Y-68.5
X181.965Y-71.34
X182.16Y-92.38
X182.16Y-95.15
X182.16Y-97.92
X182.16Y-100.69
X182.16Y-103.46
X183.35Y-68.5
X184.735Y-71.34
X185.0Y-93.765
X185.0Y-96.535
X185.0Y-99.305
X185.0Y-102.075
X186.12Y-68.5
X187.505Y-71.34
X188.89Y-68.5
X190.275Y-71.34
X191.66Y-68.5
X193.045Y-71.34
X194.43Y-68.5
X195.815Y-71.34
X197.2Y-68.5
X198.585Y-71.34
X199.97Y-68.5
X201.355Y-71.34
X202.74Y-68.5
X204.81Y-92.47
X204.81Y-95.24
X204.81Y-98.01
X204.81Y-100.78
X204.81Y-103.55
X207.65Y-93.855
X207.65Y-96.625
X207.65Y-99.395
X207.65Y-102.165
T5
X103.42Y-90.76
X103.42Y-106.0
X126.28Y-90.76
X126.28Y-106.0
X149.14Y-90.76
X149.14Y-106.0
X172.0Y-90.76
X172.0Y-106.0
T6
X77.9Y-97.0
X78.0Y-71.0
X103.9Y-71.0
X129.9Y-71.0
T7
X81.0Y-55.5
X86.0Y-55.5
X91.0Y-55.5
T8
X79.9Y-91.0
X79.9Y-103.0
X80.0Y-65.0
X80.0Y-77.0
X92.1Y-91.0
X92.1Y-103.0
X92.2Y-65.0
X92.2Y-77.0
X105.9Y-65.0
X105.9Y-77.0
X118.1Y-65.0
X118.1Y-77.0
X131.9Y-65.0
X131.9Y-77.0
X144.1Y-65.0
X144.1Y-77.0
T9
X112.106Y-137.501
X114.407Y-135.001
X114.407Y-147.201
X119.406Y-137.501
X124.404Y-135.001
X124.404Y-147.201
X126.706Y-137.501
X131.637Y-137.501
X133.938Y-135.001
X133.938Y-147.201
X138.937Y-137.501
X143.936Y-135.001
X143.936Y-147.201
X146.237Y-137.501
X151.169Y-137.501
X153.47Y-135.001
X153.47Y-147.201
X158.469Y-137.501
X163.467Y-135.001
X163.467Y-147.201
X165.769Y-137.501
X170.7Y-137.501
X173.001Y-135.001
X173.001Y-147.201
X178.0Y-137.501
X182.999Y-135.001
X182.999Y-147.201
X185.3Y-137.501
T10
X70.01Y-122.27
X70.01Y-138.39
X95.01Y-122.27
X95.01Y-138.39
X115.0Y-85.42
X115.0Y-110.42
X137.86Y-85.42
X137.86Y-110.42
X160.72Y-85.42
X160.72Y-110.42
X162.57Y-69.92
X183.58Y-85.42
X183.58Y-110.42
X206.23Y-85.51
X206.23Y-110.51
X209.67Y-69.92
T3
X221.9Y-71.0G85X221.1Y-71.0
G05
X221.9Y-81.0G85X221.1Y-81.0
G05
X221.9Y-87.0G85X221.1Y-87.0
G05
X221.9Y-97.0G85X221.1Y-97.0
G05
X221.9Y-103.0G85X221.1Y-103.0
G05
X221.9Y-113.0G85X221.1Y-113.0
G05
X221.9Y-119.0G85X221.1Y-119.0
G05
X221.9Y-129.0G85X221.1Y-129.0
G05
X226.5Y-75.6G85X226.5Y-76.4
G05
X226.5Y-91.6G85X226.5Y-92.4
G05
X226.5Y-107.6G85X226.5Y-108.4
G05
X226.5Y-123.6G85X226.5Y-124.4
G05
T4
X58.0Y-67.043G85X58.0Y-69.043
G05
X58.0Y-80.042G85X58.0Y-82.042
G05
X58.0Y-93.042G85X58.0Y-95.042
G05
X58.0Y-106.042G85X58.0Y-108.042
G05
X60.0Y-72.742G85X62.0Y-72.742
G05
X60.0Y-85.742G85X62.0Y-85.742
G05
X60.0Y-98.742G85X62.0Y-98.742
G05
X60.0Y-111.742G85X62.0Y-111.742
G05
X64.0Y-67.043G85X64.0Y-69.043
G05
X64.0Y-80.042G85X64.0Y-82.042
G05
X64.0Y-93.042G85X64.0Y-95.042
G05
X64.0Y-106.042G85X64.0Y-108.042
G05
T0
M30
