%FSLAX45Y45*%
G04 Gerber Fmt 4.5, Leading zero omitted, Abs format (unit mm)*
G04 Created by KiCad (PCBNEW (6.0.0-rc1-172-gb8b8c0d34c)) date 2021-12-08 11:19:58*
%MOMM*%
%LPD*%
G01*
G04 APERTURE LIST*
%TA.AperFunction,Profile*%
%ADD10C,0.200000*%
%TD*%
%ADD11C,0.200000*%
%ADD12C,0.040000*%
%ADD13C,0.075000*%
%ADD14C,0.076000*%
%ADD15C,0.080000*%
%ADD16C,0.100000*%
%ADD17C,0.110000*%
%ADD18C,0.129000*%
%ADD19C,0.130000*%
%ADD20C,0.132000*%
G04 APERTURE END LIST*
D10*
X25200000Y-14600000D02*
G75*
G03*
X25700000Y-14100000I0J500000D01*
G01*
X25700000Y-8100000D02*
G75*
G03*
X25200000Y-7600000I-500000J0D01*
G01*
X13200000Y-7100000D02*
G75*
G03*
X13700000Y-7600000I500000J0D01*
G01*
X13200000Y-6100000D02*
G75*
G03*
X12700000Y-5600000I-500000J0D01*
G01*
X4700000Y-5600000D02*
G75*
G03*
X4200000Y-6100000I0J-500000D01*
G01*
X4200000Y-14100000D02*
G75*
G03*
X4700000Y-14600000I500000J0D01*
G01*
X12700000Y-5600000D02*
X4700000Y-5600000D01*
X13200000Y-7100000D02*
X13200000Y-6100000D01*
X25200000Y-7600000D02*
X13700000Y-7600000D01*
X25700000Y-14100000D02*
X25700000Y-8100000D01*
X4700000Y-14600000D02*
X25200000Y-14600000D01*
X4200000Y-6100000D02*
X4200000Y-14100000D01*
D11*
D12*
X4580000Y-10605000D02*
X4620000Y-10645000D01*
X4620000Y-10605000D02*
X4580000Y-10645000D01*
X4833000Y-9683000D02*
X4873000Y-9723000D01*
X4873000Y-9683000D02*
X4833000Y-9723000D01*
X5080000Y-11655000D02*
X5120000Y-11695000D01*
X5120000Y-11655000D02*
X5080000Y-11695000D01*
X5180000Y-6830000D02*
X5220000Y-6870000D01*
X5220000Y-6830000D02*
X5180000Y-6870000D01*
X5205000Y-7530000D02*
X5245000Y-7570000D01*
X5245000Y-7530000D02*
X5205000Y-7570000D01*
X5330000Y-10155000D02*
X5370000Y-10195000D01*
X5370000Y-10155000D02*
X5330000Y-10195000D01*
X5330000Y-11530000D02*
X5370000Y-11570000D01*
X5370000Y-11530000D02*
X5330000Y-11570000D01*
X5580000Y-11280000D02*
X5620000Y-11320000D01*
X5620000Y-11280000D02*
X5580000Y-11320000D01*
X5855000Y-10405000D02*
X5895000Y-10445000D01*
X5895000Y-10405000D02*
X5855000Y-10445000D01*
X5855000Y-11405000D02*
X5895000Y-11445000D01*
X5895000Y-11405000D02*
X5855000Y-11445000D01*
X5980000Y-7380000D02*
X6020000Y-7420000D01*
X6020000Y-7380000D02*
X5980000Y-7420000D01*
X6105000Y-10705000D02*
X6145000Y-10745000D01*
X6145000Y-10705000D02*
X6105000Y-10745000D01*
X6230000Y-13130000D02*
X6270000Y-13170000D01*
X6270000Y-13130000D02*
X6230000Y-13170000D01*
X6355000Y-10505000D02*
X6395000Y-10545000D01*
X6395000Y-10505000D02*
X6355000Y-10545000D01*
X6480000Y-7880000D02*
X6520000Y-7920000D01*
X6520000Y-7880000D02*
X6480000Y-7920000D01*
X6480000Y-9330000D02*
X6520000Y-9370000D01*
X6520000Y-9330000D02*
X6480000Y-9370000D01*
X6605000Y-10305000D02*
X6645000Y-10345000D01*
X6645000Y-10305000D02*
X6605000Y-10345000D01*
X7055000Y-8580000D02*
X7095000Y-8620000D01*
X7095000Y-8580000D02*
X7055000Y-8620000D01*
X7230000Y-8705000D02*
X7270000Y-8745000D01*
X7270000Y-8705000D02*
X7230000Y-8745000D01*
X7380000Y-7380000D02*
X7420000Y-7420000D01*
X7420000Y-7380000D02*
X7380000Y-7420000D01*
X7380000Y-8830000D02*
X7420000Y-8870000D01*
X7420000Y-8830000D02*
X7380000Y-8870000D01*
X7880000Y-12030000D02*
X7920000Y-12070000D01*
X7920000Y-12030000D02*
X7880000Y-12070000D01*
X8805000Y-6030000D02*
X8845000Y-6070000D01*
X8845000Y-6030000D02*
X8805000Y-6070000D01*
X8805000Y-10605000D02*
X8845000Y-10645000D01*
X8845000Y-10605000D02*
X8805000Y-10645000D01*
X8805000Y-11030000D02*
X8845000Y-11070000D01*
X8845000Y-11030000D02*
X8805000Y-11070000D01*
X8930000Y-12430000D02*
X8970000Y-12470000D01*
X8970000Y-12430000D02*
X8930000Y-12470000D01*
X9280000Y-9680000D02*
X9320000Y-9720000D01*
X9320000Y-9680000D02*
X9280000Y-9720000D01*
X9280000Y-10005000D02*
X9320000Y-10045000D01*
X9320000Y-10005000D02*
X9280000Y-10045000D01*
X9380000Y-11655000D02*
X9420000Y-11695000D01*
X9420000Y-11655000D02*
X9380000Y-11695000D01*
X9380000Y-13580000D02*
X9420000Y-13620000D01*
X9420000Y-13580000D02*
X9380000Y-13620000D01*
X9530000Y-11530000D02*
X9570000Y-11570000D01*
X9570000Y-11530000D02*
X9530000Y-11570000D01*
X9530000Y-13480000D02*
X9570000Y-13520000D01*
X9570000Y-13480000D02*
X9530000Y-13520000D01*
X9605000Y-7880000D02*
X9645000Y-7920000D01*
X9645000Y-7880000D02*
X9605000Y-7920000D01*
X9855000Y-7080000D02*
X9895000Y-7120000D01*
X9895000Y-7080000D02*
X9855000Y-7120000D01*
X9855000Y-10705000D02*
X9895000Y-10745000D01*
X9895000Y-10705000D02*
X9855000Y-10745000D01*
X9930000Y-12430000D02*
X9970000Y-12470000D01*
X9970000Y-12430000D02*
X9930000Y-12470000D01*
X10180000Y-10305000D02*
X10220000Y-10345000D01*
X10220000Y-10305000D02*
X10180000Y-10345000D01*
X10480000Y-10405000D02*
X10520000Y-10445000D01*
X10520000Y-10405000D02*
X10480000Y-10445000D01*
X10905000Y-8630000D02*
X10945000Y-8670000D01*
X10945000Y-8630000D02*
X10905000Y-8670000D01*
X10930000Y-7530000D02*
X10970000Y-7570000D01*
X10970000Y-7530000D02*
X10930000Y-7570000D01*
X11680000Y-10505000D02*
X11720000Y-10545000D01*
X11720000Y-10505000D02*
X11680000Y-10545000D01*
X12280000Y-14005000D02*
X12320000Y-14045000D01*
X12320000Y-14005000D02*
X12280000Y-14045000D01*
X12530000Y-7080000D02*
X12570000Y-7120000D01*
X12570000Y-7080000D02*
X12530000Y-7120000D01*
X12555000Y-9605000D02*
X12595000Y-9645000D01*
X12595000Y-9605000D02*
X12555000Y-9645000D01*
X12580000Y-12180000D02*
X12620000Y-12220000D01*
X12620000Y-12180000D02*
X12580000Y-12220000D01*
X13405000Y-10755000D02*
X13445000Y-10795000D01*
X13445000Y-10755000D02*
X13405000Y-10795000D01*
X13730000Y-11405000D02*
X13770000Y-11445000D01*
X13770000Y-11405000D02*
X13730000Y-11445000D01*
X13730000Y-13030000D02*
X13770000Y-13070000D01*
X13770000Y-13030000D02*
X13730000Y-13070000D01*
X14230000Y-11280000D02*
X14270000Y-11320000D01*
X14270000Y-11280000D02*
X14230000Y-11320000D01*
X15230000Y-9305000D02*
X15270000Y-9345000D01*
X15270000Y-9305000D02*
X15230000Y-9345000D01*
X15255000Y-11230000D02*
X15295000Y-11270000D01*
X15295000Y-11230000D02*
X15255000Y-11270000D01*
X16780000Y-10080000D02*
X16820000Y-10120000D01*
X16820000Y-10080000D02*
X16780000Y-10120000D01*
X16780000Y-12405000D02*
X16820000Y-12445000D01*
X16820000Y-12405000D02*
X16780000Y-12445000D01*
X16805000Y-8155000D02*
X16845000Y-8195000D01*
X16845000Y-8155000D02*
X16805000Y-8195000D01*
X18530000Y-8130000D02*
X18570000Y-8170000D01*
X18570000Y-8130000D02*
X18530000Y-8170000D01*
X19080000Y-9530000D02*
X19120000Y-9570000D01*
X19120000Y-9530000D02*
X19080000Y-9570000D01*
X19130000Y-11880000D02*
X19170000Y-11920000D01*
X19170000Y-11880000D02*
X19130000Y-11920000D01*
X19580000Y-14080000D02*
X19620000Y-14120000D01*
X19620000Y-14080000D02*
X19580000Y-14120000D01*
X21530000Y-12380000D02*
X21570000Y-12420000D01*
X21570000Y-12380000D02*
X21530000Y-12420000D01*
X21555000Y-10080000D02*
X21595000Y-10120000D01*
X21595000Y-10080000D02*
X21555000Y-10120000D01*
X23005000Y-11205000D02*
X23045000Y-11245000D01*
X23045000Y-11205000D02*
X23005000Y-11245000D01*
X23955000Y-11205000D02*
X23995000Y-11245000D01*
X23995000Y-11205000D02*
X23955000Y-11245000D01*
X24505000Y-13530000D02*
X24545000Y-13570000D01*
X24545000Y-13530000D02*
X24505000Y-13570000D01*
X24530000Y-8905000D02*
X24570000Y-8945000D01*
X24570000Y-8905000D02*
X24530000Y-8945000D01*
D13*
X11037500Y-10050000D02*
G75*
G03*
X11037500Y-10050000I-37500J0D01*
G01*
X11164500Y-9923000D02*
G75*
G03*
X11164500Y-9923000I-37500J0D01*
G01*
X11291500Y-10050000D02*
G75*
G03*
X11291500Y-10050000I-37500J0D01*
G01*
X15210500Y-12423000D02*
G75*
G03*
X15210500Y-12423000I-37500J0D01*
G01*
X15212500Y-10023000D02*
G75*
G03*
X15212500Y-10023000I-37500J0D01*
G01*
X15337500Y-12296000D02*
G75*
G03*
X15337500Y-12296000I-37500J0D01*
G01*
X15337500Y-12550000D02*
G75*
G03*
X15337500Y-12550000I-37500J0D01*
G01*
X15339500Y-9896000D02*
G75*
G03*
X15339500Y-9896000I-37500J0D01*
G01*
X15339500Y-10150000D02*
G75*
G03*
X15339500Y-10150000I-37500J0D01*
G01*
X23037500Y-9950000D02*
G75*
G03*
X23037500Y-9950000I-37500J0D01*
G01*
X23037500Y-10204000D02*
G75*
G03*
X23037500Y-10204000I-37500J0D01*
G01*
X23037500Y-12250000D02*
G75*
G03*
X23037500Y-12250000I-37500J0D01*
G01*
X23037500Y-12504000D02*
G75*
G03*
X23037500Y-12504000I-37500J0D01*
G01*
X23164500Y-10077000D02*
G75*
G03*
X23164500Y-10077000I-37500J0D01*
G01*
X23164500Y-12377000D02*
G75*
G03*
X23164500Y-12377000I-37500J0D01*
G01*
D14*
X5610000Y-8183750D02*
X5610000Y-8259750D01*
X5572000Y-8221750D02*
X5648000Y-8221750D01*
X5610000Y-8437750D02*
X5610000Y-8513750D01*
X5572000Y-8475750D02*
X5648000Y-8475750D01*
X5610000Y-8691750D02*
X5610000Y-8767750D01*
X5572000Y-8729750D02*
X5648000Y-8729750D01*
X5610000Y-8945750D02*
X5610000Y-9021750D01*
X5572000Y-8983750D02*
X5648000Y-8983750D01*
X5864000Y-8310750D02*
X5864000Y-8386750D01*
X5826000Y-8348750D02*
X5902000Y-8348750D01*
X5864000Y-8564750D02*
X5864000Y-8640750D01*
X5826000Y-8602750D02*
X5902000Y-8602750D01*
X5864000Y-8818750D02*
X5864000Y-8894750D01*
X5826000Y-8856750D02*
X5902000Y-8856750D01*
X5864000Y-9072750D02*
X5864000Y-9148750D01*
X5826000Y-9110750D02*
X5902000Y-9110750D01*
D15*
X7293284Y-9228285D02*
X7293284Y-9171716D01*
X7236715Y-9171716D01*
X7236715Y-9228285D01*
X7293284Y-9228285D01*
X7293284Y-10028285D02*
X7293284Y-9971716D01*
X7236715Y-9971716D01*
X7236715Y-10028285D01*
X7293284Y-10028285D01*
X7428284Y-7128284D02*
X7428284Y-7071715D01*
X7371715Y-7071715D01*
X7371715Y-7128284D01*
X7428284Y-7128284D01*
X7428284Y-8398285D02*
X7428284Y-8341715D01*
X7371715Y-8341715D01*
X7371715Y-8398285D01*
X7428284Y-8398285D01*
X8278284Y-7128284D02*
X8278284Y-7071715D01*
X8221715Y-7071715D01*
X8221715Y-7128284D01*
X8278284Y-7128284D01*
X8278284Y-8398285D02*
X8278284Y-8341715D01*
X8221715Y-8341715D01*
X8221715Y-8398285D01*
X8278284Y-8398285D01*
X8563285Y-9228285D02*
X8563285Y-9171716D01*
X8506716Y-9171716D01*
X8506716Y-9228285D01*
X8563285Y-9228285D01*
X8563285Y-10028285D02*
X8563285Y-9971716D01*
X8506716Y-9971716D01*
X8506716Y-10028285D01*
X8563285Y-10028285D01*
X9328285Y-7128284D02*
X9328285Y-7071715D01*
X9271716Y-7071715D01*
X9271716Y-7128284D01*
X9328285Y-7128284D01*
X9328285Y-8398285D02*
X9328285Y-8341715D01*
X9271716Y-8341715D01*
X9271716Y-8398285D01*
X9328285Y-8398285D01*
X9893285Y-9228285D02*
X9893285Y-9171716D01*
X9836716Y-9171716D01*
X9836716Y-9228285D01*
X9893285Y-9228285D01*
X10528285Y-7128284D02*
X10528285Y-7071715D01*
X10471716Y-7071715D01*
X10471716Y-7128284D01*
X10528285Y-7128284D01*
X10528285Y-8398285D02*
X10528285Y-8341715D01*
X10471716Y-8341715D01*
X10471716Y-8398285D01*
X10528285Y-8398285D01*
X11163285Y-9228285D02*
X11163285Y-9171716D01*
X11106716Y-9171716D01*
X11106716Y-9228285D01*
X11163285Y-9228285D01*
X11428284Y-7128284D02*
X11428284Y-7071715D01*
X11371715Y-7071715D01*
X11371715Y-7128284D01*
X11428284Y-7128284D01*
X11428284Y-8398285D02*
X11428284Y-8341715D01*
X11371715Y-8341715D01*
X11371715Y-8398285D01*
X11428284Y-8398285D01*
X14278284Y-9543285D02*
X14278284Y-9486716D01*
X14221715Y-9486716D01*
X14221715Y-9543285D01*
X14278284Y-9543285D01*
X14278284Y-10813285D02*
X14278284Y-10756716D01*
X14221715Y-10756716D01*
X14221715Y-10813285D01*
X14278284Y-10813285D01*
X14278284Y-11808284D02*
X14278284Y-11751715D01*
X14221715Y-11751715D01*
X14221715Y-11808284D01*
X14278284Y-11808284D01*
X14278284Y-13078284D02*
X14278284Y-13021715D01*
X14221715Y-13021715D01*
X14221715Y-13078284D01*
X14278284Y-13078284D01*
X24003284Y-9493285D02*
X24003284Y-9436716D01*
X23946715Y-9436716D01*
X23946715Y-9493285D01*
X24003284Y-9493285D01*
X24003284Y-10763285D02*
X24003284Y-10706716D01*
X23946715Y-10706716D01*
X23946715Y-10763285D01*
X24003284Y-10763285D01*
X24003284Y-11793284D02*
X24003284Y-11736715D01*
X23946715Y-11736715D01*
X23946715Y-11793284D01*
X24003284Y-11793284D01*
X24003284Y-13063284D02*
X24003284Y-13006715D01*
X23946715Y-13006715D01*
X23946715Y-13063284D01*
X24003284Y-13063284D01*
D16*
X4599000Y-11089000D02*
X4649000Y-11039000D01*
X4599000Y-10989000D01*
X4549000Y-11039000D01*
X4599000Y-11089000D01*
X4599000Y-12613000D02*
X4649000Y-12563000D01*
X4599000Y-12513000D01*
X4549000Y-12563000D01*
X4599000Y-12613000D01*
X4853000Y-11089000D02*
X4903000Y-11039000D01*
X4853000Y-10989000D01*
X4803000Y-11039000D01*
X4853000Y-11089000D01*
X4853000Y-12613000D02*
X4903000Y-12563000D01*
X4853000Y-12513000D01*
X4803000Y-12563000D01*
X4853000Y-12613000D01*
X5107000Y-11089000D02*
X5157000Y-11039000D01*
X5107000Y-10989000D01*
X5057000Y-11039000D01*
X5107000Y-11089000D01*
X5107000Y-12613000D02*
X5157000Y-12563000D01*
X5107000Y-12513000D01*
X5057000Y-12563000D01*
X5107000Y-12613000D01*
X5361000Y-11089000D02*
X5411000Y-11039000D01*
X5361000Y-10989000D01*
X5311000Y-11039000D01*
X5361000Y-11089000D01*
X5361000Y-12613000D02*
X5411000Y-12563000D01*
X5361000Y-12513000D01*
X5311000Y-12563000D01*
X5361000Y-12613000D01*
X5615000Y-11089000D02*
X5665000Y-11039000D01*
X5615000Y-10989000D01*
X5565000Y-11039000D01*
X5615000Y-11089000D01*
X5615000Y-12613000D02*
X5665000Y-12563000D01*
X5615000Y-12513000D01*
X5565000Y-12563000D01*
X5615000Y-12613000D01*
X5869000Y-11089000D02*
X5919000Y-11039000D01*
X5869000Y-10989000D01*
X5819000Y-11039000D01*
X5869000Y-11089000D01*
X5869000Y-12613000D02*
X5919000Y-12563000D01*
X5869000Y-12513000D01*
X5819000Y-12563000D01*
X5869000Y-12613000D01*
X6123000Y-11089000D02*
X6173000Y-11039000D01*
X6123000Y-10989000D01*
X6073000Y-11039000D01*
X6123000Y-11089000D01*
X6123000Y-12613000D02*
X6173000Y-12563000D01*
X6123000Y-12513000D01*
X6073000Y-12563000D01*
X6123000Y-12613000D01*
X6377000Y-11089000D02*
X6427000Y-11039000D01*
X6377000Y-10989000D01*
X6327000Y-11039000D01*
X6377000Y-11089000D01*
X6377000Y-12613000D02*
X6427000Y-12563000D01*
X6377000Y-12513000D01*
X6327000Y-12563000D01*
X6377000Y-12613000D01*
X6631000Y-11089000D02*
X6681000Y-11039000D01*
X6631000Y-10989000D01*
X6581000Y-11039000D01*
X6631000Y-11089000D01*
X6631000Y-12613000D02*
X6681000Y-12563000D01*
X6631000Y-12513000D01*
X6581000Y-12563000D01*
X6631000Y-12613000D01*
X6885000Y-11089000D02*
X6935000Y-11039000D01*
X6885000Y-10989000D01*
X6835000Y-11039000D01*
X6885000Y-11089000D01*
X6885000Y-12613000D02*
X6935000Y-12563000D01*
X6885000Y-12513000D01*
X6835000Y-12563000D01*
X6885000Y-12613000D01*
X7139000Y-11089000D02*
X7189000Y-11039000D01*
X7139000Y-10989000D01*
X7089000Y-11039000D01*
X7139000Y-11089000D01*
X7139000Y-12613000D02*
X7189000Y-12563000D01*
X7139000Y-12513000D01*
X7089000Y-12563000D01*
X7139000Y-12613000D01*
X7393000Y-11089000D02*
X7443000Y-11039000D01*
X7393000Y-10989000D01*
X7343000Y-11039000D01*
X7393000Y-11089000D01*
X7393000Y-12613000D02*
X7443000Y-12563000D01*
X7393000Y-12513000D01*
X7343000Y-12563000D01*
X7393000Y-12613000D01*
X7647000Y-11089000D02*
X7697000Y-11039000D01*
X7647000Y-10989000D01*
X7597000Y-11039000D01*
X7647000Y-11089000D01*
X7647000Y-12613000D02*
X7697000Y-12563000D01*
X7647000Y-12513000D01*
X7597000Y-12563000D01*
X7647000Y-12613000D01*
X7901000Y-11089000D02*
X7951000Y-11039000D01*
X7901000Y-10989000D01*
X7851000Y-11039000D01*
X7901000Y-11089000D01*
X7901000Y-12613000D02*
X7951000Y-12563000D01*
X7901000Y-12513000D01*
X7851000Y-12563000D01*
X7901000Y-12613000D01*
X8155000Y-11089000D02*
X8205000Y-11039000D01*
X8155000Y-10989000D01*
X8105000Y-11039000D01*
X8155000Y-11089000D01*
X8155000Y-12613000D02*
X8205000Y-12563000D01*
X8155000Y-12513000D01*
X8105000Y-12563000D01*
X8155000Y-12613000D01*
X8250000Y-6100000D02*
X8300000Y-6050000D01*
X8250000Y-6000000D01*
X8200000Y-6050000D01*
X8250000Y-6100000D01*
X8250000Y-6354000D02*
X8300000Y-6304000D01*
X8250000Y-6254000D01*
X8200000Y-6304000D01*
X8250000Y-6354000D01*
X9300000Y-6100000D02*
X9350000Y-6050000D01*
X9300000Y-6000000D01*
X9250000Y-6050000D01*
X9300000Y-6100000D01*
X9300000Y-6354000D02*
X9350000Y-6304000D01*
X9300000Y-6254000D01*
X9250000Y-6304000D01*
X9300000Y-6354000D01*
D17*
X10537000Y-12945000D02*
X10647000Y-13055000D01*
X10647000Y-12945000D02*
X10537000Y-13055000D01*
X10647000Y-13000000D02*
G75*
G03*
X10647000Y-13000000I-55000J0D01*
G01*
X11553000Y-12945000D02*
X11663000Y-13055000D01*
X11663000Y-12945000D02*
X11553000Y-13055000D01*
X11663000Y-13000000D02*
G75*
G03*
X11663000Y-13000000I-55000J0D01*
G01*
X18295000Y-9537000D02*
X18405000Y-9647000D01*
X18405000Y-9537000D02*
X18295000Y-9647000D01*
X18405000Y-9592000D02*
G75*
G03*
X18405000Y-9592000I-55000J0D01*
G01*
X18295000Y-10553000D02*
X18405000Y-10663000D01*
X18405000Y-10553000D02*
X18295000Y-10663000D01*
X18405000Y-10608000D02*
G75*
G03*
X18405000Y-10608000I-55000J0D01*
G01*
X18345000Y-11837000D02*
X18455000Y-11947000D01*
X18455000Y-11837000D02*
X18345000Y-11947000D01*
X18455000Y-11892000D02*
G75*
G03*
X18455000Y-11892000I-55000J0D01*
G01*
X18345000Y-12853000D02*
X18455000Y-12963000D01*
X18455000Y-12853000D02*
X18345000Y-12963000D01*
X18455000Y-12908000D02*
G75*
G03*
X18455000Y-12908000I-55000J0D01*
G01*
X19895000Y-9495000D02*
X20005000Y-9605000D01*
X20005000Y-9495000D02*
X19895000Y-9605000D01*
X20005000Y-9550000D02*
G75*
G03*
X20005000Y-9550000I-55000J0D01*
G01*
X19895000Y-10511000D02*
X20005000Y-10621000D01*
X20005000Y-10511000D02*
X19895000Y-10621000D01*
X20005000Y-10566000D02*
G75*
G03*
X20005000Y-10566000I-55000J0D01*
G01*
X19895000Y-11845000D02*
X20005000Y-11955000D01*
X20005000Y-11845000D02*
X19895000Y-11955000D01*
X20005000Y-11900000D02*
G75*
G03*
X20005000Y-11900000I-55000J0D01*
G01*
X19895000Y-12861000D02*
X20005000Y-12971000D01*
X20005000Y-12861000D02*
X19895000Y-12971000D01*
X20005000Y-12916000D02*
G75*
G03*
X20005000Y-12916000I-55000J0D01*
G01*
D18*
X11035500Y-12245500D02*
X11164500Y-12374500D01*
X11164500Y-12245500D02*
X11035500Y-12374500D01*
X11100000Y-12245500D02*
X11100000Y-12374500D01*
X11035500Y-12310000D02*
X11164500Y-12310000D01*
X17545500Y-10035500D02*
X17674500Y-10164500D01*
X17674500Y-10035500D02*
X17545500Y-10164500D01*
X17610000Y-10035500D02*
X17610000Y-10164500D01*
X17545500Y-10100000D02*
X17674500Y-10100000D01*
X17545500Y-12335500D02*
X17674500Y-12464500D01*
X17674500Y-12335500D02*
X17545500Y-12464500D01*
X17610000Y-12335500D02*
X17610000Y-12464500D01*
X17545500Y-12400000D02*
X17674500Y-12400000D01*
X20675500Y-10035500D02*
X20804500Y-10164500D01*
X20804500Y-10035500D02*
X20675500Y-10164500D01*
X20740000Y-10035500D02*
X20740000Y-10164500D01*
X20675500Y-10100000D02*
X20804500Y-10100000D01*
X20675500Y-12343500D02*
X20804500Y-12472500D01*
X20804500Y-12343500D02*
X20675500Y-12472500D01*
X20740000Y-12343500D02*
X20740000Y-12472500D01*
X20675500Y-12408000D02*
X20804500Y-12408000D01*
D19*
X5935000Y-6085000D02*
X6065000Y-6215000D01*
X6065000Y-6085000D02*
X5935000Y-6215000D01*
X6045962Y-6195962D02*
X6045962Y-6104038D01*
X5954038Y-6104038D01*
X5954038Y-6195962D01*
X6045962Y-6195962D01*
X6435000Y-6085000D02*
X6565000Y-6215000D01*
X6565000Y-6085000D02*
X6435000Y-6215000D01*
X6545962Y-6195962D02*
X6545962Y-6104038D01*
X6454038Y-6104038D01*
X6454038Y-6195962D01*
X6545962Y-6195962D01*
X6935000Y-6085000D02*
X7065000Y-6215000D01*
X7065000Y-6085000D02*
X6935000Y-6215000D01*
X7045962Y-6195962D02*
X7045962Y-6104038D01*
X6954038Y-6104038D01*
X6954038Y-6195962D01*
X7045962Y-6195962D01*
X10385000Y-6085000D02*
X10515000Y-6215000D01*
X10515000Y-6085000D02*
X10385000Y-6215000D01*
X10495962Y-6195962D02*
X10495962Y-6104038D01*
X10404038Y-6104038D01*
X10404038Y-6195962D01*
X10495962Y-6195962D01*
X10885000Y-6085000D02*
X11015000Y-6215000D01*
X11015000Y-6085000D02*
X10885000Y-6215000D01*
X10995962Y-6195962D02*
X10995962Y-6104038D01*
X10904038Y-6104038D01*
X10904038Y-6195962D01*
X10995962Y-6195962D01*
X11385000Y-6085000D02*
X11515000Y-6215000D01*
X11515000Y-6085000D02*
X11385000Y-6215000D01*
X11495962Y-6195962D02*
X11495962Y-6104038D01*
X11404038Y-6104038D01*
X11404038Y-6195962D01*
X11495962Y-6195962D01*
X15185000Y-8085000D02*
X15315000Y-8215000D01*
X15315000Y-8085000D02*
X15185000Y-8215000D01*
X15295962Y-8195962D02*
X15295962Y-8104038D01*
X15204038Y-8104038D01*
X15204038Y-8195962D01*
X15295962Y-8195962D01*
X15685000Y-8085000D02*
X15815000Y-8215000D01*
X15815000Y-8085000D02*
X15685000Y-8215000D01*
X15795962Y-8195962D02*
X15795962Y-8104038D01*
X15704038Y-8104038D01*
X15704038Y-8195962D01*
X15795962Y-8195962D01*
X16185000Y-8085000D02*
X16315000Y-8215000D01*
X16315000Y-8085000D02*
X16185000Y-8215000D01*
X16295962Y-8195962D02*
X16295962Y-8104038D01*
X16204038Y-8104038D01*
X16204038Y-8195962D01*
X16295962Y-8195962D01*
X17385000Y-8085000D02*
X17515000Y-8215000D01*
X17515000Y-8085000D02*
X17385000Y-8215000D01*
X17495962Y-8195962D02*
X17495962Y-8104038D01*
X17404038Y-8104038D01*
X17404038Y-8195962D01*
X17495962Y-8195962D01*
X17885000Y-8085000D02*
X18015000Y-8215000D01*
X18015000Y-8085000D02*
X17885000Y-8215000D01*
X17995962Y-8195962D02*
X17995962Y-8104038D01*
X17904038Y-8104038D01*
X17904038Y-8195962D01*
X17995962Y-8195962D01*
X19085000Y-8085000D02*
X19215000Y-8215000D01*
X19215000Y-8085000D02*
X19085000Y-8215000D01*
X19195962Y-8195962D02*
X19195962Y-8104038D01*
X19104038Y-8104038D01*
X19104038Y-8195962D01*
X19195962Y-8195962D01*
X19585000Y-8085000D02*
X19715000Y-8215000D01*
X19715000Y-8085000D02*
X19585000Y-8215000D01*
X19695962Y-8195962D02*
X19695962Y-8104038D01*
X19604038Y-8104038D01*
X19604038Y-8195962D01*
X19695962Y-8195962D01*
X20085000Y-8085000D02*
X20215000Y-8215000D01*
X20215000Y-8085000D02*
X20085000Y-8215000D01*
X20195962Y-8195962D02*
X20195962Y-8104038D01*
X20104038Y-8104038D01*
X20104038Y-8195962D01*
X20195962Y-8195962D01*
X20585000Y-8085000D02*
X20715000Y-8215000D01*
X20715000Y-8085000D02*
X20585000Y-8215000D01*
X20695962Y-8195962D02*
X20695962Y-8104038D01*
X20604038Y-8104038D01*
X20604038Y-8195962D01*
X20695962Y-8195962D01*
X21785000Y-8085000D02*
X21915000Y-8215000D01*
X21915000Y-8085000D02*
X21785000Y-8215000D01*
X21895962Y-8195962D02*
X21895962Y-8104038D01*
X21804038Y-8104038D01*
X21804038Y-8195962D01*
X21895962Y-8195962D01*
X22285000Y-8085000D02*
X22415000Y-8215000D01*
X22415000Y-8085000D02*
X22285000Y-8215000D01*
X22395962Y-8195962D02*
X22395962Y-8104038D01*
X22304038Y-8104038D01*
X22304038Y-8195962D01*
X22395962Y-8195962D01*
X22785000Y-8085000D02*
X22915000Y-8215000D01*
X22915000Y-8085000D02*
X22785000Y-8215000D01*
X22895962Y-8195962D02*
X22895962Y-8104038D01*
X22804038Y-8104038D01*
X22804038Y-8195962D01*
X22895962Y-8195962D01*
X23285000Y-8085000D02*
X23415000Y-8215000D01*
X23415000Y-8085000D02*
X23285000Y-8215000D01*
X23395962Y-8195962D02*
X23395962Y-8104038D01*
X23304038Y-8104038D01*
X23304038Y-8195962D01*
X23395962Y-8195962D01*
X23785000Y-8085000D02*
X23915000Y-8215000D01*
X23915000Y-8085000D02*
X23785000Y-8215000D01*
X23895962Y-8195962D02*
X23895962Y-8104038D01*
X23804038Y-8104038D01*
X23804038Y-8195962D01*
X23895962Y-8195962D01*
D20*
X10434000Y-10824000D02*
X10566000Y-10956000D01*
X10566000Y-10824000D02*
X10434000Y-10956000D01*
X10500000Y-10956000D02*
X10566000Y-10890000D01*
X10500000Y-10824000D01*
X10434000Y-10890000D01*
X10500000Y-10956000D01*
X10434000Y-12044000D02*
X10566000Y-12176000D01*
X10566000Y-12044000D02*
X10434000Y-12176000D01*
X10500000Y-12176000D02*
X10566000Y-12110000D01*
X10500000Y-12044000D01*
X10434000Y-12110000D01*
X10500000Y-12176000D01*
X11634000Y-10824000D02*
X11766000Y-10956000D01*
X11766000Y-10824000D02*
X11634000Y-10956000D01*
X11700000Y-10956000D02*
X11766000Y-10890000D01*
X11700000Y-10824000D01*
X11634000Y-10890000D01*
X11700000Y-10956000D01*
X11634000Y-12044000D02*
X11766000Y-12176000D01*
X11766000Y-12044000D02*
X11634000Y-12176000D01*
X11700000Y-12176000D02*
X11766000Y-12110000D01*
X11700000Y-12044000D01*
X11634000Y-12110000D01*
X11700000Y-12176000D01*
X16124000Y-9434000D02*
X16256000Y-9566000D01*
X16256000Y-9434000D02*
X16124000Y-9566000D01*
X16190000Y-9566000D02*
X16256000Y-9500000D01*
X16190000Y-9434000D01*
X16124000Y-9500000D01*
X16190000Y-9566000D01*
X16124000Y-10634000D02*
X16256000Y-10766000D01*
X16256000Y-10634000D02*
X16124000Y-10766000D01*
X16190000Y-10766000D02*
X16256000Y-10700000D01*
X16190000Y-10634000D01*
X16124000Y-10700000D01*
X16190000Y-10766000D01*
X16124000Y-11734000D02*
X16256000Y-11866000D01*
X16256000Y-11734000D02*
X16124000Y-11866000D01*
X16190000Y-11866000D02*
X16256000Y-11800000D01*
X16190000Y-11734000D01*
X16124000Y-11800000D01*
X16190000Y-11866000D01*
X16124000Y-12934000D02*
X16256000Y-13066000D01*
X16256000Y-12934000D02*
X16124000Y-13066000D01*
X16190000Y-13066000D02*
X16256000Y-13000000D01*
X16190000Y-12934000D01*
X16124000Y-13000000D01*
X16190000Y-13066000D01*
X17344000Y-9434000D02*
X17476000Y-9566000D01*
X17476000Y-9434000D02*
X17344000Y-9566000D01*
X17410000Y-9566000D02*
X17476000Y-9500000D01*
X17410000Y-9434000D01*
X17344000Y-9500000D01*
X17410000Y-9566000D01*
X17344000Y-10634000D02*
X17476000Y-10766000D01*
X17476000Y-10634000D02*
X17344000Y-10766000D01*
X17410000Y-10766000D02*
X17476000Y-10700000D01*
X17410000Y-10634000D01*
X17344000Y-10700000D01*
X17410000Y-10766000D01*
X17344000Y-11734000D02*
X17476000Y-11866000D01*
X17476000Y-11734000D02*
X17344000Y-11866000D01*
X17410000Y-11866000D02*
X17476000Y-11800000D01*
X17410000Y-11734000D01*
X17344000Y-11800000D01*
X17410000Y-11866000D01*
X17344000Y-12934000D02*
X17476000Y-13066000D01*
X17476000Y-12934000D02*
X17344000Y-13066000D01*
X17410000Y-13066000D02*
X17476000Y-13000000D01*
X17410000Y-12934000D01*
X17344000Y-13000000D01*
X17410000Y-13066000D01*
X20874000Y-9434000D02*
X21006000Y-9566000D01*
X21006000Y-9434000D02*
X20874000Y-9566000D01*
X20940000Y-9566000D02*
X21006000Y-9500000D01*
X20940000Y-9434000D01*
X20874000Y-9500000D01*
X20940000Y-9566000D01*
X20874000Y-10634000D02*
X21006000Y-10766000D01*
X21006000Y-10634000D02*
X20874000Y-10766000D01*
X20940000Y-10766000D02*
X21006000Y-10700000D01*
X20940000Y-10634000D01*
X20874000Y-10700000D01*
X20940000Y-10766000D01*
X20874000Y-11742000D02*
X21006000Y-11874000D01*
X21006000Y-11742000D02*
X20874000Y-11874000D01*
X20940000Y-11874000D02*
X21006000Y-11808000D01*
X20940000Y-11742000D01*
X20874000Y-11808000D01*
X20940000Y-11874000D01*
X20874000Y-12942000D02*
X21006000Y-13074000D01*
X21006000Y-12942000D02*
X20874000Y-13074000D01*
X20940000Y-13074000D02*
X21006000Y-13008000D01*
X20940000Y-12942000D01*
X20874000Y-13008000D01*
X20940000Y-13074000D01*
X22094000Y-9434000D02*
X22226000Y-9566000D01*
X22226000Y-9434000D02*
X22094000Y-9566000D01*
X22160000Y-9566000D02*
X22226000Y-9500000D01*
X22160000Y-9434000D01*
X22094000Y-9500000D01*
X22160000Y-9566000D01*
X22094000Y-10634000D02*
X22226000Y-10766000D01*
X22226000Y-10634000D02*
X22094000Y-10766000D01*
X22160000Y-10766000D02*
X22226000Y-10700000D01*
X22160000Y-10634000D01*
X22094000Y-10700000D01*
X22160000Y-10766000D01*
X22094000Y-11742000D02*
X22226000Y-11874000D01*
X22226000Y-11742000D02*
X22094000Y-11874000D01*
X22160000Y-11874000D02*
X22226000Y-11808000D01*
X22160000Y-11742000D01*
X22094000Y-11808000D01*
X22160000Y-11874000D01*
X22094000Y-12942000D02*
X22226000Y-13074000D01*
X22226000Y-12942000D02*
X22094000Y-13074000D01*
X22160000Y-13074000D02*
X22226000Y-13008000D01*
X22160000Y-12942000D01*
X22094000Y-13008000D01*
X22160000Y-13074000D01*
D11*
X4447619Y-14920476D02*
X4447619Y-14720476D01*
X4495238Y-14720476D01*
X4523810Y-14730000D01*
X4542857Y-14749048D01*
X4552381Y-14768095D01*
X4561905Y-14806190D01*
X4561905Y-14834762D01*
X4552381Y-14872857D01*
X4542857Y-14891905D01*
X4523810Y-14910952D01*
X4495238Y-14920476D01*
X4447619Y-14920476D01*
X4647619Y-14920476D02*
X4647619Y-14787143D01*
X4647619Y-14825238D02*
X4657143Y-14806190D01*
X4666667Y-14796667D01*
X4685714Y-14787143D01*
X4704762Y-14787143D01*
X4771429Y-14920476D02*
X4771429Y-14787143D01*
X4771429Y-14720476D02*
X4761905Y-14730000D01*
X4771429Y-14739524D01*
X4780952Y-14730000D01*
X4771429Y-14720476D01*
X4771429Y-14739524D01*
X4895238Y-14920476D02*
X4876190Y-14910952D01*
X4866667Y-14891905D01*
X4866667Y-14720476D01*
X5000000Y-14920476D02*
X4980952Y-14910952D01*
X4971429Y-14891905D01*
X4971429Y-14720476D01*
X5228571Y-14920476D02*
X5228571Y-14720476D01*
X5295238Y-14863333D01*
X5361905Y-14720476D01*
X5361905Y-14920476D01*
X5542857Y-14920476D02*
X5542857Y-14815714D01*
X5533333Y-14796667D01*
X5514286Y-14787143D01*
X5476190Y-14787143D01*
X5457143Y-14796667D01*
X5542857Y-14910952D02*
X5523810Y-14920476D01*
X5476190Y-14920476D01*
X5457143Y-14910952D01*
X5447619Y-14891905D01*
X5447619Y-14872857D01*
X5457143Y-14853809D01*
X5476190Y-14844286D01*
X5523810Y-14844286D01*
X5542857Y-14834762D01*
X5638095Y-14787143D02*
X5638095Y-14987143D01*
X5638095Y-14796667D02*
X5657143Y-14787143D01*
X5695238Y-14787143D01*
X5714286Y-14796667D01*
X5723809Y-14806190D01*
X5733333Y-14825238D01*
X5733333Y-14882381D01*
X5723809Y-14901428D01*
X5714286Y-14910952D01*
X5695238Y-14920476D01*
X5657143Y-14920476D01*
X5638095Y-14910952D01*
X5819048Y-14901428D02*
X5828571Y-14910952D01*
X5819048Y-14920476D01*
X5809524Y-14910952D01*
X5819048Y-14901428D01*
X5819048Y-14920476D01*
X5819048Y-14796667D02*
X5828571Y-14806190D01*
X5819048Y-14815714D01*
X5809524Y-14806190D01*
X5819048Y-14796667D01*
X5819048Y-14815714D01*
D12*
X4150000Y-15230000D02*
X4190000Y-15270000D01*
X4190000Y-15230000D02*
X4150000Y-15270000D01*
D11*
X4485714Y-15140476D02*
X4504762Y-15140476D01*
X4523810Y-15150000D01*
X4533333Y-15159524D01*
X4542857Y-15178571D01*
X4552381Y-15216667D01*
X4552381Y-15264286D01*
X4542857Y-15302381D01*
X4533333Y-15321428D01*
X4523810Y-15330952D01*
X4504762Y-15340476D01*
X4485714Y-15340476D01*
X4466667Y-15330952D01*
X4457143Y-15321428D01*
X4447619Y-15302381D01*
X4438095Y-15264286D01*
X4438095Y-15216667D01*
X4447619Y-15178571D01*
X4457143Y-15159524D01*
X4466667Y-15150000D01*
X4485714Y-15140476D01*
X4638095Y-15321428D02*
X4647619Y-15330952D01*
X4638095Y-15340476D01*
X4628571Y-15330952D01*
X4638095Y-15321428D01*
X4638095Y-15340476D01*
X4819048Y-15207143D02*
X4819048Y-15340476D01*
X4771429Y-15130952D02*
X4723810Y-15273809D01*
X4847619Y-15273809D01*
X4961905Y-15140476D02*
X4980952Y-15140476D01*
X5000000Y-15150000D01*
X5009524Y-15159524D01*
X5019048Y-15178571D01*
X5028571Y-15216667D01*
X5028571Y-15264286D01*
X5019048Y-15302381D01*
X5009524Y-15321428D01*
X5000000Y-15330952D01*
X4980952Y-15340476D01*
X4961905Y-15340476D01*
X4942857Y-15330952D01*
X4933333Y-15321428D01*
X4923810Y-15302381D01*
X4914286Y-15264286D01*
X4914286Y-15216667D01*
X4923810Y-15178571D01*
X4933333Y-15159524D01*
X4942857Y-15150000D01*
X4961905Y-15140476D01*
X5152381Y-15140476D02*
X5171429Y-15140476D01*
X5190476Y-15150000D01*
X5200000Y-15159524D01*
X5209524Y-15178571D01*
X5219048Y-15216667D01*
X5219048Y-15264286D01*
X5209524Y-15302381D01*
X5200000Y-15321428D01*
X5190476Y-15330952D01*
X5171429Y-15340476D01*
X5152381Y-15340476D01*
X5133333Y-15330952D01*
X5123810Y-15321428D01*
X5114286Y-15302381D01*
X5104762Y-15264286D01*
X5104762Y-15216667D01*
X5114286Y-15178571D01*
X5123810Y-15159524D01*
X5133333Y-15150000D01*
X5152381Y-15140476D01*
X5304762Y-15340476D02*
X5304762Y-15207143D01*
X5304762Y-15226190D02*
X5314286Y-15216667D01*
X5333333Y-15207143D01*
X5361905Y-15207143D01*
X5380952Y-15216667D01*
X5390476Y-15235714D01*
X5390476Y-15340476D01*
X5390476Y-15235714D02*
X5400000Y-15216667D01*
X5419048Y-15207143D01*
X5447619Y-15207143D01*
X5466667Y-15216667D01*
X5476190Y-15235714D01*
X5476190Y-15340476D01*
X5571429Y-15340476D02*
X5571429Y-15207143D01*
X5571429Y-15226190D02*
X5580952Y-15216667D01*
X5600000Y-15207143D01*
X5628571Y-15207143D01*
X5647619Y-15216667D01*
X5657143Y-15235714D01*
X5657143Y-15340476D01*
X5657143Y-15235714D02*
X5666667Y-15216667D01*
X5685714Y-15207143D01*
X5714286Y-15207143D01*
X5733333Y-15216667D01*
X5742857Y-15235714D01*
X5742857Y-15340476D01*
X6133333Y-15130952D02*
X5961905Y-15388095D01*
X6390476Y-15140476D02*
X6409524Y-15140476D01*
X6428571Y-15150000D01*
X6438095Y-15159524D01*
X6447619Y-15178571D01*
X6457143Y-15216667D01*
X6457143Y-15264286D01*
X6447619Y-15302381D01*
X6438095Y-15321428D01*
X6428571Y-15330952D01*
X6409524Y-15340476D01*
X6390476Y-15340476D01*
X6371428Y-15330952D01*
X6361905Y-15321428D01*
X6352381Y-15302381D01*
X6342857Y-15264286D01*
X6342857Y-15216667D01*
X6352381Y-15178571D01*
X6361905Y-15159524D01*
X6371428Y-15150000D01*
X6390476Y-15140476D01*
X6542857Y-15321428D02*
X6552381Y-15330952D01*
X6542857Y-15340476D01*
X6533333Y-15330952D01*
X6542857Y-15321428D01*
X6542857Y-15340476D01*
X6676190Y-15140476D02*
X6695238Y-15140476D01*
X6714286Y-15150000D01*
X6723809Y-15159524D01*
X6733333Y-15178571D01*
X6742857Y-15216667D01*
X6742857Y-15264286D01*
X6733333Y-15302381D01*
X6723809Y-15321428D01*
X6714286Y-15330952D01*
X6695238Y-15340476D01*
X6676190Y-15340476D01*
X6657143Y-15330952D01*
X6647619Y-15321428D01*
X6638095Y-15302381D01*
X6628571Y-15264286D01*
X6628571Y-15216667D01*
X6638095Y-15178571D01*
X6647619Y-15159524D01*
X6657143Y-15150000D01*
X6676190Y-15140476D01*
X6933333Y-15340476D02*
X6819048Y-15340476D01*
X6876190Y-15340476D02*
X6876190Y-15140476D01*
X6857143Y-15169048D01*
X6838095Y-15188095D01*
X6819048Y-15197619D01*
X7114286Y-15140476D02*
X7019048Y-15140476D01*
X7009524Y-15235714D01*
X7019048Y-15226190D01*
X7038095Y-15216667D01*
X7085714Y-15216667D01*
X7104762Y-15226190D01*
X7114286Y-15235714D01*
X7123809Y-15254762D01*
X7123809Y-15302381D01*
X7114286Y-15321428D01*
X7104762Y-15330952D01*
X7085714Y-15340476D01*
X7038095Y-15340476D01*
X7019048Y-15330952D01*
X7009524Y-15321428D01*
X7190476Y-15140476D02*
X7323809Y-15140476D01*
X7238095Y-15340476D01*
X7390476Y-15140476D02*
X7390476Y-15178571D01*
X7466667Y-15140476D02*
X7466667Y-15178571D01*
X7761905Y-15416667D02*
X7752381Y-15407143D01*
X7733333Y-15378571D01*
X7723809Y-15359524D01*
X7714286Y-15330952D01*
X7704762Y-15283333D01*
X7704762Y-15245238D01*
X7714286Y-15197619D01*
X7723809Y-15169048D01*
X7733333Y-15150000D01*
X7752381Y-15121428D01*
X7761905Y-15111905D01*
X7923809Y-15140476D02*
X7885714Y-15140476D01*
X7866667Y-15150000D01*
X7857143Y-15159524D01*
X7838095Y-15188095D01*
X7828571Y-15226190D01*
X7828571Y-15302381D01*
X7838095Y-15321428D01*
X7847619Y-15330952D01*
X7866667Y-15340476D01*
X7904762Y-15340476D01*
X7923809Y-15330952D01*
X7933333Y-15321428D01*
X7942857Y-15302381D01*
X7942857Y-15254762D01*
X7933333Y-15235714D01*
X7923809Y-15226190D01*
X7904762Y-15216667D01*
X7866667Y-15216667D01*
X7847619Y-15226190D01*
X7838095Y-15235714D01*
X7828571Y-15254762D01*
X8114286Y-15207143D02*
X8114286Y-15340476D01*
X8066667Y-15130952D02*
X8019048Y-15273809D01*
X8142857Y-15273809D01*
X8371428Y-15340476D02*
X8371428Y-15140476D01*
X8457143Y-15340476D02*
X8457143Y-15235714D01*
X8447619Y-15216667D01*
X8428571Y-15207143D01*
X8400000Y-15207143D01*
X8380952Y-15216667D01*
X8371428Y-15226190D01*
X8580952Y-15340476D02*
X8561905Y-15330952D01*
X8552381Y-15321428D01*
X8542857Y-15302381D01*
X8542857Y-15245238D01*
X8552381Y-15226190D01*
X8561905Y-15216667D01*
X8580952Y-15207143D01*
X8609524Y-15207143D01*
X8628571Y-15216667D01*
X8638095Y-15226190D01*
X8647619Y-15245238D01*
X8647619Y-15302381D01*
X8638095Y-15321428D01*
X8628571Y-15330952D01*
X8609524Y-15340476D01*
X8580952Y-15340476D01*
X8761905Y-15340476D02*
X8742857Y-15330952D01*
X8733333Y-15311905D01*
X8733333Y-15140476D01*
X8914286Y-15330952D02*
X8895238Y-15340476D01*
X8857143Y-15340476D01*
X8838095Y-15330952D01*
X8828571Y-15311905D01*
X8828571Y-15235714D01*
X8838095Y-15216667D01*
X8857143Y-15207143D01*
X8895238Y-15207143D01*
X8914286Y-15216667D01*
X8923810Y-15235714D01*
X8923810Y-15254762D01*
X8828571Y-15273809D01*
X9000000Y-15330952D02*
X9019048Y-15340476D01*
X9057143Y-15340476D01*
X9076190Y-15330952D01*
X9085714Y-15311905D01*
X9085714Y-15302381D01*
X9076190Y-15283333D01*
X9057143Y-15273809D01*
X9028571Y-15273809D01*
X9009524Y-15264286D01*
X9000000Y-15245238D01*
X9000000Y-15235714D01*
X9009524Y-15216667D01*
X9028571Y-15207143D01*
X9057143Y-15207143D01*
X9076190Y-15216667D01*
X9152381Y-15416667D02*
X9161905Y-15407143D01*
X9180952Y-15378571D01*
X9190476Y-15359524D01*
X9200000Y-15330952D01*
X9209524Y-15283333D01*
X9209524Y-15245238D01*
X9200000Y-15197619D01*
X9190476Y-15169048D01*
X9180952Y-15150000D01*
X9161905Y-15121428D01*
X9152381Y-15111905D01*
D13*
X4190000Y-15514000D02*
G75*
G03*
X4190000Y-15514000I-37500J0D01*
G01*
D11*
X4485714Y-15404476D02*
X4504762Y-15404476D01*
X4523810Y-15414000D01*
X4533333Y-15423524D01*
X4542857Y-15442571D01*
X4552381Y-15480667D01*
X4552381Y-15528286D01*
X4542857Y-15566381D01*
X4533333Y-15585428D01*
X4523810Y-15594952D01*
X4504762Y-15604476D01*
X4485714Y-15604476D01*
X4466667Y-15594952D01*
X4457143Y-15585428D01*
X4447619Y-15566381D01*
X4438095Y-15528286D01*
X4438095Y-15480667D01*
X4447619Y-15442571D01*
X4457143Y-15423524D01*
X4466667Y-15414000D01*
X4485714Y-15404476D01*
X4638095Y-15585428D02*
X4647619Y-15594952D01*
X4638095Y-15604476D01*
X4628571Y-15594952D01*
X4638095Y-15585428D01*
X4638095Y-15604476D01*
X4714286Y-15404476D02*
X4847619Y-15404476D01*
X4761905Y-15604476D01*
X5019048Y-15404476D02*
X4923810Y-15404476D01*
X4914286Y-15499714D01*
X4923810Y-15490190D01*
X4942857Y-15480667D01*
X4990476Y-15480667D01*
X5009524Y-15490190D01*
X5019048Y-15499714D01*
X5028571Y-15518762D01*
X5028571Y-15566381D01*
X5019048Y-15585428D01*
X5009524Y-15594952D01*
X4990476Y-15604476D01*
X4942857Y-15604476D01*
X4923810Y-15594952D01*
X4914286Y-15585428D01*
X5152381Y-15404476D02*
X5171429Y-15404476D01*
X5190476Y-15414000D01*
X5200000Y-15423524D01*
X5209524Y-15442571D01*
X5219048Y-15480667D01*
X5219048Y-15528286D01*
X5209524Y-15566381D01*
X5200000Y-15585428D01*
X5190476Y-15594952D01*
X5171429Y-15604476D01*
X5152381Y-15604476D01*
X5133333Y-15594952D01*
X5123810Y-15585428D01*
X5114286Y-15566381D01*
X5104762Y-15528286D01*
X5104762Y-15480667D01*
X5114286Y-15442571D01*
X5123810Y-15423524D01*
X5133333Y-15414000D01*
X5152381Y-15404476D01*
X5304762Y-15604476D02*
X5304762Y-15471143D01*
X5304762Y-15490190D02*
X5314286Y-15480667D01*
X5333333Y-15471143D01*
X5361905Y-15471143D01*
X5380952Y-15480667D01*
X5390476Y-15499714D01*
X5390476Y-15604476D01*
X5390476Y-15499714D02*
X5400000Y-15480667D01*
X5419048Y-15471143D01*
X5447619Y-15471143D01*
X5466667Y-15480667D01*
X5476190Y-15499714D01*
X5476190Y-15604476D01*
X5571429Y-15604476D02*
X5571429Y-15471143D01*
X5571429Y-15490190D02*
X5580952Y-15480667D01*
X5600000Y-15471143D01*
X5628571Y-15471143D01*
X5647619Y-15480667D01*
X5657143Y-15499714D01*
X5657143Y-15604476D01*
X5657143Y-15499714D02*
X5666667Y-15480667D01*
X5685714Y-15471143D01*
X5714286Y-15471143D01*
X5733333Y-15480667D01*
X5742857Y-15499714D01*
X5742857Y-15604476D01*
X6133333Y-15394952D02*
X5961905Y-15652095D01*
X6390476Y-15404476D02*
X6409524Y-15404476D01*
X6428571Y-15414000D01*
X6438095Y-15423524D01*
X6447619Y-15442571D01*
X6457143Y-15480667D01*
X6457143Y-15528286D01*
X6447619Y-15566381D01*
X6438095Y-15585428D01*
X6428571Y-15594952D01*
X6409524Y-15604476D01*
X6390476Y-15604476D01*
X6371428Y-15594952D01*
X6361905Y-15585428D01*
X6352381Y-15566381D01*
X6342857Y-15528286D01*
X6342857Y-15480667D01*
X6352381Y-15442571D01*
X6361905Y-15423524D01*
X6371428Y-15414000D01*
X6390476Y-15404476D01*
X6542857Y-15585428D02*
X6552381Y-15594952D01*
X6542857Y-15604476D01*
X6533333Y-15594952D01*
X6542857Y-15585428D01*
X6542857Y-15604476D01*
X6676190Y-15404476D02*
X6695238Y-15404476D01*
X6714286Y-15414000D01*
X6723809Y-15423524D01*
X6733333Y-15442571D01*
X6742857Y-15480667D01*
X6742857Y-15528286D01*
X6733333Y-15566381D01*
X6723809Y-15585428D01*
X6714286Y-15594952D01*
X6695238Y-15604476D01*
X6676190Y-15604476D01*
X6657143Y-15594952D01*
X6647619Y-15585428D01*
X6638095Y-15566381D01*
X6628571Y-15528286D01*
X6628571Y-15480667D01*
X6638095Y-15442571D01*
X6647619Y-15423524D01*
X6657143Y-15414000D01*
X6676190Y-15404476D01*
X6819048Y-15423524D02*
X6828571Y-15414000D01*
X6847619Y-15404476D01*
X6895238Y-15404476D01*
X6914286Y-15414000D01*
X6923809Y-15423524D01*
X6933333Y-15442571D01*
X6933333Y-15461619D01*
X6923809Y-15490190D01*
X6809524Y-15604476D01*
X6933333Y-15604476D01*
X7028571Y-15604476D02*
X7066667Y-15604476D01*
X7085714Y-15594952D01*
X7095238Y-15585428D01*
X7114286Y-15556857D01*
X7123809Y-15518762D01*
X7123809Y-15442571D01*
X7114286Y-15423524D01*
X7104762Y-15414000D01*
X7085714Y-15404476D01*
X7047619Y-15404476D01*
X7028571Y-15414000D01*
X7019048Y-15423524D01*
X7009524Y-15442571D01*
X7009524Y-15490190D01*
X7019048Y-15509238D01*
X7028571Y-15518762D01*
X7047619Y-15528286D01*
X7085714Y-15528286D01*
X7104762Y-15518762D01*
X7114286Y-15509238D01*
X7123809Y-15490190D01*
X7304762Y-15404476D02*
X7209524Y-15404476D01*
X7200000Y-15499714D01*
X7209524Y-15490190D01*
X7228571Y-15480667D01*
X7276190Y-15480667D01*
X7295238Y-15490190D01*
X7304762Y-15499714D01*
X7314286Y-15518762D01*
X7314286Y-15566381D01*
X7304762Y-15585428D01*
X7295238Y-15594952D01*
X7276190Y-15604476D01*
X7228571Y-15604476D01*
X7209524Y-15594952D01*
X7200000Y-15585428D01*
X7390476Y-15404476D02*
X7390476Y-15442571D01*
X7466667Y-15404476D02*
X7466667Y-15442571D01*
X7761905Y-15680667D02*
X7752381Y-15671143D01*
X7733333Y-15642571D01*
X7723809Y-15623524D01*
X7714286Y-15594952D01*
X7704762Y-15547333D01*
X7704762Y-15509238D01*
X7714286Y-15461619D01*
X7723809Y-15433048D01*
X7733333Y-15414000D01*
X7752381Y-15385428D01*
X7761905Y-15375905D01*
X7942857Y-15604476D02*
X7828571Y-15604476D01*
X7885714Y-15604476D02*
X7885714Y-15404476D01*
X7866667Y-15433048D01*
X7847619Y-15452095D01*
X7828571Y-15461619D01*
X8123809Y-15404476D02*
X8028571Y-15404476D01*
X8019048Y-15499714D01*
X8028571Y-15490190D01*
X8047619Y-15480667D01*
X8095238Y-15480667D01*
X8114286Y-15490190D01*
X8123809Y-15499714D01*
X8133333Y-15518762D01*
X8133333Y-15566381D01*
X8123809Y-15585428D01*
X8114286Y-15594952D01*
X8095238Y-15604476D01*
X8047619Y-15604476D01*
X8028571Y-15594952D01*
X8019048Y-15585428D01*
X8371428Y-15604476D02*
X8371428Y-15404476D01*
X8457143Y-15604476D02*
X8457143Y-15499714D01*
X8447619Y-15480667D01*
X8428571Y-15471143D01*
X8400000Y-15471143D01*
X8380952Y-15480667D01*
X8371428Y-15490190D01*
X8580952Y-15604476D02*
X8561905Y-15594952D01*
X8552381Y-15585428D01*
X8542857Y-15566381D01*
X8542857Y-15509238D01*
X8552381Y-15490190D01*
X8561905Y-15480667D01*
X8580952Y-15471143D01*
X8609524Y-15471143D01*
X8628571Y-15480667D01*
X8638095Y-15490190D01*
X8647619Y-15509238D01*
X8647619Y-15566381D01*
X8638095Y-15585428D01*
X8628571Y-15594952D01*
X8609524Y-15604476D01*
X8580952Y-15604476D01*
X8761905Y-15604476D02*
X8742857Y-15594952D01*
X8733333Y-15575905D01*
X8733333Y-15404476D01*
X8914286Y-15594952D02*
X8895238Y-15604476D01*
X8857143Y-15604476D01*
X8838095Y-15594952D01*
X8828571Y-15575905D01*
X8828571Y-15499714D01*
X8838095Y-15480667D01*
X8857143Y-15471143D01*
X8895238Y-15471143D01*
X8914286Y-15480667D01*
X8923810Y-15499714D01*
X8923810Y-15518762D01*
X8828571Y-15537809D01*
X9000000Y-15594952D02*
X9019048Y-15604476D01*
X9057143Y-15604476D01*
X9076190Y-15594952D01*
X9085714Y-15575905D01*
X9085714Y-15566381D01*
X9076190Y-15547333D01*
X9057143Y-15537809D01*
X9028571Y-15537809D01*
X9009524Y-15528286D01*
X9000000Y-15509238D01*
X9000000Y-15499714D01*
X9009524Y-15480667D01*
X9028571Y-15471143D01*
X9057143Y-15471143D01*
X9076190Y-15480667D01*
X9152381Y-15680667D02*
X9161905Y-15671143D01*
X9180952Y-15642571D01*
X9190476Y-15623524D01*
X9200000Y-15594952D01*
X9209524Y-15547333D01*
X9209524Y-15509238D01*
X9200000Y-15461619D01*
X9190476Y-15433048D01*
X9180952Y-15414000D01*
X9161905Y-15385428D01*
X9152381Y-15375905D01*
D14*
X4152000Y-15740000D02*
X4152000Y-15816000D01*
X4114000Y-15778000D02*
X4190000Y-15778000D01*
D11*
X4485714Y-15668476D02*
X4504762Y-15668476D01*
X4523810Y-15678000D01*
X4533333Y-15687524D01*
X4542857Y-15706571D01*
X4552381Y-15744667D01*
X4552381Y-15792286D01*
X4542857Y-15830381D01*
X4533333Y-15849428D01*
X4523810Y-15858952D01*
X4504762Y-15868476D01*
X4485714Y-15868476D01*
X4466667Y-15858952D01*
X4457143Y-15849428D01*
X4447619Y-15830381D01*
X4438095Y-15792286D01*
X4438095Y-15744667D01*
X4447619Y-15706571D01*
X4457143Y-15687524D01*
X4466667Y-15678000D01*
X4485714Y-15668476D01*
X4638095Y-15849428D02*
X4647619Y-15858952D01*
X4638095Y-15868476D01*
X4628571Y-15858952D01*
X4638095Y-15849428D01*
X4638095Y-15868476D01*
X4714286Y-15668476D02*
X4847619Y-15668476D01*
X4761905Y-15868476D01*
X5009524Y-15668476D02*
X4971429Y-15668476D01*
X4952381Y-15678000D01*
X4942857Y-15687524D01*
X4923810Y-15716095D01*
X4914286Y-15754190D01*
X4914286Y-15830381D01*
X4923810Y-15849428D01*
X4933333Y-15858952D01*
X4952381Y-15868476D01*
X4990476Y-15868476D01*
X5009524Y-15858952D01*
X5019048Y-15849428D01*
X5028571Y-15830381D01*
X5028571Y-15782762D01*
X5019048Y-15763714D01*
X5009524Y-15754190D01*
X4990476Y-15744667D01*
X4952381Y-15744667D01*
X4933333Y-15754190D01*
X4923810Y-15763714D01*
X4914286Y-15782762D01*
X5152381Y-15668476D02*
X5171429Y-15668476D01*
X5190476Y-15678000D01*
X5200000Y-15687524D01*
X5209524Y-15706571D01*
X5219048Y-15744667D01*
X5219048Y-15792286D01*
X5209524Y-15830381D01*
X5200000Y-15849428D01*
X5190476Y-15858952D01*
X5171429Y-15868476D01*
X5152381Y-15868476D01*
X5133333Y-15858952D01*
X5123810Y-15849428D01*
X5114286Y-15830381D01*
X5104762Y-15792286D01*
X5104762Y-15744667D01*
X5114286Y-15706571D01*
X5123810Y-15687524D01*
X5133333Y-15678000D01*
X5152381Y-15668476D01*
X5304762Y-15868476D02*
X5304762Y-15735143D01*
X5304762Y-15754190D02*
X5314286Y-15744667D01*
X5333333Y-15735143D01*
X5361905Y-15735143D01*
X5380952Y-15744667D01*
X5390476Y-15763714D01*
X5390476Y-15868476D01*
X5390476Y-15763714D02*
X5400000Y-15744667D01*
X5419048Y-15735143D01*
X5447619Y-15735143D01*
X5466667Y-15744667D01*
X5476190Y-15763714D01*
X5476190Y-15868476D01*
X5571429Y-15868476D02*
X5571429Y-15735143D01*
X5571429Y-15754190D02*
X5580952Y-15744667D01*
X5600000Y-15735143D01*
X5628571Y-15735143D01*
X5647619Y-15744667D01*
X5657143Y-15763714D01*
X5657143Y-15868476D01*
X5657143Y-15763714D02*
X5666667Y-15744667D01*
X5685714Y-15735143D01*
X5714286Y-15735143D01*
X5733333Y-15744667D01*
X5742857Y-15763714D01*
X5742857Y-15868476D01*
X6133333Y-15658952D02*
X5961905Y-15916095D01*
X6390476Y-15668476D02*
X6409524Y-15668476D01*
X6428571Y-15678000D01*
X6438095Y-15687524D01*
X6447619Y-15706571D01*
X6457143Y-15744667D01*
X6457143Y-15792286D01*
X6447619Y-15830381D01*
X6438095Y-15849428D01*
X6428571Y-15858952D01*
X6409524Y-15868476D01*
X6390476Y-15868476D01*
X6371428Y-15858952D01*
X6361905Y-15849428D01*
X6352381Y-15830381D01*
X6342857Y-15792286D01*
X6342857Y-15744667D01*
X6352381Y-15706571D01*
X6361905Y-15687524D01*
X6371428Y-15678000D01*
X6390476Y-15668476D01*
X6542857Y-15849428D02*
X6552381Y-15858952D01*
X6542857Y-15868476D01*
X6533333Y-15858952D01*
X6542857Y-15849428D01*
X6542857Y-15868476D01*
X6676190Y-15668476D02*
X6695238Y-15668476D01*
X6714286Y-15678000D01*
X6723809Y-15687524D01*
X6733333Y-15706571D01*
X6742857Y-15744667D01*
X6742857Y-15792286D01*
X6733333Y-15830381D01*
X6723809Y-15849428D01*
X6714286Y-15858952D01*
X6695238Y-15868476D01*
X6676190Y-15868476D01*
X6657143Y-15858952D01*
X6647619Y-15849428D01*
X6638095Y-15830381D01*
X6628571Y-15792286D01*
X6628571Y-15744667D01*
X6638095Y-15706571D01*
X6647619Y-15687524D01*
X6657143Y-15678000D01*
X6676190Y-15668476D01*
X6819048Y-15687524D02*
X6828571Y-15678000D01*
X6847619Y-15668476D01*
X6895238Y-15668476D01*
X6914286Y-15678000D01*
X6923809Y-15687524D01*
X6933333Y-15706571D01*
X6933333Y-15725619D01*
X6923809Y-15754190D01*
X6809524Y-15868476D01*
X6933333Y-15868476D01*
X7028571Y-15868476D02*
X7066667Y-15868476D01*
X7085714Y-15858952D01*
X7095238Y-15849428D01*
X7114286Y-15820857D01*
X7123809Y-15782762D01*
X7123809Y-15706571D01*
X7114286Y-15687524D01*
X7104762Y-15678000D01*
X7085714Y-15668476D01*
X7047619Y-15668476D01*
X7028571Y-15678000D01*
X7019048Y-15687524D01*
X7009524Y-15706571D01*
X7009524Y-15754190D01*
X7019048Y-15773238D01*
X7028571Y-15782762D01*
X7047619Y-15792286D01*
X7085714Y-15792286D01*
X7104762Y-15782762D01*
X7114286Y-15773238D01*
X7123809Y-15754190D01*
X7219048Y-15868476D02*
X7257143Y-15868476D01*
X7276190Y-15858952D01*
X7285714Y-15849428D01*
X7304762Y-15820857D01*
X7314286Y-15782762D01*
X7314286Y-15706571D01*
X7304762Y-15687524D01*
X7295238Y-15678000D01*
X7276190Y-15668476D01*
X7238095Y-15668476D01*
X7219048Y-15678000D01*
X7209524Y-15687524D01*
X7200000Y-15706571D01*
X7200000Y-15754190D01*
X7209524Y-15773238D01*
X7219048Y-15782762D01*
X7238095Y-15792286D01*
X7276190Y-15792286D01*
X7295238Y-15782762D01*
X7304762Y-15773238D01*
X7314286Y-15754190D01*
X7390476Y-15668476D02*
X7390476Y-15706571D01*
X7466667Y-15668476D02*
X7466667Y-15706571D01*
X7761905Y-15944667D02*
X7752381Y-15935143D01*
X7733333Y-15906571D01*
X7723809Y-15887524D01*
X7714286Y-15858952D01*
X7704762Y-15811333D01*
X7704762Y-15773238D01*
X7714286Y-15725619D01*
X7723809Y-15697048D01*
X7733333Y-15678000D01*
X7752381Y-15649428D01*
X7761905Y-15639905D01*
X7866667Y-15754190D02*
X7847619Y-15744667D01*
X7838095Y-15735143D01*
X7828571Y-15716095D01*
X7828571Y-15706571D01*
X7838095Y-15687524D01*
X7847619Y-15678000D01*
X7866667Y-15668476D01*
X7904762Y-15668476D01*
X7923809Y-15678000D01*
X7933333Y-15687524D01*
X7942857Y-15706571D01*
X7942857Y-15716095D01*
X7933333Y-15735143D01*
X7923809Y-15744667D01*
X7904762Y-15754190D01*
X7866667Y-15754190D01*
X7847619Y-15763714D01*
X7838095Y-15773238D01*
X7828571Y-15792286D01*
X7828571Y-15830381D01*
X7838095Y-15849428D01*
X7847619Y-15858952D01*
X7866667Y-15868476D01*
X7904762Y-15868476D01*
X7923809Y-15858952D01*
X7933333Y-15849428D01*
X7942857Y-15830381D01*
X7942857Y-15792286D01*
X7933333Y-15773238D01*
X7923809Y-15763714D01*
X7904762Y-15754190D01*
X8180952Y-15868476D02*
X8180952Y-15668476D01*
X8266667Y-15868476D02*
X8266667Y-15763714D01*
X8257143Y-15744667D01*
X8238095Y-15735143D01*
X8209524Y-15735143D01*
X8190476Y-15744667D01*
X8180952Y-15754190D01*
X8390476Y-15868476D02*
X8371428Y-15858952D01*
X8361905Y-15849428D01*
X8352381Y-15830381D01*
X8352381Y-15773238D01*
X8361905Y-15754190D01*
X8371428Y-15744667D01*
X8390476Y-15735143D01*
X8419048Y-15735143D01*
X8438095Y-15744667D01*
X8447619Y-15754190D01*
X8457143Y-15773238D01*
X8457143Y-15830381D01*
X8447619Y-15849428D01*
X8438095Y-15858952D01*
X8419048Y-15868476D01*
X8390476Y-15868476D01*
X8571429Y-15868476D02*
X8552381Y-15858952D01*
X8542857Y-15839905D01*
X8542857Y-15668476D01*
X8723810Y-15858952D02*
X8704762Y-15868476D01*
X8666667Y-15868476D01*
X8647619Y-15858952D01*
X8638095Y-15839905D01*
X8638095Y-15763714D01*
X8647619Y-15744667D01*
X8666667Y-15735143D01*
X8704762Y-15735143D01*
X8723810Y-15744667D01*
X8733333Y-15763714D01*
X8733333Y-15782762D01*
X8638095Y-15801809D01*
X8809524Y-15858952D02*
X8828571Y-15868476D01*
X8866667Y-15868476D01*
X8885714Y-15858952D01*
X8895238Y-15839905D01*
X8895238Y-15830381D01*
X8885714Y-15811333D01*
X8866667Y-15801809D01*
X8838095Y-15801809D01*
X8819048Y-15792286D01*
X8809524Y-15773238D01*
X8809524Y-15763714D01*
X8819048Y-15744667D01*
X8838095Y-15735143D01*
X8866667Y-15735143D01*
X8885714Y-15744667D01*
X8961905Y-15944667D02*
X8971429Y-15935143D01*
X8990476Y-15906571D01*
X9000000Y-15887524D01*
X9009524Y-15858952D01*
X9019048Y-15811333D01*
X9019048Y-15773238D01*
X9009524Y-15725619D01*
X9000000Y-15697048D01*
X8990476Y-15678000D01*
X8971429Y-15649428D01*
X8961905Y-15639905D01*
D15*
X4178284Y-16070284D02*
X4178284Y-16013715D01*
X4121715Y-16013715D01*
X4121715Y-16070284D01*
X4178284Y-16070284D01*
D11*
X4485714Y-15932476D02*
X4504762Y-15932476D01*
X4523810Y-15942000D01*
X4533333Y-15951524D01*
X4542857Y-15970571D01*
X4552381Y-16008667D01*
X4552381Y-16056286D01*
X4542857Y-16094381D01*
X4533333Y-16113428D01*
X4523810Y-16122952D01*
X4504762Y-16132476D01*
X4485714Y-16132476D01*
X4466667Y-16122952D01*
X4457143Y-16113428D01*
X4447619Y-16094381D01*
X4438095Y-16056286D01*
X4438095Y-16008667D01*
X4447619Y-15970571D01*
X4457143Y-15951524D01*
X4466667Y-15942000D01*
X4485714Y-15932476D01*
X4638095Y-16113428D02*
X4647619Y-16122952D01*
X4638095Y-16132476D01*
X4628571Y-16122952D01*
X4638095Y-16113428D01*
X4638095Y-16132476D01*
X4761905Y-16018190D02*
X4742857Y-16008667D01*
X4733333Y-15999143D01*
X4723810Y-15980095D01*
X4723810Y-15970571D01*
X4733333Y-15951524D01*
X4742857Y-15942000D01*
X4761905Y-15932476D01*
X4800000Y-15932476D01*
X4819048Y-15942000D01*
X4828571Y-15951524D01*
X4838095Y-15970571D01*
X4838095Y-15980095D01*
X4828571Y-15999143D01*
X4819048Y-16008667D01*
X4800000Y-16018190D01*
X4761905Y-16018190D01*
X4742857Y-16027714D01*
X4733333Y-16037238D01*
X4723810Y-16056286D01*
X4723810Y-16094381D01*
X4733333Y-16113428D01*
X4742857Y-16122952D01*
X4761905Y-16132476D01*
X4800000Y-16132476D01*
X4819048Y-16122952D01*
X4828571Y-16113428D01*
X4838095Y-16094381D01*
X4838095Y-16056286D01*
X4828571Y-16037238D01*
X4819048Y-16027714D01*
X4800000Y-16018190D01*
X4961905Y-15932476D02*
X4980952Y-15932476D01*
X5000000Y-15942000D01*
X5009524Y-15951524D01*
X5019048Y-15970571D01*
X5028571Y-16008667D01*
X5028571Y-16056286D01*
X5019048Y-16094381D01*
X5009524Y-16113428D01*
X5000000Y-16122952D01*
X4980952Y-16132476D01*
X4961905Y-16132476D01*
X4942857Y-16122952D01*
X4933333Y-16113428D01*
X4923810Y-16094381D01*
X4914286Y-16056286D01*
X4914286Y-16008667D01*
X4923810Y-15970571D01*
X4933333Y-15951524D01*
X4942857Y-15942000D01*
X4961905Y-15932476D01*
X5152381Y-15932476D02*
X5171429Y-15932476D01*
X5190476Y-15942000D01*
X5200000Y-15951524D01*
X5209524Y-15970571D01*
X5219048Y-16008667D01*
X5219048Y-16056286D01*
X5209524Y-16094381D01*
X5200000Y-16113428D01*
X5190476Y-16122952D01*
X5171429Y-16132476D01*
X5152381Y-16132476D01*
X5133333Y-16122952D01*
X5123810Y-16113428D01*
X5114286Y-16094381D01*
X5104762Y-16056286D01*
X5104762Y-16008667D01*
X5114286Y-15970571D01*
X5123810Y-15951524D01*
X5133333Y-15942000D01*
X5152381Y-15932476D01*
X5304762Y-16132476D02*
X5304762Y-15999143D01*
X5304762Y-16018190D02*
X5314286Y-16008667D01*
X5333333Y-15999143D01*
X5361905Y-15999143D01*
X5380952Y-16008667D01*
X5390476Y-16027714D01*
X5390476Y-16132476D01*
X5390476Y-16027714D02*
X5400000Y-16008667D01*
X5419048Y-15999143D01*
X5447619Y-15999143D01*
X5466667Y-16008667D01*
X5476190Y-16027714D01*
X5476190Y-16132476D01*
X5571429Y-16132476D02*
X5571429Y-15999143D01*
X5571429Y-16018190D02*
X5580952Y-16008667D01*
X5600000Y-15999143D01*
X5628571Y-15999143D01*
X5647619Y-16008667D01*
X5657143Y-16027714D01*
X5657143Y-16132476D01*
X5657143Y-16027714D02*
X5666667Y-16008667D01*
X5685714Y-15999143D01*
X5714286Y-15999143D01*
X5733333Y-16008667D01*
X5742857Y-16027714D01*
X5742857Y-16132476D01*
X6133333Y-15922952D02*
X5961905Y-16180095D01*
X6390476Y-15932476D02*
X6409524Y-15932476D01*
X6428571Y-15942000D01*
X6438095Y-15951524D01*
X6447619Y-15970571D01*
X6457143Y-16008667D01*
X6457143Y-16056286D01*
X6447619Y-16094381D01*
X6438095Y-16113428D01*
X6428571Y-16122952D01*
X6409524Y-16132476D01*
X6390476Y-16132476D01*
X6371428Y-16122952D01*
X6361905Y-16113428D01*
X6352381Y-16094381D01*
X6342857Y-16056286D01*
X6342857Y-16008667D01*
X6352381Y-15970571D01*
X6361905Y-15951524D01*
X6371428Y-15942000D01*
X6390476Y-15932476D01*
X6542857Y-16113428D02*
X6552381Y-16122952D01*
X6542857Y-16132476D01*
X6533333Y-16122952D01*
X6542857Y-16113428D01*
X6542857Y-16132476D01*
X6676190Y-15932476D02*
X6695238Y-15932476D01*
X6714286Y-15942000D01*
X6723809Y-15951524D01*
X6733333Y-15970571D01*
X6742857Y-16008667D01*
X6742857Y-16056286D01*
X6733333Y-16094381D01*
X6723809Y-16113428D01*
X6714286Y-16122952D01*
X6695238Y-16132476D01*
X6676190Y-16132476D01*
X6657143Y-16122952D01*
X6647619Y-16113428D01*
X6638095Y-16094381D01*
X6628571Y-16056286D01*
X6628571Y-16008667D01*
X6638095Y-15970571D01*
X6647619Y-15951524D01*
X6657143Y-15942000D01*
X6676190Y-15932476D01*
X6809524Y-15932476D02*
X6933333Y-15932476D01*
X6866667Y-16008667D01*
X6895238Y-16008667D01*
X6914286Y-16018190D01*
X6923809Y-16027714D01*
X6933333Y-16046762D01*
X6933333Y-16094381D01*
X6923809Y-16113428D01*
X6914286Y-16122952D01*
X6895238Y-16132476D01*
X6838095Y-16132476D01*
X6819048Y-16122952D01*
X6809524Y-16113428D01*
X7123809Y-16132476D02*
X7009524Y-16132476D01*
X7066667Y-16132476D02*
X7066667Y-15932476D01*
X7047619Y-15961048D01*
X7028571Y-15980095D01*
X7009524Y-15989619D01*
X7304762Y-15932476D02*
X7209524Y-15932476D01*
X7200000Y-16027714D01*
X7209524Y-16018190D01*
X7228571Y-16008667D01*
X7276190Y-16008667D01*
X7295238Y-16018190D01*
X7304762Y-16027714D01*
X7314286Y-16046762D01*
X7314286Y-16094381D01*
X7304762Y-16113428D01*
X7295238Y-16122952D01*
X7276190Y-16132476D01*
X7228571Y-16132476D01*
X7209524Y-16122952D01*
X7200000Y-16113428D01*
X7390476Y-15932476D02*
X7390476Y-15970571D01*
X7466667Y-15932476D02*
X7466667Y-15970571D01*
X7761905Y-16208667D02*
X7752381Y-16199143D01*
X7733333Y-16170571D01*
X7723809Y-16151524D01*
X7714286Y-16122952D01*
X7704762Y-16075333D01*
X7704762Y-16037238D01*
X7714286Y-15989619D01*
X7723809Y-15961048D01*
X7733333Y-15942000D01*
X7752381Y-15913428D01*
X7761905Y-15903905D01*
X7828571Y-15951524D02*
X7838095Y-15942000D01*
X7857143Y-15932476D01*
X7904762Y-15932476D01*
X7923809Y-15942000D01*
X7933333Y-15951524D01*
X7942857Y-15970571D01*
X7942857Y-15989619D01*
X7933333Y-16018190D01*
X7819048Y-16132476D01*
X7942857Y-16132476D01*
X8114286Y-15999143D02*
X8114286Y-16132476D01*
X8066667Y-15922952D02*
X8019048Y-16065809D01*
X8142857Y-16065809D01*
X8371428Y-16132476D02*
X8371428Y-15932476D01*
X8457143Y-16132476D02*
X8457143Y-16027714D01*
X8447619Y-16008667D01*
X8428571Y-15999143D01*
X8400000Y-15999143D01*
X8380952Y-16008667D01*
X8371428Y-16018190D01*
X8580952Y-16132476D02*
X8561905Y-16122952D01*
X8552381Y-16113428D01*
X8542857Y-16094381D01*
X8542857Y-16037238D01*
X8552381Y-16018190D01*
X8561905Y-16008667D01*
X8580952Y-15999143D01*
X8609524Y-15999143D01*
X8628571Y-16008667D01*
X8638095Y-16018190D01*
X8647619Y-16037238D01*
X8647619Y-16094381D01*
X8638095Y-16113428D01*
X8628571Y-16122952D01*
X8609524Y-16132476D01*
X8580952Y-16132476D01*
X8761905Y-16132476D02*
X8742857Y-16122952D01*
X8733333Y-16103905D01*
X8733333Y-15932476D01*
X8914286Y-16122952D02*
X8895238Y-16132476D01*
X8857143Y-16132476D01*
X8838095Y-16122952D01*
X8828571Y-16103905D01*
X8828571Y-16027714D01*
X8838095Y-16008667D01*
X8857143Y-15999143D01*
X8895238Y-15999143D01*
X8914286Y-16008667D01*
X8923810Y-16027714D01*
X8923810Y-16046762D01*
X8828571Y-16065809D01*
X9000000Y-16122952D02*
X9019048Y-16132476D01*
X9057143Y-16132476D01*
X9076190Y-16122952D01*
X9085714Y-16103905D01*
X9085714Y-16094381D01*
X9076190Y-16075333D01*
X9057143Y-16065809D01*
X9028571Y-16065809D01*
X9009524Y-16056286D01*
X9000000Y-16037238D01*
X9000000Y-16027714D01*
X9009524Y-16008667D01*
X9028571Y-15999143D01*
X9057143Y-15999143D01*
X9076190Y-16008667D01*
X9152381Y-16208667D02*
X9161905Y-16199143D01*
X9180952Y-16170571D01*
X9190476Y-16151524D01*
X9200000Y-16122952D01*
X9209524Y-16075333D01*
X9209524Y-16037238D01*
X9200000Y-15989619D01*
X9190476Y-15961048D01*
X9180952Y-15942000D01*
X9161905Y-15913428D01*
X9152381Y-15903905D01*
D16*
X4140000Y-16356000D02*
X4190000Y-16306000D01*
X4140000Y-16256000D01*
X4090000Y-16306000D01*
X4140000Y-16356000D01*
D11*
X4552381Y-16396476D02*
X4438095Y-16396476D01*
X4495238Y-16396476D02*
X4495238Y-16196476D01*
X4476190Y-16225048D01*
X4457143Y-16244095D01*
X4438095Y-16253619D01*
X4638095Y-16377428D02*
X4647619Y-16386952D01*
X4638095Y-16396476D01*
X4628571Y-16386952D01*
X4638095Y-16377428D01*
X4638095Y-16396476D01*
X4771429Y-16196476D02*
X4790476Y-16196476D01*
X4809524Y-16206000D01*
X4819048Y-16215524D01*
X4828571Y-16234571D01*
X4838095Y-16272667D01*
X4838095Y-16320286D01*
X4828571Y-16358381D01*
X4819048Y-16377428D01*
X4809524Y-16386952D01*
X4790476Y-16396476D01*
X4771429Y-16396476D01*
X4752381Y-16386952D01*
X4742857Y-16377428D01*
X4733333Y-16358381D01*
X4723810Y-16320286D01*
X4723810Y-16272667D01*
X4733333Y-16234571D01*
X4742857Y-16215524D01*
X4752381Y-16206000D01*
X4771429Y-16196476D01*
X4961905Y-16196476D02*
X4980952Y-16196476D01*
X5000000Y-16206000D01*
X5009524Y-16215524D01*
X5019048Y-16234571D01*
X5028571Y-16272667D01*
X5028571Y-16320286D01*
X5019048Y-16358381D01*
X5009524Y-16377428D01*
X5000000Y-16386952D01*
X4980952Y-16396476D01*
X4961905Y-16396476D01*
X4942857Y-16386952D01*
X4933333Y-16377428D01*
X4923810Y-16358381D01*
X4914286Y-16320286D01*
X4914286Y-16272667D01*
X4923810Y-16234571D01*
X4933333Y-16215524D01*
X4942857Y-16206000D01*
X4961905Y-16196476D01*
X5152381Y-16196476D02*
X5171429Y-16196476D01*
X5190476Y-16206000D01*
X5200000Y-16215524D01*
X5209524Y-16234571D01*
X5219048Y-16272667D01*
X5219048Y-16320286D01*
X5209524Y-16358381D01*
X5200000Y-16377428D01*
X5190476Y-16386952D01*
X5171429Y-16396476D01*
X5152381Y-16396476D01*
X5133333Y-16386952D01*
X5123810Y-16377428D01*
X5114286Y-16358381D01*
X5104762Y-16320286D01*
X5104762Y-16272667D01*
X5114286Y-16234571D01*
X5123810Y-16215524D01*
X5133333Y-16206000D01*
X5152381Y-16196476D01*
X5304762Y-16396476D02*
X5304762Y-16263143D01*
X5304762Y-16282190D02*
X5314286Y-16272667D01*
X5333333Y-16263143D01*
X5361905Y-16263143D01*
X5380952Y-16272667D01*
X5390476Y-16291714D01*
X5390476Y-16396476D01*
X5390476Y-16291714D02*
X5400000Y-16272667D01*
X5419048Y-16263143D01*
X5447619Y-16263143D01*
X5466667Y-16272667D01*
X5476190Y-16291714D01*
X5476190Y-16396476D01*
X5571429Y-16396476D02*
X5571429Y-16263143D01*
X5571429Y-16282190D02*
X5580952Y-16272667D01*
X5600000Y-16263143D01*
X5628571Y-16263143D01*
X5647619Y-16272667D01*
X5657143Y-16291714D01*
X5657143Y-16396476D01*
X5657143Y-16291714D02*
X5666667Y-16272667D01*
X5685714Y-16263143D01*
X5714286Y-16263143D01*
X5733333Y-16272667D01*
X5742857Y-16291714D01*
X5742857Y-16396476D01*
X6133333Y-16186952D02*
X5961905Y-16444095D01*
X6390476Y-16196476D02*
X6409524Y-16196476D01*
X6428571Y-16206000D01*
X6438095Y-16215524D01*
X6447619Y-16234571D01*
X6457143Y-16272667D01*
X6457143Y-16320286D01*
X6447619Y-16358381D01*
X6438095Y-16377428D01*
X6428571Y-16386952D01*
X6409524Y-16396476D01*
X6390476Y-16396476D01*
X6371428Y-16386952D01*
X6361905Y-16377428D01*
X6352381Y-16358381D01*
X6342857Y-16320286D01*
X6342857Y-16272667D01*
X6352381Y-16234571D01*
X6361905Y-16215524D01*
X6371428Y-16206000D01*
X6390476Y-16196476D01*
X6542857Y-16377428D02*
X6552381Y-16386952D01*
X6542857Y-16396476D01*
X6533333Y-16386952D01*
X6542857Y-16377428D01*
X6542857Y-16396476D01*
X6676190Y-16196476D02*
X6695238Y-16196476D01*
X6714286Y-16206000D01*
X6723809Y-16215524D01*
X6733333Y-16234571D01*
X6742857Y-16272667D01*
X6742857Y-16320286D01*
X6733333Y-16358381D01*
X6723809Y-16377428D01*
X6714286Y-16386952D01*
X6695238Y-16396476D01*
X6676190Y-16396476D01*
X6657143Y-16386952D01*
X6647619Y-16377428D01*
X6638095Y-16358381D01*
X6628571Y-16320286D01*
X6628571Y-16272667D01*
X6638095Y-16234571D01*
X6647619Y-16215524D01*
X6657143Y-16206000D01*
X6676190Y-16196476D01*
X6809524Y-16196476D02*
X6933333Y-16196476D01*
X6866667Y-16272667D01*
X6895238Y-16272667D01*
X6914286Y-16282190D01*
X6923809Y-16291714D01*
X6933333Y-16310762D01*
X6933333Y-16358381D01*
X6923809Y-16377428D01*
X6914286Y-16386952D01*
X6895238Y-16396476D01*
X6838095Y-16396476D01*
X6819048Y-16386952D01*
X6809524Y-16377428D01*
X7028571Y-16396476D02*
X7066667Y-16396476D01*
X7085714Y-16386952D01*
X7095238Y-16377428D01*
X7114286Y-16348857D01*
X7123809Y-16310762D01*
X7123809Y-16234571D01*
X7114286Y-16215524D01*
X7104762Y-16206000D01*
X7085714Y-16196476D01*
X7047619Y-16196476D01*
X7028571Y-16206000D01*
X7019048Y-16215524D01*
X7009524Y-16234571D01*
X7009524Y-16282190D01*
X7019048Y-16301238D01*
X7028571Y-16310762D01*
X7047619Y-16320286D01*
X7085714Y-16320286D01*
X7104762Y-16310762D01*
X7114286Y-16301238D01*
X7123809Y-16282190D01*
X7295238Y-16263143D02*
X7295238Y-16396476D01*
X7247619Y-16186952D02*
X7200000Y-16329809D01*
X7323809Y-16329809D01*
X7390476Y-16196476D02*
X7390476Y-16234571D01*
X7466667Y-16196476D02*
X7466667Y-16234571D01*
X7761905Y-16472667D02*
X7752381Y-16463143D01*
X7733333Y-16434571D01*
X7723809Y-16415524D01*
X7714286Y-16386952D01*
X7704762Y-16339333D01*
X7704762Y-16301238D01*
X7714286Y-16253619D01*
X7723809Y-16225048D01*
X7733333Y-16206000D01*
X7752381Y-16177428D01*
X7761905Y-16167905D01*
X7819048Y-16196476D02*
X7942857Y-16196476D01*
X7876190Y-16272667D01*
X7904762Y-16272667D01*
X7923809Y-16282190D01*
X7933333Y-16291714D01*
X7942857Y-16310762D01*
X7942857Y-16358381D01*
X7933333Y-16377428D01*
X7923809Y-16386952D01*
X7904762Y-16396476D01*
X7847619Y-16396476D01*
X7828571Y-16386952D01*
X7819048Y-16377428D01*
X8114286Y-16263143D02*
X8114286Y-16396476D01*
X8066667Y-16186952D02*
X8019048Y-16329809D01*
X8142857Y-16329809D01*
X8371428Y-16396476D02*
X8371428Y-16196476D01*
X8457143Y-16396476D02*
X8457143Y-16291714D01*
X8447619Y-16272667D01*
X8428571Y-16263143D01*
X8400000Y-16263143D01*
X8380952Y-16272667D01*
X8371428Y-16282190D01*
X8580952Y-16396476D02*
X8561905Y-16386952D01*
X8552381Y-16377428D01*
X8542857Y-16358381D01*
X8542857Y-16301238D01*
X8552381Y-16282190D01*
X8561905Y-16272667D01*
X8580952Y-16263143D01*
X8609524Y-16263143D01*
X8628571Y-16272667D01*
X8638095Y-16282190D01*
X8647619Y-16301238D01*
X8647619Y-16358381D01*
X8638095Y-16377428D01*
X8628571Y-16386952D01*
X8609524Y-16396476D01*
X8580952Y-16396476D01*
X8761905Y-16396476D02*
X8742857Y-16386952D01*
X8733333Y-16367905D01*
X8733333Y-16196476D01*
X8914286Y-16386952D02*
X8895238Y-16396476D01*
X8857143Y-16396476D01*
X8838095Y-16386952D01*
X8828571Y-16367905D01*
X8828571Y-16291714D01*
X8838095Y-16272667D01*
X8857143Y-16263143D01*
X8895238Y-16263143D01*
X8914286Y-16272667D01*
X8923810Y-16291714D01*
X8923810Y-16310762D01*
X8828571Y-16329809D01*
X9000000Y-16386952D02*
X9019048Y-16396476D01*
X9057143Y-16396476D01*
X9076190Y-16386952D01*
X9085714Y-16367905D01*
X9085714Y-16358381D01*
X9076190Y-16339333D01*
X9057143Y-16329809D01*
X9028571Y-16329809D01*
X9009524Y-16320286D01*
X9000000Y-16301238D01*
X9000000Y-16291714D01*
X9009524Y-16272667D01*
X9028571Y-16263143D01*
X9057143Y-16263143D01*
X9076190Y-16272667D01*
X9152381Y-16472667D02*
X9161905Y-16463143D01*
X9180952Y-16434571D01*
X9190476Y-16415524D01*
X9200000Y-16386952D01*
X9209524Y-16339333D01*
X9209524Y-16301238D01*
X9200000Y-16253619D01*
X9190476Y-16225048D01*
X9180952Y-16206000D01*
X9161905Y-16177428D01*
X9152381Y-16167905D01*
D17*
X4080000Y-16515000D02*
X4190000Y-16625000D01*
X4190000Y-16515000D02*
X4080000Y-16625000D01*
X4190000Y-16570000D02*
G75*
G03*
X4190000Y-16570000I-55000J0D01*
G01*
D11*
X4552381Y-16660476D02*
X4438095Y-16660476D01*
X4495238Y-16660476D02*
X4495238Y-16460476D01*
X4476190Y-16489048D01*
X4457143Y-16508095D01*
X4438095Y-16517619D01*
X4638095Y-16641428D02*
X4647619Y-16650952D01*
X4638095Y-16660476D01*
X4628571Y-16650952D01*
X4638095Y-16641428D01*
X4638095Y-16660476D01*
X4838095Y-16660476D02*
X4723810Y-16660476D01*
X4780952Y-16660476D02*
X4780952Y-16460476D01*
X4761905Y-16489048D01*
X4742857Y-16508095D01*
X4723810Y-16517619D01*
X4961905Y-16460476D02*
X4980952Y-16460476D01*
X5000000Y-16470000D01*
X5009524Y-16479524D01*
X5019048Y-16498571D01*
X5028571Y-16536667D01*
X5028571Y-16584286D01*
X5019048Y-16622381D01*
X5009524Y-16641428D01*
X5000000Y-16650952D01*
X4980952Y-16660476D01*
X4961905Y-16660476D01*
X4942857Y-16650952D01*
X4933333Y-16641428D01*
X4923810Y-16622381D01*
X4914286Y-16584286D01*
X4914286Y-16536667D01*
X4923810Y-16498571D01*
X4933333Y-16479524D01*
X4942857Y-16470000D01*
X4961905Y-16460476D01*
X5152381Y-16460476D02*
X5171429Y-16460476D01*
X5190476Y-16470000D01*
X5200000Y-16479524D01*
X5209524Y-16498571D01*
X5219048Y-16536667D01*
X5219048Y-16584286D01*
X5209524Y-16622381D01*
X5200000Y-16641428D01*
X5190476Y-16650952D01*
X5171429Y-16660476D01*
X5152381Y-16660476D01*
X5133333Y-16650952D01*
X5123810Y-16641428D01*
X5114286Y-16622381D01*
X5104762Y-16584286D01*
X5104762Y-16536667D01*
X5114286Y-16498571D01*
X5123810Y-16479524D01*
X5133333Y-16470000D01*
X5152381Y-16460476D01*
X5304762Y-16660476D02*
X5304762Y-16527143D01*
X5304762Y-16546190D02*
X5314286Y-16536667D01*
X5333333Y-16527143D01*
X5361905Y-16527143D01*
X5380952Y-16536667D01*
X5390476Y-16555714D01*
X5390476Y-16660476D01*
X5390476Y-16555714D02*
X5400000Y-16536667D01*
X5419048Y-16527143D01*
X5447619Y-16527143D01*
X5466667Y-16536667D01*
X5476190Y-16555714D01*
X5476190Y-16660476D01*
X5571429Y-16660476D02*
X5571429Y-16527143D01*
X5571429Y-16546190D02*
X5580952Y-16536667D01*
X5600000Y-16527143D01*
X5628571Y-16527143D01*
X5647619Y-16536667D01*
X5657143Y-16555714D01*
X5657143Y-16660476D01*
X5657143Y-16555714D02*
X5666667Y-16536667D01*
X5685714Y-16527143D01*
X5714286Y-16527143D01*
X5733333Y-16536667D01*
X5742857Y-16555714D01*
X5742857Y-16660476D01*
X6133333Y-16450952D02*
X5961905Y-16708095D01*
X6390476Y-16460476D02*
X6409524Y-16460476D01*
X6428571Y-16470000D01*
X6438095Y-16479524D01*
X6447619Y-16498571D01*
X6457143Y-16536667D01*
X6457143Y-16584286D01*
X6447619Y-16622381D01*
X6438095Y-16641428D01*
X6428571Y-16650952D01*
X6409524Y-16660476D01*
X6390476Y-16660476D01*
X6371428Y-16650952D01*
X6361905Y-16641428D01*
X6352381Y-16622381D01*
X6342857Y-16584286D01*
X6342857Y-16536667D01*
X6352381Y-16498571D01*
X6361905Y-16479524D01*
X6371428Y-16470000D01*
X6390476Y-16460476D01*
X6542857Y-16641428D02*
X6552381Y-16650952D01*
X6542857Y-16660476D01*
X6533333Y-16650952D01*
X6542857Y-16641428D01*
X6542857Y-16660476D01*
X6676190Y-16460476D02*
X6695238Y-16460476D01*
X6714286Y-16470000D01*
X6723809Y-16479524D01*
X6733333Y-16498571D01*
X6742857Y-16536667D01*
X6742857Y-16584286D01*
X6733333Y-16622381D01*
X6723809Y-16641428D01*
X6714286Y-16650952D01*
X6695238Y-16660476D01*
X6676190Y-16660476D01*
X6657143Y-16650952D01*
X6647619Y-16641428D01*
X6638095Y-16622381D01*
X6628571Y-16584286D01*
X6628571Y-16536667D01*
X6638095Y-16498571D01*
X6647619Y-16479524D01*
X6657143Y-16470000D01*
X6676190Y-16460476D01*
X6914286Y-16527143D02*
X6914286Y-16660476D01*
X6866667Y-16450952D02*
X6819048Y-16593809D01*
X6942857Y-16593809D01*
X7000000Y-16460476D02*
X7123809Y-16460476D01*
X7057143Y-16536667D01*
X7085714Y-16536667D01*
X7104762Y-16546190D01*
X7114286Y-16555714D01*
X7123809Y-16574762D01*
X7123809Y-16622381D01*
X7114286Y-16641428D01*
X7104762Y-16650952D01*
X7085714Y-16660476D01*
X7028571Y-16660476D01*
X7009524Y-16650952D01*
X7000000Y-16641428D01*
X7190476Y-16460476D02*
X7314286Y-16460476D01*
X7247619Y-16536667D01*
X7276190Y-16536667D01*
X7295238Y-16546190D01*
X7304762Y-16555714D01*
X7314286Y-16574762D01*
X7314286Y-16622381D01*
X7304762Y-16641428D01*
X7295238Y-16650952D01*
X7276190Y-16660476D01*
X7219048Y-16660476D01*
X7200000Y-16650952D01*
X7190476Y-16641428D01*
X7390476Y-16460476D02*
X7390476Y-16498571D01*
X7466667Y-16460476D02*
X7466667Y-16498571D01*
X7761905Y-16736667D02*
X7752381Y-16727143D01*
X7733333Y-16698571D01*
X7723809Y-16679524D01*
X7714286Y-16650952D01*
X7704762Y-16603333D01*
X7704762Y-16565238D01*
X7714286Y-16517619D01*
X7723809Y-16489048D01*
X7733333Y-16470000D01*
X7752381Y-16441428D01*
X7761905Y-16431905D01*
X7942857Y-16660476D02*
X7828571Y-16660476D01*
X7885714Y-16660476D02*
X7885714Y-16460476D01*
X7866667Y-16489048D01*
X7847619Y-16508095D01*
X7828571Y-16517619D01*
X8066667Y-16460476D02*
X8085714Y-16460476D01*
X8104762Y-16470000D01*
X8114286Y-16479524D01*
X8123809Y-16498571D01*
X8133333Y-16536667D01*
X8133333Y-16584286D01*
X8123809Y-16622381D01*
X8114286Y-16641428D01*
X8104762Y-16650952D01*
X8085714Y-16660476D01*
X8066667Y-16660476D01*
X8047619Y-16650952D01*
X8038095Y-16641428D01*
X8028571Y-16622381D01*
X8019048Y-16584286D01*
X8019048Y-16536667D01*
X8028571Y-16498571D01*
X8038095Y-16479524D01*
X8047619Y-16470000D01*
X8066667Y-16460476D01*
X8371428Y-16660476D02*
X8371428Y-16460476D01*
X8457143Y-16660476D02*
X8457143Y-16555714D01*
X8447619Y-16536667D01*
X8428571Y-16527143D01*
X8400000Y-16527143D01*
X8380952Y-16536667D01*
X8371428Y-16546190D01*
X8580952Y-16660476D02*
X8561905Y-16650952D01*
X8552381Y-16641428D01*
X8542857Y-16622381D01*
X8542857Y-16565238D01*
X8552381Y-16546190D01*
X8561905Y-16536667D01*
X8580952Y-16527143D01*
X8609524Y-16527143D01*
X8628571Y-16536667D01*
X8638095Y-16546190D01*
X8647619Y-16565238D01*
X8647619Y-16622381D01*
X8638095Y-16641428D01*
X8628571Y-16650952D01*
X8609524Y-16660476D01*
X8580952Y-16660476D01*
X8761905Y-16660476D02*
X8742857Y-16650952D01*
X8733333Y-16631905D01*
X8733333Y-16460476D01*
X8914286Y-16650952D02*
X8895238Y-16660476D01*
X8857143Y-16660476D01*
X8838095Y-16650952D01*
X8828571Y-16631905D01*
X8828571Y-16555714D01*
X8838095Y-16536667D01*
X8857143Y-16527143D01*
X8895238Y-16527143D01*
X8914286Y-16536667D01*
X8923810Y-16555714D01*
X8923810Y-16574762D01*
X8828571Y-16593809D01*
X9000000Y-16650952D02*
X9019048Y-16660476D01*
X9057143Y-16660476D01*
X9076190Y-16650952D01*
X9085714Y-16631905D01*
X9085714Y-16622381D01*
X9076190Y-16603333D01*
X9057143Y-16593809D01*
X9028571Y-16593809D01*
X9009524Y-16584286D01*
X9000000Y-16565238D01*
X9000000Y-16555714D01*
X9009524Y-16536667D01*
X9028571Y-16527143D01*
X9057143Y-16527143D01*
X9076190Y-16536667D01*
X9152381Y-16736667D02*
X9161905Y-16727143D01*
X9180952Y-16698571D01*
X9190476Y-16679524D01*
X9200000Y-16650952D01*
X9209524Y-16603333D01*
X9209524Y-16565238D01*
X9200000Y-16517619D01*
X9190476Y-16489048D01*
X9180952Y-16470000D01*
X9161905Y-16441428D01*
X9152381Y-16431905D01*
D18*
X4061000Y-16769500D02*
X4190000Y-16898500D01*
X4190000Y-16769500D02*
X4061000Y-16898500D01*
X4125500Y-16769500D02*
X4125500Y-16898500D01*
X4061000Y-16834000D02*
X4190000Y-16834000D01*
D11*
X4552381Y-16924476D02*
X4438095Y-16924476D01*
X4495238Y-16924476D02*
X4495238Y-16724476D01*
X4476190Y-16753048D01*
X4457143Y-16772095D01*
X4438095Y-16781619D01*
X4638095Y-16905429D02*
X4647619Y-16914952D01*
X4638095Y-16924476D01*
X4628571Y-16914952D01*
X4638095Y-16905429D01*
X4638095Y-16924476D01*
X4723810Y-16743524D02*
X4733333Y-16734000D01*
X4752381Y-16724476D01*
X4800000Y-16724476D01*
X4819048Y-16734000D01*
X4828571Y-16743524D01*
X4838095Y-16762571D01*
X4838095Y-16781619D01*
X4828571Y-16810190D01*
X4714286Y-16924476D01*
X4838095Y-16924476D01*
X4933333Y-16924476D02*
X4971429Y-16924476D01*
X4990476Y-16914952D01*
X5000000Y-16905429D01*
X5019048Y-16876857D01*
X5028571Y-16838762D01*
X5028571Y-16762571D01*
X5019048Y-16743524D01*
X5009524Y-16734000D01*
X4990476Y-16724476D01*
X4952381Y-16724476D01*
X4933333Y-16734000D01*
X4923810Y-16743524D01*
X4914286Y-16762571D01*
X4914286Y-16810190D01*
X4923810Y-16829238D01*
X4933333Y-16838762D01*
X4952381Y-16848286D01*
X4990476Y-16848286D01*
X5009524Y-16838762D01*
X5019048Y-16829238D01*
X5028571Y-16810190D01*
X5152381Y-16724476D02*
X5171429Y-16724476D01*
X5190476Y-16734000D01*
X5200000Y-16743524D01*
X5209524Y-16762571D01*
X5219048Y-16800667D01*
X5219048Y-16848286D01*
X5209524Y-16886381D01*
X5200000Y-16905429D01*
X5190476Y-16914952D01*
X5171429Y-16924476D01*
X5152381Y-16924476D01*
X5133333Y-16914952D01*
X5123810Y-16905429D01*
X5114286Y-16886381D01*
X5104762Y-16848286D01*
X5104762Y-16800667D01*
X5114286Y-16762571D01*
X5123810Y-16743524D01*
X5133333Y-16734000D01*
X5152381Y-16724476D01*
X5304762Y-16924476D02*
X5304762Y-16791143D01*
X5304762Y-16810190D02*
X5314286Y-16800667D01*
X5333333Y-16791143D01*
X5361905Y-16791143D01*
X5380952Y-16800667D01*
X5390476Y-16819714D01*
X5390476Y-16924476D01*
X5390476Y-16819714D02*
X5400000Y-16800667D01*
X5419048Y-16791143D01*
X5447619Y-16791143D01*
X5466667Y-16800667D01*
X5476190Y-16819714D01*
X5476190Y-16924476D01*
X5571429Y-16924476D02*
X5571429Y-16791143D01*
X5571429Y-16810190D02*
X5580952Y-16800667D01*
X5600000Y-16791143D01*
X5628571Y-16791143D01*
X5647619Y-16800667D01*
X5657143Y-16819714D01*
X5657143Y-16924476D01*
X5657143Y-16819714D02*
X5666667Y-16800667D01*
X5685714Y-16791143D01*
X5714286Y-16791143D01*
X5733333Y-16800667D01*
X5742857Y-16819714D01*
X5742857Y-16924476D01*
X6133333Y-16714952D02*
X5961905Y-16972095D01*
X6390476Y-16724476D02*
X6409524Y-16724476D01*
X6428571Y-16734000D01*
X6438095Y-16743524D01*
X6447619Y-16762571D01*
X6457143Y-16800667D01*
X6457143Y-16848286D01*
X6447619Y-16886381D01*
X6438095Y-16905429D01*
X6428571Y-16914952D01*
X6409524Y-16924476D01*
X6390476Y-16924476D01*
X6371428Y-16914952D01*
X6361905Y-16905429D01*
X6352381Y-16886381D01*
X6342857Y-16848286D01*
X6342857Y-16800667D01*
X6352381Y-16762571D01*
X6361905Y-16743524D01*
X6371428Y-16734000D01*
X6390476Y-16724476D01*
X6542857Y-16905429D02*
X6552381Y-16914952D01*
X6542857Y-16924476D01*
X6533333Y-16914952D01*
X6542857Y-16905429D01*
X6542857Y-16924476D01*
X6676190Y-16724476D02*
X6695238Y-16724476D01*
X6714286Y-16734000D01*
X6723809Y-16743524D01*
X6733333Y-16762571D01*
X6742857Y-16800667D01*
X6742857Y-16848286D01*
X6733333Y-16886381D01*
X6723809Y-16905429D01*
X6714286Y-16914952D01*
X6695238Y-16924476D01*
X6676190Y-16924476D01*
X6657143Y-16914952D01*
X6647619Y-16905429D01*
X6638095Y-16886381D01*
X6628571Y-16848286D01*
X6628571Y-16800667D01*
X6638095Y-16762571D01*
X6647619Y-16743524D01*
X6657143Y-16734000D01*
X6676190Y-16724476D01*
X6923809Y-16724476D02*
X6828571Y-16724476D01*
X6819048Y-16819714D01*
X6828571Y-16810190D01*
X6847619Y-16800667D01*
X6895238Y-16800667D01*
X6914286Y-16810190D01*
X6923809Y-16819714D01*
X6933333Y-16838762D01*
X6933333Y-16886381D01*
X6923809Y-16905429D01*
X6914286Y-16914952D01*
X6895238Y-16924476D01*
X6847619Y-16924476D01*
X6828571Y-16914952D01*
X6819048Y-16905429D01*
X7057143Y-16724476D02*
X7076190Y-16724476D01*
X7095238Y-16734000D01*
X7104762Y-16743524D01*
X7114286Y-16762571D01*
X7123809Y-16800667D01*
X7123809Y-16848286D01*
X7114286Y-16886381D01*
X7104762Y-16905429D01*
X7095238Y-16914952D01*
X7076190Y-16924476D01*
X7057143Y-16924476D01*
X7038095Y-16914952D01*
X7028571Y-16905429D01*
X7019048Y-16886381D01*
X7009524Y-16848286D01*
X7009524Y-16800667D01*
X7019048Y-16762571D01*
X7028571Y-16743524D01*
X7038095Y-16734000D01*
X7057143Y-16724476D01*
X7238095Y-16810190D02*
X7219048Y-16800667D01*
X7209524Y-16791143D01*
X7200000Y-16772095D01*
X7200000Y-16762571D01*
X7209524Y-16743524D01*
X7219048Y-16734000D01*
X7238095Y-16724476D01*
X7276190Y-16724476D01*
X7295238Y-16734000D01*
X7304762Y-16743524D01*
X7314286Y-16762571D01*
X7314286Y-16772095D01*
X7304762Y-16791143D01*
X7295238Y-16800667D01*
X7276190Y-16810190D01*
X7238095Y-16810190D01*
X7219048Y-16819714D01*
X7209524Y-16829238D01*
X7200000Y-16848286D01*
X7200000Y-16886381D01*
X7209524Y-16905429D01*
X7219048Y-16914952D01*
X7238095Y-16924476D01*
X7276190Y-16924476D01*
X7295238Y-16914952D01*
X7304762Y-16905429D01*
X7314286Y-16886381D01*
X7314286Y-16848286D01*
X7304762Y-16829238D01*
X7295238Y-16819714D01*
X7276190Y-16810190D01*
X7390476Y-16724476D02*
X7390476Y-16762571D01*
X7466667Y-16724476D02*
X7466667Y-16762571D01*
X7761905Y-17000667D02*
X7752381Y-16991143D01*
X7733333Y-16962571D01*
X7723809Y-16943524D01*
X7714286Y-16914952D01*
X7704762Y-16867333D01*
X7704762Y-16829238D01*
X7714286Y-16781619D01*
X7723809Y-16753048D01*
X7733333Y-16734000D01*
X7752381Y-16705428D01*
X7761905Y-16695905D01*
X7933333Y-16724476D02*
X7838095Y-16724476D01*
X7828571Y-16819714D01*
X7838095Y-16810190D01*
X7857143Y-16800667D01*
X7904762Y-16800667D01*
X7923809Y-16810190D01*
X7933333Y-16819714D01*
X7942857Y-16838762D01*
X7942857Y-16886381D01*
X7933333Y-16905429D01*
X7923809Y-16914952D01*
X7904762Y-16924476D01*
X7857143Y-16924476D01*
X7838095Y-16914952D01*
X7828571Y-16905429D01*
X8180952Y-16924476D02*
X8180952Y-16724476D01*
X8266667Y-16924476D02*
X8266667Y-16819714D01*
X8257143Y-16800667D01*
X8238095Y-16791143D01*
X8209524Y-16791143D01*
X8190476Y-16800667D01*
X8180952Y-16810190D01*
X8390476Y-16924476D02*
X8371428Y-16914952D01*
X8361905Y-16905429D01*
X8352381Y-16886381D01*
X8352381Y-16829238D01*
X8361905Y-16810190D01*
X8371428Y-16800667D01*
X8390476Y-16791143D01*
X8419048Y-16791143D01*
X8438095Y-16800667D01*
X8447619Y-16810190D01*
X8457143Y-16829238D01*
X8457143Y-16886381D01*
X8447619Y-16905429D01*
X8438095Y-16914952D01*
X8419048Y-16924476D01*
X8390476Y-16924476D01*
X8571429Y-16924476D02*
X8552381Y-16914952D01*
X8542857Y-16895905D01*
X8542857Y-16724476D01*
X8723810Y-16914952D02*
X8704762Y-16924476D01*
X8666667Y-16924476D01*
X8647619Y-16914952D01*
X8638095Y-16895905D01*
X8638095Y-16819714D01*
X8647619Y-16800667D01*
X8666667Y-16791143D01*
X8704762Y-16791143D01*
X8723810Y-16800667D01*
X8733333Y-16819714D01*
X8733333Y-16838762D01*
X8638095Y-16857810D01*
X8809524Y-16914952D02*
X8828571Y-16924476D01*
X8866667Y-16924476D01*
X8885714Y-16914952D01*
X8895238Y-16895905D01*
X8895238Y-16886381D01*
X8885714Y-16867333D01*
X8866667Y-16857810D01*
X8838095Y-16857810D01*
X8819048Y-16848286D01*
X8809524Y-16829238D01*
X8809524Y-16819714D01*
X8819048Y-16800667D01*
X8838095Y-16791143D01*
X8866667Y-16791143D01*
X8885714Y-16800667D01*
X8961905Y-17000667D02*
X8971429Y-16991143D01*
X8990476Y-16962571D01*
X9000000Y-16943524D01*
X9009524Y-16914952D01*
X9019048Y-16867333D01*
X9019048Y-16829238D01*
X9009524Y-16781619D01*
X9000000Y-16753048D01*
X8990476Y-16734000D01*
X8971429Y-16705428D01*
X8961905Y-16695905D01*
D19*
X4060000Y-17033000D02*
X4190000Y-17163000D01*
X4190000Y-17033000D02*
X4060000Y-17163000D01*
X4170962Y-17143962D02*
X4170962Y-17052038D01*
X4079038Y-17052038D01*
X4079038Y-17143962D01*
X4170962Y-17143962D01*
D11*
X4552381Y-17188476D02*
X4438095Y-17188476D01*
X4495238Y-17188476D02*
X4495238Y-16988476D01*
X4476190Y-17017048D01*
X4457143Y-17036095D01*
X4438095Y-17045619D01*
X4638095Y-17169429D02*
X4647619Y-17178952D01*
X4638095Y-17188476D01*
X4628571Y-17178952D01*
X4638095Y-17169429D01*
X4638095Y-17188476D01*
X4714286Y-16988476D02*
X4838095Y-16988476D01*
X4771429Y-17064667D01*
X4800000Y-17064667D01*
X4819048Y-17074190D01*
X4828571Y-17083714D01*
X4838095Y-17102762D01*
X4838095Y-17150381D01*
X4828571Y-17169429D01*
X4819048Y-17178952D01*
X4800000Y-17188476D01*
X4742857Y-17188476D01*
X4723810Y-17178952D01*
X4714286Y-17169429D01*
X4961905Y-16988476D02*
X4980952Y-16988476D01*
X5000000Y-16998000D01*
X5009524Y-17007524D01*
X5019048Y-17026571D01*
X5028571Y-17064667D01*
X5028571Y-17112286D01*
X5019048Y-17150381D01*
X5009524Y-17169429D01*
X5000000Y-17178952D01*
X4980952Y-17188476D01*
X4961905Y-17188476D01*
X4942857Y-17178952D01*
X4933333Y-17169429D01*
X4923810Y-17150381D01*
X4914286Y-17112286D01*
X4914286Y-17064667D01*
X4923810Y-17026571D01*
X4933333Y-17007524D01*
X4942857Y-16998000D01*
X4961905Y-16988476D01*
X5152381Y-16988476D02*
X5171429Y-16988476D01*
X5190476Y-16998000D01*
X5200000Y-17007524D01*
X5209524Y-17026571D01*
X5219048Y-17064667D01*
X5219048Y-17112286D01*
X5209524Y-17150381D01*
X5200000Y-17169429D01*
X5190476Y-17178952D01*
X5171429Y-17188476D01*
X5152381Y-17188476D01*
X5133333Y-17178952D01*
X5123810Y-17169429D01*
X5114286Y-17150381D01*
X5104762Y-17112286D01*
X5104762Y-17064667D01*
X5114286Y-17026571D01*
X5123810Y-17007524D01*
X5133333Y-16998000D01*
X5152381Y-16988476D01*
X5304762Y-17188476D02*
X5304762Y-17055143D01*
X5304762Y-17074190D02*
X5314286Y-17064667D01*
X5333333Y-17055143D01*
X5361905Y-17055143D01*
X5380952Y-17064667D01*
X5390476Y-17083714D01*
X5390476Y-17188476D01*
X5390476Y-17083714D02*
X5400000Y-17064667D01*
X5419048Y-17055143D01*
X5447619Y-17055143D01*
X5466667Y-17064667D01*
X5476190Y-17083714D01*
X5476190Y-17188476D01*
X5571429Y-17188476D02*
X5571429Y-17055143D01*
X5571429Y-17074190D02*
X5580952Y-17064667D01*
X5600000Y-17055143D01*
X5628571Y-17055143D01*
X5647619Y-17064667D01*
X5657143Y-17083714D01*
X5657143Y-17188476D01*
X5657143Y-17083714D02*
X5666667Y-17064667D01*
X5685714Y-17055143D01*
X5714286Y-17055143D01*
X5733333Y-17064667D01*
X5742857Y-17083714D01*
X5742857Y-17188476D01*
X6133333Y-16978952D02*
X5961905Y-17236095D01*
X6390476Y-16988476D02*
X6409524Y-16988476D01*
X6428571Y-16998000D01*
X6438095Y-17007524D01*
X6447619Y-17026571D01*
X6457143Y-17064667D01*
X6457143Y-17112286D01*
X6447619Y-17150381D01*
X6438095Y-17169429D01*
X6428571Y-17178952D01*
X6409524Y-17188476D01*
X6390476Y-17188476D01*
X6371428Y-17178952D01*
X6361905Y-17169429D01*
X6352381Y-17150381D01*
X6342857Y-17112286D01*
X6342857Y-17064667D01*
X6352381Y-17026571D01*
X6361905Y-17007524D01*
X6371428Y-16998000D01*
X6390476Y-16988476D01*
X6542857Y-17169429D02*
X6552381Y-17178952D01*
X6542857Y-17188476D01*
X6533333Y-17178952D01*
X6542857Y-17169429D01*
X6542857Y-17188476D01*
X6676190Y-16988476D02*
X6695238Y-16988476D01*
X6714286Y-16998000D01*
X6723809Y-17007524D01*
X6733333Y-17026571D01*
X6742857Y-17064667D01*
X6742857Y-17112286D01*
X6733333Y-17150381D01*
X6723809Y-17169429D01*
X6714286Y-17178952D01*
X6695238Y-17188476D01*
X6676190Y-17188476D01*
X6657143Y-17178952D01*
X6647619Y-17169429D01*
X6638095Y-17150381D01*
X6628571Y-17112286D01*
X6628571Y-17064667D01*
X6638095Y-17026571D01*
X6647619Y-17007524D01*
X6657143Y-16998000D01*
X6676190Y-16988476D01*
X6923809Y-16988476D02*
X6828571Y-16988476D01*
X6819048Y-17083714D01*
X6828571Y-17074190D01*
X6847619Y-17064667D01*
X6895238Y-17064667D01*
X6914286Y-17074190D01*
X6923809Y-17083714D01*
X6933333Y-17102762D01*
X6933333Y-17150381D01*
X6923809Y-17169429D01*
X6914286Y-17178952D01*
X6895238Y-17188476D01*
X6847619Y-17188476D01*
X6828571Y-17178952D01*
X6819048Y-17169429D01*
X7123809Y-17188476D02*
X7009524Y-17188476D01*
X7066667Y-17188476D02*
X7066667Y-16988476D01*
X7047619Y-17017048D01*
X7028571Y-17036095D01*
X7009524Y-17045619D01*
X7200000Y-17007524D02*
X7209524Y-16998000D01*
X7228571Y-16988476D01*
X7276190Y-16988476D01*
X7295238Y-16998000D01*
X7304762Y-17007524D01*
X7314286Y-17026571D01*
X7314286Y-17045619D01*
X7304762Y-17074190D01*
X7190476Y-17188476D01*
X7314286Y-17188476D01*
X7390476Y-16988476D02*
X7390476Y-17026571D01*
X7466667Y-16988476D02*
X7466667Y-17026571D01*
X7761905Y-17264667D02*
X7752381Y-17255143D01*
X7733333Y-17226571D01*
X7723809Y-17207524D01*
X7714286Y-17178952D01*
X7704762Y-17131333D01*
X7704762Y-17093238D01*
X7714286Y-17045619D01*
X7723809Y-17017048D01*
X7733333Y-16998000D01*
X7752381Y-16969429D01*
X7761905Y-16959905D01*
X7828571Y-17007524D02*
X7838095Y-16998000D01*
X7857143Y-16988476D01*
X7904762Y-16988476D01*
X7923809Y-16998000D01*
X7933333Y-17007524D01*
X7942857Y-17026571D01*
X7942857Y-17045619D01*
X7933333Y-17074190D01*
X7819048Y-17188476D01*
X7942857Y-17188476D01*
X8066667Y-16988476D02*
X8085714Y-16988476D01*
X8104762Y-16998000D01*
X8114286Y-17007524D01*
X8123809Y-17026571D01*
X8133333Y-17064667D01*
X8133333Y-17112286D01*
X8123809Y-17150381D01*
X8114286Y-17169429D01*
X8104762Y-17178952D01*
X8085714Y-17188476D01*
X8066667Y-17188476D01*
X8047619Y-17178952D01*
X8038095Y-17169429D01*
X8028571Y-17150381D01*
X8019048Y-17112286D01*
X8019048Y-17064667D01*
X8028571Y-17026571D01*
X8038095Y-17007524D01*
X8047619Y-16998000D01*
X8066667Y-16988476D01*
X8371428Y-17188476D02*
X8371428Y-16988476D01*
X8457143Y-17188476D02*
X8457143Y-17083714D01*
X8447619Y-17064667D01*
X8428571Y-17055143D01*
X8400000Y-17055143D01*
X8380952Y-17064667D01*
X8371428Y-17074190D01*
X8580952Y-17188476D02*
X8561905Y-17178952D01*
X8552381Y-17169429D01*
X8542857Y-17150381D01*
X8542857Y-17093238D01*
X8552381Y-17074190D01*
X8561905Y-17064667D01*
X8580952Y-17055143D01*
X8609524Y-17055143D01*
X8628571Y-17064667D01*
X8638095Y-17074190D01*
X8647619Y-17093238D01*
X8647619Y-17150381D01*
X8638095Y-17169429D01*
X8628571Y-17178952D01*
X8609524Y-17188476D01*
X8580952Y-17188476D01*
X8761905Y-17188476D02*
X8742857Y-17178952D01*
X8733333Y-17159905D01*
X8733333Y-16988476D01*
X8914286Y-17178952D02*
X8895238Y-17188476D01*
X8857143Y-17188476D01*
X8838095Y-17178952D01*
X8828571Y-17159905D01*
X8828571Y-17083714D01*
X8838095Y-17064667D01*
X8857143Y-17055143D01*
X8895238Y-17055143D01*
X8914286Y-17064667D01*
X8923810Y-17083714D01*
X8923810Y-17102762D01*
X8828571Y-17121810D01*
X9000000Y-17178952D02*
X9019048Y-17188476D01*
X9057143Y-17188476D01*
X9076190Y-17178952D01*
X9085714Y-17159905D01*
X9085714Y-17150381D01*
X9076190Y-17131333D01*
X9057143Y-17121810D01*
X9028571Y-17121810D01*
X9009524Y-17112286D01*
X9000000Y-17093238D01*
X9000000Y-17083714D01*
X9009524Y-17064667D01*
X9028571Y-17055143D01*
X9057143Y-17055143D01*
X9076190Y-17064667D01*
X9152381Y-17264667D02*
X9161905Y-17255143D01*
X9180952Y-17226571D01*
X9190476Y-17207524D01*
X9200000Y-17178952D01*
X9209524Y-17131333D01*
X9209524Y-17093238D01*
X9200000Y-17045619D01*
X9190476Y-17017048D01*
X9180952Y-16998000D01*
X9161905Y-16969429D01*
X9152381Y-16959905D01*
D20*
X4058000Y-17296000D02*
X4190000Y-17428000D01*
X4190000Y-17296000D02*
X4058000Y-17428000D01*
X4124000Y-17428000D02*
X4190000Y-17362000D01*
X4124000Y-17296000D01*
X4058000Y-17362000D01*
X4124000Y-17428000D01*
D11*
X4552381Y-17452476D02*
X4438095Y-17452476D01*
X4495238Y-17452476D02*
X4495238Y-17252476D01*
X4476190Y-17281048D01*
X4457143Y-17300095D01*
X4438095Y-17309619D01*
X4638095Y-17433429D02*
X4647619Y-17442952D01*
X4638095Y-17452476D01*
X4628571Y-17442952D01*
X4638095Y-17433429D01*
X4638095Y-17452476D01*
X4714286Y-17252476D02*
X4838095Y-17252476D01*
X4771429Y-17328667D01*
X4800000Y-17328667D01*
X4819048Y-17338190D01*
X4828571Y-17347714D01*
X4838095Y-17366762D01*
X4838095Y-17414381D01*
X4828571Y-17433429D01*
X4819048Y-17442952D01*
X4800000Y-17452476D01*
X4742857Y-17452476D01*
X4723810Y-17442952D01*
X4714286Y-17433429D01*
X4914286Y-17271524D02*
X4923810Y-17262000D01*
X4942857Y-17252476D01*
X4990476Y-17252476D01*
X5009524Y-17262000D01*
X5019048Y-17271524D01*
X5028571Y-17290571D01*
X5028571Y-17309619D01*
X5019048Y-17338190D01*
X4904762Y-17452476D01*
X5028571Y-17452476D01*
X5152381Y-17252476D02*
X5171429Y-17252476D01*
X5190476Y-17262000D01*
X5200000Y-17271524D01*
X5209524Y-17290571D01*
X5219048Y-17328667D01*
X5219048Y-17376286D01*
X5209524Y-17414381D01*
X5200000Y-17433429D01*
X5190476Y-17442952D01*
X5171429Y-17452476D01*
X5152381Y-17452476D01*
X5133333Y-17442952D01*
X5123810Y-17433429D01*
X5114286Y-17414381D01*
X5104762Y-17376286D01*
X5104762Y-17328667D01*
X5114286Y-17290571D01*
X5123810Y-17271524D01*
X5133333Y-17262000D01*
X5152381Y-17252476D01*
X5304762Y-17452476D02*
X5304762Y-17319143D01*
X5304762Y-17338190D02*
X5314286Y-17328667D01*
X5333333Y-17319143D01*
X5361905Y-17319143D01*
X5380952Y-17328667D01*
X5390476Y-17347714D01*
X5390476Y-17452476D01*
X5390476Y-17347714D02*
X5400000Y-17328667D01*
X5419048Y-17319143D01*
X5447619Y-17319143D01*
X5466667Y-17328667D01*
X5476190Y-17347714D01*
X5476190Y-17452476D01*
X5571429Y-17452476D02*
X5571429Y-17319143D01*
X5571429Y-17338190D02*
X5580952Y-17328667D01*
X5600000Y-17319143D01*
X5628571Y-17319143D01*
X5647619Y-17328667D01*
X5657143Y-17347714D01*
X5657143Y-17452476D01*
X5657143Y-17347714D02*
X5666667Y-17328667D01*
X5685714Y-17319143D01*
X5714286Y-17319143D01*
X5733333Y-17328667D01*
X5742857Y-17347714D01*
X5742857Y-17452476D01*
X6133333Y-17242952D02*
X5961905Y-17500095D01*
X6390476Y-17252476D02*
X6409524Y-17252476D01*
X6428571Y-17262000D01*
X6438095Y-17271524D01*
X6447619Y-17290571D01*
X6457143Y-17328667D01*
X6457143Y-17376286D01*
X6447619Y-17414381D01*
X6438095Y-17433429D01*
X6428571Y-17442952D01*
X6409524Y-17452476D01*
X6390476Y-17452476D01*
X6371428Y-17442952D01*
X6361905Y-17433429D01*
X6352381Y-17414381D01*
X6342857Y-17376286D01*
X6342857Y-17328667D01*
X6352381Y-17290571D01*
X6361905Y-17271524D01*
X6371428Y-17262000D01*
X6390476Y-17252476D01*
X6542857Y-17433429D02*
X6552381Y-17442952D01*
X6542857Y-17452476D01*
X6533333Y-17442952D01*
X6542857Y-17433429D01*
X6542857Y-17452476D01*
X6676190Y-17252476D02*
X6695238Y-17252476D01*
X6714286Y-17262000D01*
X6723809Y-17271524D01*
X6733333Y-17290571D01*
X6742857Y-17328667D01*
X6742857Y-17376286D01*
X6733333Y-17414381D01*
X6723809Y-17433429D01*
X6714286Y-17442952D01*
X6695238Y-17452476D01*
X6676190Y-17452476D01*
X6657143Y-17442952D01*
X6647619Y-17433429D01*
X6638095Y-17414381D01*
X6628571Y-17376286D01*
X6628571Y-17328667D01*
X6638095Y-17290571D01*
X6647619Y-17271524D01*
X6657143Y-17262000D01*
X6676190Y-17252476D01*
X6923809Y-17252476D02*
X6828571Y-17252476D01*
X6819048Y-17347714D01*
X6828571Y-17338190D01*
X6847619Y-17328667D01*
X6895238Y-17328667D01*
X6914286Y-17338190D01*
X6923809Y-17347714D01*
X6933333Y-17366762D01*
X6933333Y-17414381D01*
X6923809Y-17433429D01*
X6914286Y-17442952D01*
X6895238Y-17452476D01*
X6847619Y-17452476D01*
X6828571Y-17442952D01*
X6819048Y-17433429D01*
X7009524Y-17271524D02*
X7019048Y-17262000D01*
X7038095Y-17252476D01*
X7085714Y-17252476D01*
X7104762Y-17262000D01*
X7114286Y-17271524D01*
X7123809Y-17290571D01*
X7123809Y-17309619D01*
X7114286Y-17338190D01*
X7000000Y-17452476D01*
X7123809Y-17452476D01*
X7247619Y-17252476D02*
X7266667Y-17252476D01*
X7285714Y-17262000D01*
X7295238Y-17271524D01*
X7304762Y-17290571D01*
X7314286Y-17328667D01*
X7314286Y-17376286D01*
X7304762Y-17414381D01*
X7295238Y-17433429D01*
X7285714Y-17442952D01*
X7266667Y-17452476D01*
X7247619Y-17452476D01*
X7228571Y-17442952D01*
X7219048Y-17433429D01*
X7209524Y-17414381D01*
X7200000Y-17376286D01*
X7200000Y-17328667D01*
X7209524Y-17290571D01*
X7219048Y-17271524D01*
X7228571Y-17262000D01*
X7247619Y-17252476D01*
X7390476Y-17252476D02*
X7390476Y-17290571D01*
X7466667Y-17252476D02*
X7466667Y-17290571D01*
X7761905Y-17528667D02*
X7752381Y-17519143D01*
X7733333Y-17490571D01*
X7723809Y-17471524D01*
X7714286Y-17442952D01*
X7704762Y-17395333D01*
X7704762Y-17357238D01*
X7714286Y-17309619D01*
X7723809Y-17281048D01*
X7733333Y-17262000D01*
X7752381Y-17233429D01*
X7761905Y-17223905D01*
X7828571Y-17271524D02*
X7838095Y-17262000D01*
X7857143Y-17252476D01*
X7904762Y-17252476D01*
X7923809Y-17262000D01*
X7933333Y-17271524D01*
X7942857Y-17290571D01*
X7942857Y-17309619D01*
X7933333Y-17338190D01*
X7819048Y-17452476D01*
X7942857Y-17452476D01*
X8066667Y-17252476D02*
X8085714Y-17252476D01*
X8104762Y-17262000D01*
X8114286Y-17271524D01*
X8123809Y-17290571D01*
X8133333Y-17328667D01*
X8133333Y-17376286D01*
X8123809Y-17414381D01*
X8114286Y-17433429D01*
X8104762Y-17442952D01*
X8085714Y-17452476D01*
X8066667Y-17452476D01*
X8047619Y-17442952D01*
X8038095Y-17433429D01*
X8028571Y-17414381D01*
X8019048Y-17376286D01*
X8019048Y-17328667D01*
X8028571Y-17290571D01*
X8038095Y-17271524D01*
X8047619Y-17262000D01*
X8066667Y-17252476D01*
X8371428Y-17452476D02*
X8371428Y-17252476D01*
X8457143Y-17452476D02*
X8457143Y-17347714D01*
X8447619Y-17328667D01*
X8428571Y-17319143D01*
X8400000Y-17319143D01*
X8380952Y-17328667D01*
X8371428Y-17338190D01*
X8580952Y-17452476D02*
X8561905Y-17442952D01*
X8552381Y-17433429D01*
X8542857Y-17414381D01*
X8542857Y-17357238D01*
X8552381Y-17338190D01*
X8561905Y-17328667D01*
X8580952Y-17319143D01*
X8609524Y-17319143D01*
X8628571Y-17328667D01*
X8638095Y-17338190D01*
X8647619Y-17357238D01*
X8647619Y-17414381D01*
X8638095Y-17433429D01*
X8628571Y-17442952D01*
X8609524Y-17452476D01*
X8580952Y-17452476D01*
X8761905Y-17452476D02*
X8742857Y-17442952D01*
X8733333Y-17423905D01*
X8733333Y-17252476D01*
X8914286Y-17442952D02*
X8895238Y-17452476D01*
X8857143Y-17452476D01*
X8838095Y-17442952D01*
X8828571Y-17423905D01*
X8828571Y-17347714D01*
X8838095Y-17328667D01*
X8857143Y-17319143D01*
X8895238Y-17319143D01*
X8914286Y-17328667D01*
X8923810Y-17347714D01*
X8923810Y-17366762D01*
X8828571Y-17385810D01*
X9000000Y-17442952D02*
X9019048Y-17452476D01*
X9057143Y-17452476D01*
X9076190Y-17442952D01*
X9085714Y-17423905D01*
X9085714Y-17414381D01*
X9076190Y-17395333D01*
X9057143Y-17385810D01*
X9028571Y-17385810D01*
X9009524Y-17376286D01*
X9000000Y-17357238D01*
X9000000Y-17347714D01*
X9009524Y-17328667D01*
X9028571Y-17319143D01*
X9057143Y-17319143D01*
X9076190Y-17328667D01*
X9152381Y-17528667D02*
X9161905Y-17519143D01*
X9180952Y-17490571D01*
X9190476Y-17471524D01*
X9200000Y-17442952D01*
X9209524Y-17395333D01*
X9209524Y-17357238D01*
X9200000Y-17309619D01*
X9190476Y-17281048D01*
X9180952Y-17262000D01*
X9161905Y-17233429D01*
X9152381Y-17223905D01*
M02*
