M48
; DRILL file {KiCad (6.0.0-rc1-172-gb8b8c0d34c)} date Wednesday, December 08, 2021 at 11:19:56 AM
; FORMAT={-:-/ absolute / metric / decimal}
; #@! TF.CreationDate,2021-12-08T11:19:56-06:00
; #@! TF.GenerationSoftware,Kicad,Pcbnew,(6.0.0-rc1-172-gb8b8c0d34c)
; #@! TF.FileFunction,Plated,1,2,PTH
FMAT,2
METRIC
; #@! TA.AperFunction,Plated,PTH,ViaDrill
T1C0.400
; #@! TA.AperFunction,Plated,PTH,ComponentDrill
T2C0.750
; #@! TA.AperFunction,Plated,PTH,ComponentDrill
T3C0.760
; #@! TA.AperFunction,Plated,PTH,ComponentDrill
T4C0.800
; #@! TA.AperFunction,Plated,PTH,ComponentDrill
T5C1.000
; #@! TA.AperFunction,Plated,PTH,ComponentDrill
T6C1.100
; #@! TA.AperFunction,Plated,PTH,ComponentDrill
T7C1.290
; #@! TA.AperFunction,Plated,PTH,ComponentDrill
T8C1.300
; #@! TA.AperFunction,Plated,PTH,ComponentDrill
T9C1.320
%
G90
G05
T1
X46.0Y-106.25
X48.53Y-97.03
X51.0Y-116.75
X52.0Y-68.5
X52.25Y-75.5
X53.5Y-101.75
X53.5Y-115.5
X56.0Y-113.0
X58.75Y-104.25
X58.75Y-114.25
X60.0Y-74.0
X61.25Y-107.25
X62.5Y-131.5
X63.75Y-105.25
X65.0Y-79.0
X65.0Y-93.5
X66.25Y-103.25
X70.75Y-86.0
X72.5Y-87.25
X74.0Y-74.0
X74.0Y-88.5
X79.0Y-120.5
X88.25Y-60.5
X88.25Y-106.25
X88.25Y-110.5
X89.5Y-124.5
X93.0Y-97.0
X93.0Y-100.25
X94.0Y-116.75
X94.0Y-136.0
X95.5Y-115.5
X95.5Y-135.0
X96.25Y-79.0
X98.75Y-71.0
X98.75Y-107.25
X99.5Y-124.5
X102.0Y-103.25
X105.0Y-104.25
X109.25Y-86.5
X109.5Y-75.5
X117.0Y-105.25
X123.0Y-140.25
X125.5Y-71.0
X125.75Y-96.25
X126.0Y-122.0
X134.25Y-107.75
X137.5Y-114.25
X137.5Y-130.5
X142.5Y-113.0
X152.5Y-93.25
X152.75Y-112.5
X168.0Y-101.0
X168.0Y-124.25
X168.25Y-81.75
X185.5Y-81.5
X191.0Y-95.5
X191.5Y-119.0
X196.0Y-141.0
X215.5Y-124.0
X215.75Y-101.0
X230.25Y-112.25
X239.75Y-112.25
X245.25Y-135.5
X245.5Y-89.25
T2
X110.0Y-100.5
X111.27Y-99.23
X112.54Y-100.5
X151.73Y-124.23
X151.75Y-100.23
X153.0Y-122.96
X153.0Y-125.5
X153.02Y-98.96
X153.02Y-101.5
X230.0Y-99.5
X230.0Y-102.04
X230.0Y-122.5
X230.0Y-125.04
X231.27Y-100.77
X231.27Y-123.77
T3
X56.1Y-82.218
X56.1Y-84.757
X56.1Y-87.297
X56.1Y-89.837
X58.64Y-83.487
X58.64Y-86.027
X58.64Y-88.567
X58.64Y-91.108
T4
X72.65Y-92.0
X72.65Y-100.0
X74.0Y-71.0
X74.0Y-83.7
X82.5Y-71.0
X82.5Y-83.7
X85.35Y-92.0
X85.35Y-100.0
X93.0Y-71.0
X93.0Y-83.7
X98.65Y-92.0
X105.0Y-71.0
X105.0Y-83.7
X111.35Y-92.0
X114.0Y-71.0
X114.0Y-83.7
X142.5Y-95.15
X142.5Y-107.85
X142.5Y-117.8
X142.5Y-130.5
X239.75Y-94.65
X239.75Y-107.35
X239.75Y-117.65
X239.75Y-130.35
T5
X45.99Y-110.39
X45.99Y-125.63
X48.53Y-110.39
X48.53Y-125.63
X51.07Y-110.39
X51.07Y-125.63
X53.61Y-110.39
X53.61Y-125.63
X56.15Y-110.39
X56.15Y-125.63
X58.69Y-110.39
X58.69Y-125.63
X61.23Y-110.39
X61.23Y-125.63
X63.77Y-110.39
X63.77Y-125.63
X66.31Y-110.39
X66.31Y-125.63
X68.85Y-110.39
X68.85Y-125.63
X71.39Y-110.39
X71.39Y-125.63
X73.93Y-110.39
X73.93Y-125.63
X76.47Y-110.39
X76.47Y-125.63
X79.01Y-110.39
X79.01Y-125.63
X81.55Y-110.39
X81.55Y-125.63
X82.5Y-60.5
X82.5Y-63.04
X93.0Y-60.5
X93.0Y-63.04
T6
X105.92Y-130.0
X116.08Y-130.0
X183.5Y-95.92
X183.5Y-106.08
X184.0Y-118.92
X184.0Y-129.08
X199.5Y-95.5
X199.5Y-105.66
X199.5Y-119.0
X199.5Y-129.16
T7
X111.0Y-123.1
X176.1Y-101.0
X176.1Y-124.0
X207.4Y-101.0
X207.4Y-124.08
T8
X60.0Y-61.5
X65.0Y-61.5
X70.0Y-61.5
X104.5Y-61.5
X109.5Y-61.5
X114.5Y-61.5
X152.5Y-81.5
X157.5Y-81.5
X162.5Y-81.5
X174.5Y-81.5
X179.5Y-81.5
X191.5Y-81.5
X196.5Y-81.5
X201.5Y-81.5
X206.5Y-81.5
X218.5Y-81.5
X223.5Y-81.5
X228.5Y-81.5
X233.5Y-81.5
X238.5Y-81.5
T9
X105.0Y-108.9
X105.0Y-121.1
X117.0Y-108.9
X117.0Y-121.1
X161.9Y-95.0
X161.9Y-107.0
X161.9Y-118.0
X161.9Y-130.0
X174.1Y-95.0
X174.1Y-107.0
X174.1Y-118.0
X174.1Y-130.0
X209.4Y-95.0
X209.4Y-107.0
X209.4Y-118.08
X209.4Y-130.08
X221.6Y-95.0
X221.6Y-107.0
X221.6Y-118.08
X221.6Y-130.08
T0
M30
