%TF.GenerationSoftware,KiCad,Pcbnew,(6.0.0-rc1-172-gb8b8c0d34c)*%
%TF.CreationDate,2021-12-08T11:19:38-06:00*%
%TF.ProjectId,Motor Board,4d6f746f-7220-4426-9f61-72642e6b6963,rev?*%
%TF.SameCoordinates,Original*%
%TF.FileFunction,Soldermask,Top*%
%TF.FilePolarity,Negative*%
%FSLAX46Y46*%
G04 Gerber Fmt 4.6, Leading zero omitted, Abs format (unit mm)*
G04 Created by KiCad (PCBNEW (6.0.0-rc1-172-gb8b8c0d34c)) date 2021-12-08 11:19:38*
%MOMM*%
%LPD*%
G01*
G04 APERTURE LIST*
G04 Aperture macros list*
%AMRoundRect*
0 Rectangle with rounded corners*
0 $1 Rounding radius*
0 $2 $3 $4 $5 $6 $7 $8 $9 X,Y pos of 4 corners*
0 Add a 4 corners polygon primitive as box body*
4,1,4,$2,$3,$4,$5,$6,$7,$8,$9,$2,$3,0*
0 Add four circle primitives for the rounded corners*
1,1,$1+$1,$2,$3*
1,1,$1+$1,$4,$5*
1,1,$1+$1,$6,$7*
1,1,$1+$1,$8,$9*
0 Add four rect primitives between the rounded corners*
20,1,$1+$1,$2,$3,$4,$5,0*
20,1,$1+$1,$4,$5,$6,$7,0*
20,1,$1+$1,$6,$7,$8,$9,0*
20,1,$1+$1,$8,$9,$2,$3,0*%
G04 Aperture macros list end*
%ADD10O,1.600000X1.600000*%
%ADD11C,1.600000*%
%ADD12C,1.980000*%
%ADD13C,1.935000*%
%ADD14R,1.980000X1.980000*%
%ADD15R,1.800000X1.100000*%
%ADD16RoundRect,0.275000X-0.625000X0.275000X-0.625000X-0.275000X0.625000X-0.275000X0.625000X0.275000X0*%
%ADD17RoundRect,0.275000X0.625000X-0.275000X0.625000X0.275000X-0.625000X0.275000X-0.625000X-0.275000X0*%
%ADD18RoundRect,0.275000X-0.275000X-0.625000X0.275000X-0.625000X0.275000X0.625000X-0.275000X0.625000X0*%
%ADD19R,1.100000X1.800000*%
%ADD20R,2.600000X2.600000*%
%ADD21C,2.600000*%
%ADD22O,1.700000X1.700000*%
%ADD23R,1.700000X1.700000*%
%ADD24C,1.500000*%
%ADD25R,1.500000X1.500000*%
%ADD26C,3.200000*%
%ADD27O,2.200000X2.200000*%
%ADD28R,2.200000X2.200000*%
%ADD29R,1.600000X1.600000*%
G04 APERTURE END LIST*
D10*
X239750000Y-117650000D03*
D11*
X239750000Y-130350000D03*
D12*
X117000000Y-108900000D03*
X105000000Y-108900000D03*
D13*
X111000000Y-123100000D03*
D12*
X117000000Y-121100000D03*
D14*
X105000000Y-121100000D03*
D10*
X239750000Y-94650000D03*
D11*
X239750000Y-107350000D03*
X142500000Y-107850000D03*
D10*
X142500000Y-95150000D03*
D11*
X142500000Y-130500000D03*
D10*
X142500000Y-117800000D03*
D11*
X98650000Y-92000000D03*
D10*
X111350000Y-92000000D03*
D11*
X93000000Y-83700000D03*
D10*
X93000000Y-71000000D03*
D11*
X114000000Y-71000000D03*
D10*
X114000000Y-83700000D03*
X74000000Y-83700000D03*
D11*
X74000000Y-71000000D03*
X82500000Y-71000000D03*
D10*
X82500000Y-83700000D03*
D11*
X105000000Y-71000000D03*
D10*
X105000000Y-83700000D03*
D11*
X72650000Y-100000000D03*
D10*
X85350000Y-100000000D03*
D11*
X72650000Y-92000000D03*
D10*
X85350000Y-92000000D03*
D15*
X229600000Y-99500000D03*
D16*
X229600000Y-102040000D03*
X231670000Y-100770000D03*
D15*
X229600000Y-122500000D03*
D16*
X229600000Y-125040000D03*
X231670000Y-123770000D03*
D15*
X153420000Y-101500000D03*
D17*
X153420000Y-98960000D03*
X151350000Y-100230000D03*
D15*
X153400000Y-125500000D03*
D17*
X153400000Y-122960000D03*
X151330000Y-124230000D03*
D18*
X111270000Y-98830000D03*
X112540000Y-100900000D03*
D19*
X110000000Y-100900000D03*
D14*
X209400000Y-95000000D03*
D12*
X209400000Y-107000000D03*
D13*
X207400000Y-101000000D03*
D12*
X221600000Y-95000000D03*
X221600000Y-107000000D03*
X221600000Y-130080000D03*
X221600000Y-118080000D03*
D13*
X207400000Y-124080000D03*
D12*
X209400000Y-130080000D03*
D14*
X209400000Y-118080000D03*
D12*
X161900000Y-95000000D03*
X161900000Y-107000000D03*
D13*
X176100000Y-101000000D03*
D12*
X174100000Y-95000000D03*
D14*
X174100000Y-107000000D03*
D12*
X161900000Y-118000000D03*
X161900000Y-130000000D03*
D13*
X176100000Y-124000000D03*
D12*
X174100000Y-118000000D03*
D14*
X174100000Y-130000000D03*
D20*
X238500000Y-81500000D03*
D21*
X233500000Y-81500000D03*
X228500000Y-81500000D03*
X223500000Y-81500000D03*
X218500000Y-81500000D03*
D20*
X206500000Y-81500000D03*
D21*
X201500000Y-81500000D03*
X196500000Y-81500000D03*
X191500000Y-81500000D03*
D20*
X179500000Y-81500000D03*
D21*
X174500000Y-81500000D03*
D22*
X93000000Y-63040000D03*
D23*
X93000000Y-60500000D03*
D20*
X114500000Y-61500000D03*
D21*
X109500000Y-61500000D03*
X104500000Y-61500000D03*
D22*
X82500000Y-63040000D03*
D23*
X82500000Y-60500000D03*
D20*
X70000000Y-61500000D03*
D21*
X65000000Y-61500000D03*
X60000000Y-61500000D03*
D20*
X162500000Y-81500000D03*
D21*
X157500000Y-81500000D03*
X152500000Y-81500000D03*
D24*
X58640000Y-91107500D03*
X56100000Y-89837500D03*
X58640000Y-88567500D03*
X56100000Y-87297500D03*
X58640000Y-86027500D03*
X56100000Y-84757500D03*
X58640000Y-83487500D03*
D25*
X56100000Y-82217500D03*
D26*
X49750000Y-80947500D03*
X49750000Y-92377500D03*
X125500000Y-62500000D03*
X140500000Y-82000000D03*
X250500000Y-82000000D03*
X250500000Y-140000000D03*
X140500000Y-140000000D03*
X48500000Y-140000000D03*
X48500000Y-62500000D03*
D27*
X199500000Y-105660000D03*
D28*
X199500000Y-95500000D03*
D27*
X199500000Y-129160000D03*
D28*
X199500000Y-119000000D03*
D27*
X183500000Y-95920000D03*
D28*
X183500000Y-106080000D03*
D27*
X184000000Y-118920000D03*
D28*
X184000000Y-129080000D03*
X105920000Y-130000000D03*
D27*
X116080000Y-130000000D03*
D29*
X81550000Y-110390000D03*
D10*
X48530000Y-125630000D03*
X79010000Y-110390000D03*
X51070000Y-125630000D03*
X76470000Y-110390000D03*
X53610000Y-125630000D03*
X73930000Y-110390000D03*
X56150000Y-125630000D03*
X71390000Y-110390000D03*
X58690000Y-125630000D03*
X68850000Y-110390000D03*
X61230000Y-125630000D03*
X66310000Y-110390000D03*
X63770000Y-125630000D03*
X63770000Y-110390000D03*
X66310000Y-125630000D03*
X61230000Y-110390000D03*
X68850000Y-125630000D03*
X58690000Y-110390000D03*
X71390000Y-125630000D03*
X56150000Y-110390000D03*
X73930000Y-125630000D03*
X53610000Y-110390000D03*
X76470000Y-125630000D03*
X51070000Y-110390000D03*
X79010000Y-125630000D03*
X48530000Y-110390000D03*
X81550000Y-125630000D03*
X45990000Y-110390000D03*
X45990000Y-125630000D03*
M02*
