%FSLAX45Y45*%
G04 Gerber Fmt 4.5, Leading zero omitted, Abs format (unit mm)*
G04 Created by KiCad (PCBNEW (6.0.0-rc1-172-gb8b8c0d34c)) date 2021-12-08 11:19:58*
%MOMM*%
%LPD*%
G01*
G04 APERTURE LIST*
%TA.AperFunction,Profile*%
%ADD10C,0.200000*%
%TD*%
%ADD11C,0.200000*%
%ADD12C,0.320000*%
G04 APERTURE END LIST*
D10*
X25200000Y-14600000D02*
G75*
G03*
X25700000Y-14100000I0J500000D01*
G01*
X25700000Y-8100000D02*
G75*
G03*
X25200000Y-7600000I-500000J0D01*
G01*
X13200000Y-7100000D02*
G75*
G03*
X13700000Y-7600000I500000J0D01*
G01*
X13200000Y-6100000D02*
G75*
G03*
X12700000Y-5600000I-500000J0D01*
G01*
X4700000Y-5600000D02*
G75*
G03*
X4200000Y-6100000I0J-500000D01*
G01*
X4200000Y-14100000D02*
G75*
G03*
X4700000Y-14600000I500000J0D01*
G01*
X12700000Y-5600000D02*
X4700000Y-5600000D01*
X13200000Y-7100000D02*
X13200000Y-6100000D01*
X25200000Y-7600000D02*
X13700000Y-7600000D01*
X25700000Y-14100000D02*
X25700000Y-8100000D01*
X4700000Y-14600000D02*
X25200000Y-14600000D01*
X4200000Y-6100000D02*
X4200000Y-14100000D01*
D11*
D12*
X4690000Y-6090000D02*
X5010000Y-6410000D01*
X5010000Y-6090000D02*
X4690000Y-6410000D01*
X4690000Y-13840000D02*
X5010000Y-14160000D01*
X5010000Y-13840000D02*
X4690000Y-14160000D01*
X4815000Y-7934750D02*
X5135000Y-8254750D01*
X5135000Y-7934750D02*
X4815000Y-8254750D01*
X4815000Y-9077750D02*
X5135000Y-9397750D01*
X5135000Y-9077750D02*
X4815000Y-9397750D01*
X12390000Y-6090000D02*
X12710000Y-6410000D01*
X12710000Y-6090000D02*
X12390000Y-6410000D01*
X13890000Y-8040000D02*
X14210000Y-8360000D01*
X14210000Y-8040000D02*
X13890000Y-8360000D01*
X13890000Y-13840000D02*
X14210000Y-14160000D01*
X14210000Y-13840000D02*
X13890000Y-14160000D01*
X24890000Y-8040000D02*
X25210000Y-8360000D01*
X25210000Y-8040000D02*
X24890000Y-8360000D01*
X24890000Y-13840000D02*
X25210000Y-14160000D01*
X25210000Y-13840000D02*
X24890000Y-14160000D01*
D11*
X4447619Y-14920476D02*
X4447619Y-14720476D01*
X4495238Y-14720476D01*
X4523810Y-14730000D01*
X4542857Y-14749048D01*
X4552381Y-14768095D01*
X4561905Y-14806190D01*
X4561905Y-14834762D01*
X4552381Y-14872857D01*
X4542857Y-14891905D01*
X4523810Y-14910952D01*
X4495238Y-14920476D01*
X4447619Y-14920476D01*
X4647619Y-14920476D02*
X4647619Y-14787143D01*
X4647619Y-14825238D02*
X4657143Y-14806190D01*
X4666667Y-14796667D01*
X4685714Y-14787143D01*
X4704762Y-14787143D01*
X4771429Y-14920476D02*
X4771429Y-14787143D01*
X4771429Y-14720476D02*
X4761905Y-14730000D01*
X4771429Y-14739524D01*
X4780952Y-14730000D01*
X4771429Y-14720476D01*
X4771429Y-14739524D01*
X4895238Y-14920476D02*
X4876190Y-14910952D01*
X4866667Y-14891905D01*
X4866667Y-14720476D01*
X5000000Y-14920476D02*
X4980952Y-14910952D01*
X4971429Y-14891905D01*
X4971429Y-14720476D01*
X5228571Y-14920476D02*
X5228571Y-14720476D01*
X5295238Y-14863333D01*
X5361905Y-14720476D01*
X5361905Y-14920476D01*
X5542857Y-14920476D02*
X5542857Y-14815714D01*
X5533333Y-14796667D01*
X5514286Y-14787143D01*
X5476190Y-14787143D01*
X5457143Y-14796667D01*
X5542857Y-14910952D02*
X5523810Y-14920476D01*
X5476190Y-14920476D01*
X5457143Y-14910952D01*
X5447619Y-14891905D01*
X5447619Y-14872857D01*
X5457143Y-14853809D01*
X5476190Y-14844286D01*
X5523810Y-14844286D01*
X5542857Y-14834762D01*
X5638095Y-14787143D02*
X5638095Y-14987143D01*
X5638095Y-14796667D02*
X5657143Y-14787143D01*
X5695238Y-14787143D01*
X5714286Y-14796667D01*
X5723809Y-14806190D01*
X5733333Y-14825238D01*
X5733333Y-14882381D01*
X5723809Y-14901428D01*
X5714286Y-14910952D01*
X5695238Y-14920476D01*
X5657143Y-14920476D01*
X5638095Y-14910952D01*
X5819048Y-14901428D02*
X5828571Y-14910952D01*
X5819048Y-14920476D01*
X5809524Y-14910952D01*
X5819048Y-14901428D01*
X5819048Y-14920476D01*
X5819048Y-14796667D02*
X5828571Y-14806190D01*
X5819048Y-14815714D01*
X5809524Y-14806190D01*
X5819048Y-14796667D01*
X5819048Y-14815714D01*
X3990000Y-15150000D02*
X4190000Y-15350000D01*
X4190000Y-15150000D02*
X3990000Y-15350000D01*
X4428571Y-15140476D02*
X4552381Y-15140476D01*
X4485714Y-15216667D01*
X4514286Y-15216667D01*
X4533333Y-15226190D01*
X4542857Y-15235714D01*
X4552381Y-15254762D01*
X4552381Y-15302381D01*
X4542857Y-15321428D01*
X4533333Y-15330952D01*
X4514286Y-15340476D01*
X4457143Y-15340476D01*
X4438095Y-15330952D01*
X4428571Y-15321428D01*
X4638095Y-15321428D02*
X4647619Y-15330952D01*
X4638095Y-15340476D01*
X4628571Y-15330952D01*
X4638095Y-15321428D01*
X4638095Y-15340476D01*
X4723810Y-15159524D02*
X4733333Y-15150000D01*
X4752381Y-15140476D01*
X4800000Y-15140476D01*
X4819048Y-15150000D01*
X4828571Y-15159524D01*
X4838095Y-15178571D01*
X4838095Y-15197619D01*
X4828571Y-15226190D01*
X4714286Y-15340476D01*
X4838095Y-15340476D01*
X4961905Y-15140476D02*
X4980952Y-15140476D01*
X5000000Y-15150000D01*
X5009524Y-15159524D01*
X5019048Y-15178571D01*
X5028571Y-15216667D01*
X5028571Y-15264286D01*
X5019048Y-15302381D01*
X5009524Y-15321428D01*
X5000000Y-15330952D01*
X4980952Y-15340476D01*
X4961905Y-15340476D01*
X4942857Y-15330952D01*
X4933333Y-15321428D01*
X4923810Y-15302381D01*
X4914286Y-15264286D01*
X4914286Y-15216667D01*
X4923810Y-15178571D01*
X4933333Y-15159524D01*
X4942857Y-15150000D01*
X4961905Y-15140476D01*
X5152381Y-15140476D02*
X5171429Y-15140476D01*
X5190476Y-15150000D01*
X5200000Y-15159524D01*
X5209524Y-15178571D01*
X5219048Y-15216667D01*
X5219048Y-15264286D01*
X5209524Y-15302381D01*
X5200000Y-15321428D01*
X5190476Y-15330952D01*
X5171429Y-15340476D01*
X5152381Y-15340476D01*
X5133333Y-15330952D01*
X5123810Y-15321428D01*
X5114286Y-15302381D01*
X5104762Y-15264286D01*
X5104762Y-15216667D01*
X5114286Y-15178571D01*
X5123810Y-15159524D01*
X5133333Y-15150000D01*
X5152381Y-15140476D01*
X5304762Y-15340476D02*
X5304762Y-15207143D01*
X5304762Y-15226190D02*
X5314286Y-15216667D01*
X5333333Y-15207143D01*
X5361905Y-15207143D01*
X5380952Y-15216667D01*
X5390476Y-15235714D01*
X5390476Y-15340476D01*
X5390476Y-15235714D02*
X5400000Y-15216667D01*
X5419048Y-15207143D01*
X5447619Y-15207143D01*
X5466667Y-15216667D01*
X5476190Y-15235714D01*
X5476190Y-15340476D01*
X5571429Y-15340476D02*
X5571429Y-15207143D01*
X5571429Y-15226190D02*
X5580952Y-15216667D01*
X5600000Y-15207143D01*
X5628571Y-15207143D01*
X5647619Y-15216667D01*
X5657143Y-15235714D01*
X5657143Y-15340476D01*
X5657143Y-15235714D02*
X5666667Y-15216667D01*
X5685714Y-15207143D01*
X5714286Y-15207143D01*
X5733333Y-15216667D01*
X5742857Y-15235714D01*
X5742857Y-15340476D01*
X6133333Y-15130952D02*
X5961905Y-15388095D01*
X6390476Y-15140476D02*
X6409524Y-15140476D01*
X6428571Y-15150000D01*
X6438095Y-15159524D01*
X6447619Y-15178571D01*
X6457143Y-15216667D01*
X6457143Y-15264286D01*
X6447619Y-15302381D01*
X6438095Y-15321428D01*
X6428571Y-15330952D01*
X6409524Y-15340476D01*
X6390476Y-15340476D01*
X6371428Y-15330952D01*
X6361905Y-15321428D01*
X6352381Y-15302381D01*
X6342857Y-15264286D01*
X6342857Y-15216667D01*
X6352381Y-15178571D01*
X6361905Y-15159524D01*
X6371428Y-15150000D01*
X6390476Y-15140476D01*
X6542857Y-15321428D02*
X6552381Y-15330952D01*
X6542857Y-15340476D01*
X6533333Y-15330952D01*
X6542857Y-15321428D01*
X6542857Y-15340476D01*
X6742857Y-15340476D02*
X6628571Y-15340476D01*
X6685714Y-15340476D02*
X6685714Y-15140476D01*
X6666667Y-15169048D01*
X6647619Y-15188095D01*
X6628571Y-15197619D01*
X6819048Y-15159524D02*
X6828571Y-15150000D01*
X6847619Y-15140476D01*
X6895238Y-15140476D01*
X6914286Y-15150000D01*
X6923809Y-15159524D01*
X6933333Y-15178571D01*
X6933333Y-15197619D01*
X6923809Y-15226190D01*
X6809524Y-15340476D01*
X6933333Y-15340476D01*
X7104762Y-15140476D02*
X7066667Y-15140476D01*
X7047619Y-15150000D01*
X7038095Y-15159524D01*
X7019048Y-15188095D01*
X7009524Y-15226190D01*
X7009524Y-15302381D01*
X7019048Y-15321428D01*
X7028571Y-15330952D01*
X7047619Y-15340476D01*
X7085714Y-15340476D01*
X7104762Y-15330952D01*
X7114286Y-15321428D01*
X7123809Y-15302381D01*
X7123809Y-15254762D01*
X7114286Y-15235714D01*
X7104762Y-15226190D01*
X7085714Y-15216667D01*
X7047619Y-15216667D01*
X7028571Y-15226190D01*
X7019048Y-15235714D01*
X7009524Y-15254762D01*
X7247619Y-15140476D02*
X7266667Y-15140476D01*
X7285714Y-15150000D01*
X7295238Y-15159524D01*
X7304762Y-15178571D01*
X7314286Y-15216667D01*
X7314286Y-15264286D01*
X7304762Y-15302381D01*
X7295238Y-15321428D01*
X7285714Y-15330952D01*
X7266667Y-15340476D01*
X7247619Y-15340476D01*
X7228571Y-15330952D01*
X7219048Y-15321428D01*
X7209524Y-15302381D01*
X7200000Y-15264286D01*
X7200000Y-15216667D01*
X7209524Y-15178571D01*
X7219048Y-15159524D01*
X7228571Y-15150000D01*
X7247619Y-15140476D01*
X7390476Y-15140476D02*
X7390476Y-15178571D01*
X7466667Y-15140476D02*
X7466667Y-15178571D01*
X7761905Y-15416667D02*
X7752381Y-15407143D01*
X7733333Y-15378571D01*
X7723809Y-15359524D01*
X7714286Y-15330952D01*
X7704762Y-15283333D01*
X7704762Y-15245238D01*
X7714286Y-15197619D01*
X7723809Y-15169048D01*
X7733333Y-15150000D01*
X7752381Y-15121428D01*
X7761905Y-15111905D01*
X7847619Y-15340476D02*
X7885714Y-15340476D01*
X7904762Y-15330952D01*
X7914286Y-15321428D01*
X7933333Y-15292857D01*
X7942857Y-15254762D01*
X7942857Y-15178571D01*
X7933333Y-15159524D01*
X7923809Y-15150000D01*
X7904762Y-15140476D01*
X7866667Y-15140476D01*
X7847619Y-15150000D01*
X7838095Y-15159524D01*
X7828571Y-15178571D01*
X7828571Y-15226190D01*
X7838095Y-15245238D01*
X7847619Y-15254762D01*
X7866667Y-15264286D01*
X7904762Y-15264286D01*
X7923809Y-15254762D01*
X7933333Y-15245238D01*
X7942857Y-15226190D01*
X8180952Y-15340476D02*
X8180952Y-15140476D01*
X8266667Y-15340476D02*
X8266667Y-15235714D01*
X8257143Y-15216667D01*
X8238095Y-15207143D01*
X8209524Y-15207143D01*
X8190476Y-15216667D01*
X8180952Y-15226190D01*
X8390476Y-15340476D02*
X8371428Y-15330952D01*
X8361905Y-15321428D01*
X8352381Y-15302381D01*
X8352381Y-15245238D01*
X8361905Y-15226190D01*
X8371428Y-15216667D01*
X8390476Y-15207143D01*
X8419048Y-15207143D01*
X8438095Y-15216667D01*
X8447619Y-15226190D01*
X8457143Y-15245238D01*
X8457143Y-15302381D01*
X8447619Y-15321428D01*
X8438095Y-15330952D01*
X8419048Y-15340476D01*
X8390476Y-15340476D01*
X8571429Y-15340476D02*
X8552381Y-15330952D01*
X8542857Y-15311905D01*
X8542857Y-15140476D01*
X8723810Y-15330952D02*
X8704762Y-15340476D01*
X8666667Y-15340476D01*
X8647619Y-15330952D01*
X8638095Y-15311905D01*
X8638095Y-15235714D01*
X8647619Y-15216667D01*
X8666667Y-15207143D01*
X8704762Y-15207143D01*
X8723810Y-15216667D01*
X8733333Y-15235714D01*
X8733333Y-15254762D01*
X8638095Y-15273809D01*
X8809524Y-15330952D02*
X8828571Y-15340476D01*
X8866667Y-15340476D01*
X8885714Y-15330952D01*
X8895238Y-15311905D01*
X8895238Y-15302381D01*
X8885714Y-15283333D01*
X8866667Y-15273809D01*
X8838095Y-15273809D01*
X8819048Y-15264286D01*
X8809524Y-15245238D01*
X8809524Y-15235714D01*
X8819048Y-15216667D01*
X8838095Y-15207143D01*
X8866667Y-15207143D01*
X8885714Y-15216667D01*
X8961905Y-15416667D02*
X8971429Y-15407143D01*
X8990476Y-15378571D01*
X9000000Y-15359524D01*
X9009524Y-15330952D01*
X9019048Y-15283333D01*
X9019048Y-15245238D01*
X9009524Y-15197619D01*
X9000000Y-15169048D01*
X8990476Y-15150000D01*
X8971429Y-15121428D01*
X8961905Y-15111905D01*
X9323810Y-15416667D02*
X9314286Y-15407143D01*
X9295238Y-15378571D01*
X9285714Y-15359524D01*
X9276190Y-15330952D01*
X9266667Y-15283333D01*
X9266667Y-15245238D01*
X9276190Y-15197619D01*
X9285714Y-15169048D01*
X9295238Y-15150000D01*
X9314286Y-15121428D01*
X9323810Y-15111905D01*
X9400000Y-15207143D02*
X9400000Y-15340476D01*
X9400000Y-15226190D02*
X9409524Y-15216667D01*
X9428571Y-15207143D01*
X9457143Y-15207143D01*
X9476190Y-15216667D01*
X9485714Y-15235714D01*
X9485714Y-15340476D01*
X9609524Y-15340476D02*
X9590476Y-15330952D01*
X9580952Y-15321428D01*
X9571429Y-15302381D01*
X9571429Y-15245238D01*
X9580952Y-15226190D01*
X9590476Y-15216667D01*
X9609524Y-15207143D01*
X9638095Y-15207143D01*
X9657143Y-15216667D01*
X9666667Y-15226190D01*
X9676190Y-15245238D01*
X9676190Y-15302381D01*
X9666667Y-15321428D01*
X9657143Y-15330952D01*
X9638095Y-15340476D01*
X9609524Y-15340476D01*
X9733333Y-15207143D02*
X9809524Y-15207143D01*
X9761905Y-15140476D02*
X9761905Y-15311905D01*
X9771429Y-15330952D01*
X9790476Y-15340476D01*
X9809524Y-15340476D01*
X10028571Y-15207143D02*
X10028571Y-15407143D01*
X10028571Y-15216667D02*
X10047619Y-15207143D01*
X10085714Y-15207143D01*
X10104762Y-15216667D01*
X10114286Y-15226190D01*
X10123810Y-15245238D01*
X10123810Y-15302381D01*
X10114286Y-15321428D01*
X10104762Y-15330952D01*
X10085714Y-15340476D01*
X10047619Y-15340476D01*
X10028571Y-15330952D01*
X10238095Y-15340476D02*
X10219048Y-15330952D01*
X10209524Y-15311905D01*
X10209524Y-15140476D01*
X10400000Y-15340476D02*
X10400000Y-15235714D01*
X10390476Y-15216667D01*
X10371429Y-15207143D01*
X10333333Y-15207143D01*
X10314286Y-15216667D01*
X10400000Y-15330952D02*
X10380952Y-15340476D01*
X10333333Y-15340476D01*
X10314286Y-15330952D01*
X10304762Y-15311905D01*
X10304762Y-15292857D01*
X10314286Y-15273809D01*
X10333333Y-15264286D01*
X10380952Y-15264286D01*
X10400000Y-15254762D01*
X10466667Y-15207143D02*
X10542857Y-15207143D01*
X10495238Y-15140476D02*
X10495238Y-15311905D01*
X10504762Y-15330952D01*
X10523810Y-15340476D01*
X10542857Y-15340476D01*
X10685714Y-15330952D02*
X10666667Y-15340476D01*
X10628571Y-15340476D01*
X10609524Y-15330952D01*
X10600000Y-15311905D01*
X10600000Y-15235714D01*
X10609524Y-15216667D01*
X10628571Y-15207143D01*
X10666667Y-15207143D01*
X10685714Y-15216667D01*
X10695238Y-15235714D01*
X10695238Y-15254762D01*
X10600000Y-15273809D01*
X10866667Y-15340476D02*
X10866667Y-15140476D01*
X10866667Y-15330952D02*
X10847619Y-15340476D01*
X10809524Y-15340476D01*
X10790476Y-15330952D01*
X10780952Y-15321428D01*
X10771429Y-15302381D01*
X10771429Y-15245238D01*
X10780952Y-15226190D01*
X10790476Y-15216667D01*
X10809524Y-15207143D01*
X10847619Y-15207143D01*
X10866667Y-15216667D01*
X10942857Y-15416667D02*
X10952381Y-15407143D01*
X10971429Y-15378571D01*
X10980952Y-15359524D01*
X10990476Y-15330952D01*
X11000000Y-15283333D01*
X11000000Y-15245238D01*
X10990476Y-15197619D01*
X10980952Y-15169048D01*
X10971429Y-15150000D01*
X10952381Y-15121428D01*
X10942857Y-15111905D01*
M02*
