%FSLAX45Y45*%
G04 Gerber Fmt 4.5, Leading zero omitted, Abs format (unit mm)*
G04 Created by KiCad (PCBNEW (6.0.0-rc1-172-gb8b8c0d34c)) date 2021-12-06 15:46:52*
%MOMM*%
%LPD*%
G01*
G04 APERTURE LIST*
%TA.AperFunction,Profile*%
%ADD10C,0.100000*%
%TD*%
%ADD11C,0.200000*%
%ADD12C,0.076200*%
%ADD13C,0.320000*%
G04 APERTURE END LIST*
D10*
X23000000Y-14500000D02*
X23000000Y-5500000D01*
X5500000Y-15000000D02*
X22500000Y-15000000D01*
X5000000Y-5500000D02*
X5000000Y-14500000D01*
X22500000Y-5000000D02*
X5500000Y-5000000D01*
X22500000Y-15000000D02*
G75*
G03*
X23000000Y-14500000I0J500000D01*
G01*
X23000000Y-5500000D02*
G75*
G03*
X22500000Y-5000000I-500000J0D01*
G01*
X5000000Y-14500000D02*
G75*
G03*
X5500000Y-15000000I500000J0D01*
G01*
X5500000Y-5000000D02*
G75*
G03*
X5000000Y-5500000I0J-500000D01*
G01*
D11*
D12*
X22111900Y-7561900D02*
X22188100Y-7638100D01*
X22188100Y-7561900D02*
X22111900Y-7638100D01*
X22111900Y-9161900D02*
X22188100Y-9238100D01*
X22188100Y-9161900D02*
X22111900Y-9238100D01*
X22111900Y-10761900D02*
X22188100Y-10838100D01*
X22188100Y-10761900D02*
X22111900Y-10838100D01*
X22111900Y-12361900D02*
X22188100Y-12438100D01*
X22188100Y-12361900D02*
X22111900Y-12438100D01*
X22611900Y-7061900D02*
X22688100Y-7138100D01*
X22688100Y-7061900D02*
X22611900Y-7138100D01*
X22611900Y-8061900D02*
X22688100Y-8138100D01*
X22688100Y-8061900D02*
X22611900Y-8138100D01*
X22611900Y-8661900D02*
X22688100Y-8738100D01*
X22688100Y-8661900D02*
X22611900Y-8738100D01*
X22611900Y-9661900D02*
X22688100Y-9738100D01*
X22688100Y-9661900D02*
X22611900Y-9738100D01*
X22611900Y-10261900D02*
X22688100Y-10338100D01*
X22688100Y-10261900D02*
X22611900Y-10338100D01*
X22611900Y-11261900D02*
X22688100Y-11338100D01*
X22688100Y-11261900D02*
X22611900Y-11338100D01*
X22611900Y-11861900D02*
X22688100Y-11938100D01*
X22688100Y-11861900D02*
X22611900Y-11938100D01*
X22611900Y-12861900D02*
X22688100Y-12938100D01*
X22688100Y-12861900D02*
X22611900Y-12938100D01*
X22861900Y-7061900D02*
X22938100Y-7138100D01*
X22938100Y-7061900D02*
X22861900Y-7138100D01*
X22861900Y-8061900D02*
X22938100Y-8138100D01*
X22938100Y-8061900D02*
X22861900Y-8138100D01*
X22861900Y-8661900D02*
X22938100Y-8738100D01*
X22938100Y-8661900D02*
X22861900Y-8738100D01*
X22861900Y-9661900D02*
X22938100Y-9738100D01*
X22938100Y-9661900D02*
X22861900Y-9738100D01*
X22861900Y-10261900D02*
X22938100Y-10338100D01*
X22938100Y-10261900D02*
X22861900Y-10338100D01*
X22861900Y-11261900D02*
X22938100Y-11338100D01*
X22938100Y-11261900D02*
X22861900Y-11338100D01*
X22861900Y-11861900D02*
X22938100Y-11938100D01*
X22938100Y-11861900D02*
X22861900Y-11938100D01*
X22861900Y-12861900D02*
X22938100Y-12938100D01*
X22938100Y-12861900D02*
X22861900Y-12938100D01*
D13*
X5760000Y-5600000D02*
G75*
G03*
X5760000Y-5600000I-160000J0D01*
G01*
X5760000Y-14400000D02*
G75*
G03*
X5760000Y-14400000I-160000J0D01*
G01*
X15060000Y-11800000D02*
G75*
G03*
X15060000Y-11800000I-160000J0D01*
G01*
X20133000Y-14185000D02*
G75*
G03*
X20133000Y-14185000I-160000J0D01*
G01*
X21276000Y-14185000D02*
G75*
G03*
X21276000Y-14185000I-160000J0D01*
G01*
X22560000Y-5600000D02*
G75*
G03*
X22560000Y-5600000I-160000J0D01*
G01*
X22560000Y-14400000D02*
G75*
G03*
X22560000Y-14400000I-160000J0D01*
G01*
D11*
X5252619Y-15315476D02*
X5252619Y-15115476D01*
X5300238Y-15115476D01*
X5328810Y-15125000D01*
X5347857Y-15144048D01*
X5357381Y-15163095D01*
X5366905Y-15201190D01*
X5366905Y-15229762D01*
X5357381Y-15267857D01*
X5347857Y-15286905D01*
X5328810Y-15305952D01*
X5300238Y-15315476D01*
X5252619Y-15315476D01*
X5452619Y-15315476D02*
X5452619Y-15182143D01*
X5452619Y-15220238D02*
X5462143Y-15201190D01*
X5471667Y-15191667D01*
X5490714Y-15182143D01*
X5509762Y-15182143D01*
X5576429Y-15315476D02*
X5576429Y-15182143D01*
X5576429Y-15115476D02*
X5566905Y-15125000D01*
X5576429Y-15134524D01*
X5585952Y-15125000D01*
X5576429Y-15115476D01*
X5576429Y-15134524D01*
X5700238Y-15315476D02*
X5681190Y-15305952D01*
X5671667Y-15286905D01*
X5671667Y-15115476D01*
X5805000Y-15315476D02*
X5785952Y-15305952D01*
X5776428Y-15286905D01*
X5776428Y-15115476D01*
X6033571Y-15315476D02*
X6033571Y-15115476D01*
X6100238Y-15258333D01*
X6166905Y-15115476D01*
X6166905Y-15315476D01*
X6347857Y-15315476D02*
X6347857Y-15210714D01*
X6338333Y-15191667D01*
X6319286Y-15182143D01*
X6281190Y-15182143D01*
X6262143Y-15191667D01*
X6347857Y-15305952D02*
X6328809Y-15315476D01*
X6281190Y-15315476D01*
X6262143Y-15305952D01*
X6252619Y-15286905D01*
X6252619Y-15267857D01*
X6262143Y-15248809D01*
X6281190Y-15239286D01*
X6328809Y-15239286D01*
X6347857Y-15229762D01*
X6443095Y-15182143D02*
X6443095Y-15382143D01*
X6443095Y-15191667D02*
X6462143Y-15182143D01*
X6500238Y-15182143D01*
X6519286Y-15191667D01*
X6528809Y-15201190D01*
X6538333Y-15220238D01*
X6538333Y-15277381D01*
X6528809Y-15296428D01*
X6519286Y-15305952D01*
X6500238Y-15315476D01*
X6462143Y-15315476D01*
X6443095Y-15305952D01*
X6624048Y-15296428D02*
X6633571Y-15305952D01*
X6624048Y-15315476D01*
X6614524Y-15305952D01*
X6624048Y-15296428D01*
X6624048Y-15315476D01*
X6624048Y-15191667D02*
X6633571Y-15201190D01*
X6624048Y-15210714D01*
X6614524Y-15201190D01*
X6624048Y-15191667D01*
X6624048Y-15210714D01*
D12*
X4918800Y-15606900D02*
X4995000Y-15683100D01*
X4995000Y-15606900D02*
X4918800Y-15683100D01*
D11*
X5290714Y-15535476D02*
X5309762Y-15535476D01*
X5328810Y-15545000D01*
X5338333Y-15554524D01*
X5347857Y-15573571D01*
X5357381Y-15611667D01*
X5357381Y-15659286D01*
X5347857Y-15697381D01*
X5338333Y-15716428D01*
X5328810Y-15725952D01*
X5309762Y-15735476D01*
X5290714Y-15735476D01*
X5271667Y-15725952D01*
X5262143Y-15716428D01*
X5252619Y-15697381D01*
X5243095Y-15659286D01*
X5243095Y-15611667D01*
X5252619Y-15573571D01*
X5262143Y-15554524D01*
X5271667Y-15545000D01*
X5290714Y-15535476D01*
X5443095Y-15716428D02*
X5452619Y-15725952D01*
X5443095Y-15735476D01*
X5433571Y-15725952D01*
X5443095Y-15716428D01*
X5443095Y-15735476D01*
X5519286Y-15535476D02*
X5652619Y-15535476D01*
X5566905Y-15735476D01*
X5814524Y-15535476D02*
X5776428Y-15535476D01*
X5757381Y-15545000D01*
X5747857Y-15554524D01*
X5728809Y-15583095D01*
X5719286Y-15621190D01*
X5719286Y-15697381D01*
X5728809Y-15716428D01*
X5738333Y-15725952D01*
X5757381Y-15735476D01*
X5795476Y-15735476D01*
X5814524Y-15725952D01*
X5824048Y-15716428D01*
X5833571Y-15697381D01*
X5833571Y-15649762D01*
X5824048Y-15630714D01*
X5814524Y-15621190D01*
X5795476Y-15611667D01*
X5757381Y-15611667D01*
X5738333Y-15621190D01*
X5728809Y-15630714D01*
X5719286Y-15649762D01*
X5909762Y-15554524D02*
X5919286Y-15545000D01*
X5938333Y-15535476D01*
X5985952Y-15535476D01*
X6005000Y-15545000D01*
X6014524Y-15554524D01*
X6024048Y-15573571D01*
X6024048Y-15592619D01*
X6014524Y-15621190D01*
X5900238Y-15735476D01*
X6024048Y-15735476D01*
X6109762Y-15735476D02*
X6109762Y-15602143D01*
X6109762Y-15621190D02*
X6119286Y-15611667D01*
X6138333Y-15602143D01*
X6166905Y-15602143D01*
X6185952Y-15611667D01*
X6195476Y-15630714D01*
X6195476Y-15735476D01*
X6195476Y-15630714D02*
X6205000Y-15611667D01*
X6224048Y-15602143D01*
X6252619Y-15602143D01*
X6271667Y-15611667D01*
X6281190Y-15630714D01*
X6281190Y-15735476D01*
X6376428Y-15735476D02*
X6376428Y-15602143D01*
X6376428Y-15621190D02*
X6385952Y-15611667D01*
X6405000Y-15602143D01*
X6433571Y-15602143D01*
X6452619Y-15611667D01*
X6462143Y-15630714D01*
X6462143Y-15735476D01*
X6462143Y-15630714D02*
X6471667Y-15611667D01*
X6490714Y-15602143D01*
X6519286Y-15602143D01*
X6538333Y-15611667D01*
X6547857Y-15630714D01*
X6547857Y-15735476D01*
X6938333Y-15525952D02*
X6766905Y-15783095D01*
X7195476Y-15535476D02*
X7214524Y-15535476D01*
X7233571Y-15545000D01*
X7243095Y-15554524D01*
X7252619Y-15573571D01*
X7262143Y-15611667D01*
X7262143Y-15659286D01*
X7252619Y-15697381D01*
X7243095Y-15716428D01*
X7233571Y-15725952D01*
X7214524Y-15735476D01*
X7195476Y-15735476D01*
X7176428Y-15725952D01*
X7166905Y-15716428D01*
X7157381Y-15697381D01*
X7147857Y-15659286D01*
X7147857Y-15611667D01*
X7157381Y-15573571D01*
X7166905Y-15554524D01*
X7176428Y-15545000D01*
X7195476Y-15535476D01*
X7347857Y-15716428D02*
X7357381Y-15725952D01*
X7347857Y-15735476D01*
X7338333Y-15725952D01*
X7347857Y-15716428D01*
X7347857Y-15735476D01*
X7481190Y-15535476D02*
X7500238Y-15535476D01*
X7519286Y-15545000D01*
X7528809Y-15554524D01*
X7538333Y-15573571D01*
X7547857Y-15611667D01*
X7547857Y-15659286D01*
X7538333Y-15697381D01*
X7528809Y-15716428D01*
X7519286Y-15725952D01*
X7500238Y-15735476D01*
X7481190Y-15735476D01*
X7462143Y-15725952D01*
X7452619Y-15716428D01*
X7443095Y-15697381D01*
X7433571Y-15659286D01*
X7433571Y-15611667D01*
X7443095Y-15573571D01*
X7452619Y-15554524D01*
X7462143Y-15545000D01*
X7481190Y-15535476D01*
X7614524Y-15535476D02*
X7738333Y-15535476D01*
X7671667Y-15611667D01*
X7700238Y-15611667D01*
X7719286Y-15621190D01*
X7728809Y-15630714D01*
X7738333Y-15649762D01*
X7738333Y-15697381D01*
X7728809Y-15716428D01*
X7719286Y-15725952D01*
X7700238Y-15735476D01*
X7643095Y-15735476D01*
X7624048Y-15725952D01*
X7614524Y-15716428D01*
X7862143Y-15535476D02*
X7881190Y-15535476D01*
X7900238Y-15545000D01*
X7909762Y-15554524D01*
X7919286Y-15573571D01*
X7928809Y-15611667D01*
X7928809Y-15659286D01*
X7919286Y-15697381D01*
X7909762Y-15716428D01*
X7900238Y-15725952D01*
X7881190Y-15735476D01*
X7862143Y-15735476D01*
X7843095Y-15725952D01*
X7833571Y-15716428D01*
X7824048Y-15697381D01*
X7814524Y-15659286D01*
X7814524Y-15611667D01*
X7824048Y-15573571D01*
X7833571Y-15554524D01*
X7843095Y-15545000D01*
X7862143Y-15535476D01*
X8052619Y-15535476D02*
X8071667Y-15535476D01*
X8090714Y-15545000D01*
X8100238Y-15554524D01*
X8109762Y-15573571D01*
X8119286Y-15611667D01*
X8119286Y-15659286D01*
X8109762Y-15697381D01*
X8100238Y-15716428D01*
X8090714Y-15725952D01*
X8071667Y-15735476D01*
X8052619Y-15735476D01*
X8033571Y-15725952D01*
X8024048Y-15716428D01*
X8014524Y-15697381D01*
X8005000Y-15659286D01*
X8005000Y-15611667D01*
X8014524Y-15573571D01*
X8024048Y-15554524D01*
X8033571Y-15545000D01*
X8052619Y-15535476D01*
X8195476Y-15535476D02*
X8195476Y-15573571D01*
X8271667Y-15535476D02*
X8271667Y-15573571D01*
X8566905Y-15811667D02*
X8557381Y-15802143D01*
X8538333Y-15773571D01*
X8528810Y-15754524D01*
X8519286Y-15725952D01*
X8509762Y-15678333D01*
X8509762Y-15640238D01*
X8519286Y-15592619D01*
X8528810Y-15564048D01*
X8538333Y-15545000D01*
X8557381Y-15516428D01*
X8566905Y-15506905D01*
X8633571Y-15554524D02*
X8643095Y-15545000D01*
X8662143Y-15535476D01*
X8709762Y-15535476D01*
X8728810Y-15545000D01*
X8738333Y-15554524D01*
X8747857Y-15573571D01*
X8747857Y-15592619D01*
X8738333Y-15621190D01*
X8624048Y-15735476D01*
X8747857Y-15735476D01*
X8871667Y-15535476D02*
X8890714Y-15535476D01*
X8909762Y-15545000D01*
X8919286Y-15554524D01*
X8928810Y-15573571D01*
X8938333Y-15611667D01*
X8938333Y-15659286D01*
X8928810Y-15697381D01*
X8919286Y-15716428D01*
X8909762Y-15725952D01*
X8890714Y-15735476D01*
X8871667Y-15735476D01*
X8852619Y-15725952D01*
X8843095Y-15716428D01*
X8833571Y-15697381D01*
X8824048Y-15659286D01*
X8824048Y-15611667D01*
X8833571Y-15573571D01*
X8843095Y-15554524D01*
X8852619Y-15545000D01*
X8871667Y-15535476D01*
X9176429Y-15735476D02*
X9176429Y-15535476D01*
X9262143Y-15735476D02*
X9262143Y-15630714D01*
X9252619Y-15611667D01*
X9233571Y-15602143D01*
X9205000Y-15602143D01*
X9185952Y-15611667D01*
X9176429Y-15621190D01*
X9385952Y-15735476D02*
X9366905Y-15725952D01*
X9357381Y-15716428D01*
X9347857Y-15697381D01*
X9347857Y-15640238D01*
X9357381Y-15621190D01*
X9366905Y-15611667D01*
X9385952Y-15602143D01*
X9414524Y-15602143D01*
X9433571Y-15611667D01*
X9443095Y-15621190D01*
X9452619Y-15640238D01*
X9452619Y-15697381D01*
X9443095Y-15716428D01*
X9433571Y-15725952D01*
X9414524Y-15735476D01*
X9385952Y-15735476D01*
X9566905Y-15735476D02*
X9547857Y-15725952D01*
X9538333Y-15706905D01*
X9538333Y-15535476D01*
X9719286Y-15725952D02*
X9700238Y-15735476D01*
X9662143Y-15735476D01*
X9643095Y-15725952D01*
X9633571Y-15706905D01*
X9633571Y-15630714D01*
X9643095Y-15611667D01*
X9662143Y-15602143D01*
X9700238Y-15602143D01*
X9719286Y-15611667D01*
X9728810Y-15630714D01*
X9728810Y-15649762D01*
X9633571Y-15668809D01*
X9805000Y-15725952D02*
X9824048Y-15735476D01*
X9862143Y-15735476D01*
X9881190Y-15725952D01*
X9890714Y-15706905D01*
X9890714Y-15697381D01*
X9881190Y-15678333D01*
X9862143Y-15668809D01*
X9833571Y-15668809D01*
X9814524Y-15659286D01*
X9805000Y-15640238D01*
X9805000Y-15630714D01*
X9814524Y-15611667D01*
X9833571Y-15602143D01*
X9862143Y-15602143D01*
X9881190Y-15611667D01*
X9957381Y-15811667D02*
X9966905Y-15802143D01*
X9985952Y-15773571D01*
X9995476Y-15754524D01*
X10005000Y-15725952D01*
X10014524Y-15678333D01*
X10014524Y-15640238D01*
X10005000Y-15592619D01*
X9995476Y-15564048D01*
X9985952Y-15545000D01*
X9966905Y-15516428D01*
X9957381Y-15506905D01*
X10319286Y-15811667D02*
X10309762Y-15802143D01*
X10290714Y-15773571D01*
X10281190Y-15754524D01*
X10271667Y-15725952D01*
X10262143Y-15678333D01*
X10262143Y-15640238D01*
X10271667Y-15592619D01*
X10281190Y-15564048D01*
X10290714Y-15545000D01*
X10309762Y-15516428D01*
X10319286Y-15506905D01*
X10395476Y-15602143D02*
X10395476Y-15735476D01*
X10395476Y-15621190D02*
X10405000Y-15611667D01*
X10424048Y-15602143D01*
X10452619Y-15602143D01*
X10471667Y-15611667D01*
X10481190Y-15630714D01*
X10481190Y-15735476D01*
X10605000Y-15735476D02*
X10585952Y-15725952D01*
X10576429Y-15716428D01*
X10566905Y-15697381D01*
X10566905Y-15640238D01*
X10576429Y-15621190D01*
X10585952Y-15611667D01*
X10605000Y-15602143D01*
X10633571Y-15602143D01*
X10652619Y-15611667D01*
X10662143Y-15621190D01*
X10671667Y-15640238D01*
X10671667Y-15697381D01*
X10662143Y-15716428D01*
X10652619Y-15725952D01*
X10633571Y-15735476D01*
X10605000Y-15735476D01*
X10728810Y-15602143D02*
X10805000Y-15602143D01*
X10757381Y-15535476D02*
X10757381Y-15706905D01*
X10766905Y-15725952D01*
X10785952Y-15735476D01*
X10805000Y-15735476D01*
X11024048Y-15602143D02*
X11024048Y-15802143D01*
X11024048Y-15611667D02*
X11043095Y-15602143D01*
X11081190Y-15602143D01*
X11100238Y-15611667D01*
X11109762Y-15621190D01*
X11119286Y-15640238D01*
X11119286Y-15697381D01*
X11109762Y-15716428D01*
X11100238Y-15725952D01*
X11081190Y-15735476D01*
X11043095Y-15735476D01*
X11024048Y-15725952D01*
X11233571Y-15735476D02*
X11214524Y-15725952D01*
X11205000Y-15706905D01*
X11205000Y-15535476D01*
X11395476Y-15735476D02*
X11395476Y-15630714D01*
X11385952Y-15611667D01*
X11366905Y-15602143D01*
X11328809Y-15602143D01*
X11309762Y-15611667D01*
X11395476Y-15725952D02*
X11376428Y-15735476D01*
X11328809Y-15735476D01*
X11309762Y-15725952D01*
X11300238Y-15706905D01*
X11300238Y-15687857D01*
X11309762Y-15668809D01*
X11328809Y-15659286D01*
X11376428Y-15659286D01*
X11395476Y-15649762D01*
X11462143Y-15602143D02*
X11538333Y-15602143D01*
X11490714Y-15535476D02*
X11490714Y-15706905D01*
X11500238Y-15725952D01*
X11519286Y-15735476D01*
X11538333Y-15735476D01*
X11681190Y-15725952D02*
X11662143Y-15735476D01*
X11624048Y-15735476D01*
X11605000Y-15725952D01*
X11595476Y-15706905D01*
X11595476Y-15630714D01*
X11605000Y-15611667D01*
X11624048Y-15602143D01*
X11662143Y-15602143D01*
X11681190Y-15611667D01*
X11690714Y-15630714D01*
X11690714Y-15649762D01*
X11595476Y-15668809D01*
X11862143Y-15735476D02*
X11862143Y-15535476D01*
X11862143Y-15725952D02*
X11843095Y-15735476D01*
X11805000Y-15735476D01*
X11785952Y-15725952D01*
X11776428Y-15716428D01*
X11766905Y-15697381D01*
X11766905Y-15640238D01*
X11776428Y-15621190D01*
X11785952Y-15611667D01*
X11805000Y-15602143D01*
X11843095Y-15602143D01*
X11862143Y-15611667D01*
X11938333Y-15811667D02*
X11947857Y-15802143D01*
X11966905Y-15773571D01*
X11976428Y-15754524D01*
X11985952Y-15725952D01*
X11995476Y-15678333D01*
X11995476Y-15640238D01*
X11985952Y-15592619D01*
X11976428Y-15564048D01*
X11966905Y-15545000D01*
X11947857Y-15516428D01*
X11938333Y-15506905D01*
X4995000Y-15909000D02*
G75*
G03*
X4995000Y-15909000I-100000J0D01*
G01*
X5233571Y-15799476D02*
X5357381Y-15799476D01*
X5290714Y-15875667D01*
X5319286Y-15875667D01*
X5338333Y-15885190D01*
X5347857Y-15894714D01*
X5357381Y-15913762D01*
X5357381Y-15961381D01*
X5347857Y-15980428D01*
X5338333Y-15989952D01*
X5319286Y-15999476D01*
X5262143Y-15999476D01*
X5243095Y-15989952D01*
X5233571Y-15980428D01*
X5443095Y-15980428D02*
X5452619Y-15989952D01*
X5443095Y-15999476D01*
X5433571Y-15989952D01*
X5443095Y-15980428D01*
X5443095Y-15999476D01*
X5528810Y-15818524D02*
X5538333Y-15809000D01*
X5557381Y-15799476D01*
X5605000Y-15799476D01*
X5624048Y-15809000D01*
X5633571Y-15818524D01*
X5643095Y-15837571D01*
X5643095Y-15856619D01*
X5633571Y-15885190D01*
X5519286Y-15999476D01*
X5643095Y-15999476D01*
X5766905Y-15799476D02*
X5785952Y-15799476D01*
X5805000Y-15809000D01*
X5814524Y-15818524D01*
X5824048Y-15837571D01*
X5833571Y-15875667D01*
X5833571Y-15923286D01*
X5824048Y-15961381D01*
X5814524Y-15980428D01*
X5805000Y-15989952D01*
X5785952Y-15999476D01*
X5766905Y-15999476D01*
X5747857Y-15989952D01*
X5738333Y-15980428D01*
X5728809Y-15961381D01*
X5719286Y-15923286D01*
X5719286Y-15875667D01*
X5728809Y-15837571D01*
X5738333Y-15818524D01*
X5747857Y-15809000D01*
X5766905Y-15799476D01*
X5957381Y-15799476D02*
X5976428Y-15799476D01*
X5995476Y-15809000D01*
X6005000Y-15818524D01*
X6014524Y-15837571D01*
X6024048Y-15875667D01*
X6024048Y-15923286D01*
X6014524Y-15961381D01*
X6005000Y-15980428D01*
X5995476Y-15989952D01*
X5976428Y-15999476D01*
X5957381Y-15999476D01*
X5938333Y-15989952D01*
X5928809Y-15980428D01*
X5919286Y-15961381D01*
X5909762Y-15923286D01*
X5909762Y-15875667D01*
X5919286Y-15837571D01*
X5928809Y-15818524D01*
X5938333Y-15809000D01*
X5957381Y-15799476D01*
X6109762Y-15999476D02*
X6109762Y-15866143D01*
X6109762Y-15885190D02*
X6119286Y-15875667D01*
X6138333Y-15866143D01*
X6166905Y-15866143D01*
X6185952Y-15875667D01*
X6195476Y-15894714D01*
X6195476Y-15999476D01*
X6195476Y-15894714D02*
X6205000Y-15875667D01*
X6224048Y-15866143D01*
X6252619Y-15866143D01*
X6271667Y-15875667D01*
X6281190Y-15894714D01*
X6281190Y-15999476D01*
X6376428Y-15999476D02*
X6376428Y-15866143D01*
X6376428Y-15885190D02*
X6385952Y-15875667D01*
X6405000Y-15866143D01*
X6433571Y-15866143D01*
X6452619Y-15875667D01*
X6462143Y-15894714D01*
X6462143Y-15999476D01*
X6462143Y-15894714D02*
X6471667Y-15875667D01*
X6490714Y-15866143D01*
X6519286Y-15866143D01*
X6538333Y-15875667D01*
X6547857Y-15894714D01*
X6547857Y-15999476D01*
X6938333Y-15789952D02*
X6766905Y-16047095D01*
X7195476Y-15799476D02*
X7214524Y-15799476D01*
X7233571Y-15809000D01*
X7243095Y-15818524D01*
X7252619Y-15837571D01*
X7262143Y-15875667D01*
X7262143Y-15923286D01*
X7252619Y-15961381D01*
X7243095Y-15980428D01*
X7233571Y-15989952D01*
X7214524Y-15999476D01*
X7195476Y-15999476D01*
X7176428Y-15989952D01*
X7166905Y-15980428D01*
X7157381Y-15961381D01*
X7147857Y-15923286D01*
X7147857Y-15875667D01*
X7157381Y-15837571D01*
X7166905Y-15818524D01*
X7176428Y-15809000D01*
X7195476Y-15799476D01*
X7347857Y-15980428D02*
X7357381Y-15989952D01*
X7347857Y-15999476D01*
X7338333Y-15989952D01*
X7347857Y-15980428D01*
X7347857Y-15999476D01*
X7547857Y-15999476D02*
X7433571Y-15999476D01*
X7490714Y-15999476D02*
X7490714Y-15799476D01*
X7471667Y-15828048D01*
X7452619Y-15847095D01*
X7433571Y-15856619D01*
X7624048Y-15818524D02*
X7633571Y-15809000D01*
X7652619Y-15799476D01*
X7700238Y-15799476D01*
X7719286Y-15809000D01*
X7728809Y-15818524D01*
X7738333Y-15837571D01*
X7738333Y-15856619D01*
X7728809Y-15885190D01*
X7614524Y-15999476D01*
X7738333Y-15999476D01*
X7909762Y-15799476D02*
X7871667Y-15799476D01*
X7852619Y-15809000D01*
X7843095Y-15818524D01*
X7824048Y-15847095D01*
X7814524Y-15885190D01*
X7814524Y-15961381D01*
X7824048Y-15980428D01*
X7833571Y-15989952D01*
X7852619Y-15999476D01*
X7890714Y-15999476D01*
X7909762Y-15989952D01*
X7919286Y-15980428D01*
X7928809Y-15961381D01*
X7928809Y-15913762D01*
X7919286Y-15894714D01*
X7909762Y-15885190D01*
X7890714Y-15875667D01*
X7852619Y-15875667D01*
X7833571Y-15885190D01*
X7824048Y-15894714D01*
X7814524Y-15913762D01*
X8052619Y-15799476D02*
X8071667Y-15799476D01*
X8090714Y-15809000D01*
X8100238Y-15818524D01*
X8109762Y-15837571D01*
X8119286Y-15875667D01*
X8119286Y-15923286D01*
X8109762Y-15961381D01*
X8100238Y-15980428D01*
X8090714Y-15989952D01*
X8071667Y-15999476D01*
X8052619Y-15999476D01*
X8033571Y-15989952D01*
X8024048Y-15980428D01*
X8014524Y-15961381D01*
X8005000Y-15923286D01*
X8005000Y-15875667D01*
X8014524Y-15837571D01*
X8024048Y-15818524D01*
X8033571Y-15809000D01*
X8052619Y-15799476D01*
X8195476Y-15799476D02*
X8195476Y-15837571D01*
X8271667Y-15799476D02*
X8271667Y-15837571D01*
X8566905Y-16075667D02*
X8557381Y-16066143D01*
X8538333Y-16037571D01*
X8528810Y-16018524D01*
X8519286Y-15989952D01*
X8509762Y-15942333D01*
X8509762Y-15904238D01*
X8519286Y-15856619D01*
X8528810Y-15828048D01*
X8538333Y-15809000D01*
X8557381Y-15780428D01*
X8566905Y-15770905D01*
X8624048Y-15799476D02*
X8757381Y-15799476D01*
X8671667Y-15999476D01*
X8985952Y-15999476D02*
X8985952Y-15799476D01*
X9071667Y-15999476D02*
X9071667Y-15894714D01*
X9062143Y-15875667D01*
X9043095Y-15866143D01*
X9014524Y-15866143D01*
X8995476Y-15875667D01*
X8985952Y-15885190D01*
X9195476Y-15999476D02*
X9176429Y-15989952D01*
X9166905Y-15980428D01*
X9157381Y-15961381D01*
X9157381Y-15904238D01*
X9166905Y-15885190D01*
X9176429Y-15875667D01*
X9195476Y-15866143D01*
X9224048Y-15866143D01*
X9243095Y-15875667D01*
X9252619Y-15885190D01*
X9262143Y-15904238D01*
X9262143Y-15961381D01*
X9252619Y-15980428D01*
X9243095Y-15989952D01*
X9224048Y-15999476D01*
X9195476Y-15999476D01*
X9376429Y-15999476D02*
X9357381Y-15989952D01*
X9347857Y-15970905D01*
X9347857Y-15799476D01*
X9528810Y-15989952D02*
X9509762Y-15999476D01*
X9471667Y-15999476D01*
X9452619Y-15989952D01*
X9443095Y-15970905D01*
X9443095Y-15894714D01*
X9452619Y-15875667D01*
X9471667Y-15866143D01*
X9509762Y-15866143D01*
X9528810Y-15875667D01*
X9538333Y-15894714D01*
X9538333Y-15913762D01*
X9443095Y-15932809D01*
X9614524Y-15989952D02*
X9633571Y-15999476D01*
X9671667Y-15999476D01*
X9690714Y-15989952D01*
X9700238Y-15970905D01*
X9700238Y-15961381D01*
X9690714Y-15942333D01*
X9671667Y-15932809D01*
X9643095Y-15932809D01*
X9624048Y-15923286D01*
X9614524Y-15904238D01*
X9614524Y-15894714D01*
X9624048Y-15875667D01*
X9643095Y-15866143D01*
X9671667Y-15866143D01*
X9690714Y-15875667D01*
X9766905Y-16075667D02*
X9776429Y-16066143D01*
X9795476Y-16037571D01*
X9805000Y-16018524D01*
X9814524Y-15989952D01*
X9824048Y-15942333D01*
X9824048Y-15904238D01*
X9814524Y-15856619D01*
X9805000Y-15828048D01*
X9795476Y-15809000D01*
X9776429Y-15780428D01*
X9766905Y-15770905D01*
X10128810Y-16075667D02*
X10119286Y-16066143D01*
X10100238Y-16037571D01*
X10090714Y-16018524D01*
X10081190Y-15989952D01*
X10071667Y-15942333D01*
X10071667Y-15904238D01*
X10081190Y-15856619D01*
X10090714Y-15828048D01*
X10100238Y-15809000D01*
X10119286Y-15780428D01*
X10128810Y-15770905D01*
X10205000Y-15866143D02*
X10205000Y-15999476D01*
X10205000Y-15885190D02*
X10214524Y-15875667D01*
X10233571Y-15866143D01*
X10262143Y-15866143D01*
X10281190Y-15875667D01*
X10290714Y-15894714D01*
X10290714Y-15999476D01*
X10414524Y-15999476D02*
X10395476Y-15989952D01*
X10385952Y-15980428D01*
X10376429Y-15961381D01*
X10376429Y-15904238D01*
X10385952Y-15885190D01*
X10395476Y-15875667D01*
X10414524Y-15866143D01*
X10443095Y-15866143D01*
X10462143Y-15875667D01*
X10471667Y-15885190D01*
X10481190Y-15904238D01*
X10481190Y-15961381D01*
X10471667Y-15980428D01*
X10462143Y-15989952D01*
X10443095Y-15999476D01*
X10414524Y-15999476D01*
X10538333Y-15866143D02*
X10614524Y-15866143D01*
X10566905Y-15799476D02*
X10566905Y-15970905D01*
X10576429Y-15989952D01*
X10595476Y-15999476D01*
X10614524Y-15999476D01*
X10833571Y-15866143D02*
X10833571Y-16066143D01*
X10833571Y-15875667D02*
X10852619Y-15866143D01*
X10890714Y-15866143D01*
X10909762Y-15875667D01*
X10919286Y-15885190D01*
X10928810Y-15904238D01*
X10928810Y-15961381D01*
X10919286Y-15980428D01*
X10909762Y-15989952D01*
X10890714Y-15999476D01*
X10852619Y-15999476D01*
X10833571Y-15989952D01*
X11043095Y-15999476D02*
X11024048Y-15989952D01*
X11014524Y-15970905D01*
X11014524Y-15799476D01*
X11205000Y-15999476D02*
X11205000Y-15894714D01*
X11195476Y-15875667D01*
X11176429Y-15866143D01*
X11138333Y-15866143D01*
X11119286Y-15875667D01*
X11205000Y-15989952D02*
X11185952Y-15999476D01*
X11138333Y-15999476D01*
X11119286Y-15989952D01*
X11109762Y-15970905D01*
X11109762Y-15951857D01*
X11119286Y-15932809D01*
X11138333Y-15923286D01*
X11185952Y-15923286D01*
X11205000Y-15913762D01*
X11271667Y-15866143D02*
X11347857Y-15866143D01*
X11300238Y-15799476D02*
X11300238Y-15970905D01*
X11309762Y-15989952D01*
X11328809Y-15999476D01*
X11347857Y-15999476D01*
X11490714Y-15989952D02*
X11471667Y-15999476D01*
X11433571Y-15999476D01*
X11414524Y-15989952D01*
X11405000Y-15970905D01*
X11405000Y-15894714D01*
X11414524Y-15875667D01*
X11433571Y-15866143D01*
X11471667Y-15866143D01*
X11490714Y-15875667D01*
X11500238Y-15894714D01*
X11500238Y-15913762D01*
X11405000Y-15932809D01*
X11671667Y-15999476D02*
X11671667Y-15799476D01*
X11671667Y-15989952D02*
X11652619Y-15999476D01*
X11614524Y-15999476D01*
X11595476Y-15989952D01*
X11585952Y-15980428D01*
X11576428Y-15961381D01*
X11576428Y-15904238D01*
X11585952Y-15885190D01*
X11595476Y-15875667D01*
X11614524Y-15866143D01*
X11652619Y-15866143D01*
X11671667Y-15875667D01*
X11747857Y-16075667D02*
X11757381Y-16066143D01*
X11776428Y-16037571D01*
X11785952Y-16018524D01*
X11795476Y-15989952D01*
X11805000Y-15942333D01*
X11805000Y-15904238D01*
X11795476Y-15856619D01*
X11785952Y-15828048D01*
X11776428Y-15809000D01*
X11757381Y-15780428D01*
X11747857Y-15770905D01*
M02*
