M48
; DRILL file {KiCad (6.0.1-0)} date Thursday, February 10, 2022 at 08:34:04 PM
; FORMAT={-:-/ absolute / metric / decimal}
; #@! TF.CreationDate,2022-02-10T20:34:04-06:00
; #@! TF.GenerationSoftware,Kicad,Pcbnew,(6.0.1-0)
; #@! TF.FileFunction,Plated,1,2,PTH
FMAT,2
METRIC
; #@! TA.AperFunction,Plated,PTH,ViaDrill
T1C0.400
; #@! TA.AperFunction,Plated,PTH,ComponentDrill
T2C0.760
; #@! TA.AperFunction,Plated,PTH,ComponentDrill
T3C0.900
; #@! TA.AperFunction,Plated,PTH,ComponentDrill
T4C1.000
; #@! TA.AperFunction,Plated,PTH,ComponentDrill
T5C1.200
; #@! TA.AperFunction,Plated,PTH,ComponentDrill
T6C1.290
; #@! TA.AperFunction,Plated,PTH,ComponentDrill
T7C1.300
; #@! TA.AperFunction,Plated,PTH,ComponentDrill
T8C1.320
; #@! TA.AperFunction,Plated,PTH,ComponentDrill
T9C1.400
; #@! TA.AperFunction,Plated,PTH,ComponentDrill
T10C3.200
%
G90
G05
T1
X60.0Y-124.0
X67.0Y-46.0
X76.0Y-85.5
X86.0Y-85.5
X87.5Y-67.0
X90.5Y-81.5
X93.0Y-74.5
X106.0Y-112.0
X106.5Y-133.0
X107.0Y-45.0
X107.5Y-77.5
X117.0Y-106.5
X120.5Y-118.0
X127.0Y-45.0
X127.0Y-58.5
X127.0Y-63.5
X129.5Y-110.0
X139.5Y-110.0
X141.0Y-132.5
X143.0Y-114.5
X147.0Y-45.0
X151.0Y-76.0
X153.0Y-67.0
X160.5Y-110.0
X165.5Y-65.5
X165.5Y-79.0
X165.5Y-113.0
X174.0Y-76.0
X180.0Y-132.5
X181.5Y-110.0
X185.0Y-115.5
X185.5Y-54.5
X189.5Y-76.0
X190.5Y-71.0
X202.5Y-109.0
X203.0Y-86.5
X208.0Y-70.0
X208.5Y-105.5
X208.5Y-109.0
X213.5Y-83.0
X217.0Y-82.5
X219.0Y-78.3
X220.5Y-52.5
X221.0Y-90.0
X221.0Y-106.0
X221.0Y-126.5
X223.5Y-79.5
T2
X203.0Y-125.5
X204.27Y-122.96
X205.54Y-125.5
X206.81Y-122.96
X208.08Y-125.5
X209.35Y-122.96
X210.62Y-125.5
X211.89Y-122.96
T4
X72.5Y-54.735
X72.5Y-57.275
X72.5Y-67.735
X72.5Y-70.275
X72.5Y-80.735
X72.5Y-83.275
X72.5Y-93.735
X72.5Y-96.275
X78.97Y-113.69
X78.97Y-126.97
X80.355Y-110.85
X80.355Y-129.81
X81.74Y-113.69
X81.74Y-126.97
X83.125Y-110.85
X83.125Y-129.81
X84.51Y-113.69
X84.51Y-126.97
X85.895Y-110.85
X85.895Y-129.81
X87.28Y-113.69
X87.28Y-126.97
X88.665Y-110.85
X88.665Y-129.81
X90.05Y-113.69
X90.05Y-126.97
X115.58Y-82.38
X115.58Y-85.15
X115.58Y-87.92
X115.58Y-90.69
X115.58Y-93.46
X118.42Y-83.765
X118.42Y-86.535
X118.42Y-89.305
X118.42Y-92.075
X138.44Y-82.38
X138.44Y-85.15
X138.44Y-87.92
X138.44Y-90.69
X138.44Y-93.46
X141.28Y-83.765
X141.28Y-86.535
X141.28Y-89.305
X141.28Y-92.075
X161.3Y-82.38
X161.3Y-85.15
X161.3Y-87.92
X161.3Y-90.69
X161.3Y-93.46
X164.14Y-83.765
X164.14Y-86.535
X164.14Y-89.305
X164.14Y-92.075
X171.5Y-58.5
X172.885Y-61.34
X174.27Y-58.5
X175.655Y-61.34
X177.04Y-58.5
X178.425Y-61.34
X179.81Y-58.5
X181.195Y-61.34
X182.58Y-58.5
X183.965Y-61.34
X184.16Y-82.38
X184.16Y-85.15
X184.16Y-87.92
X184.16Y-90.69
X184.16Y-93.46
X185.35Y-58.5
X186.735Y-61.34
X187.0Y-83.765
X187.0Y-86.535
X187.0Y-89.305
X187.0Y-92.075
X188.12Y-58.5
X189.505Y-61.34
X190.89Y-58.5
X192.275Y-61.34
X193.66Y-58.5
X195.045Y-61.34
X196.43Y-58.5
X197.815Y-61.34
X199.2Y-58.5
X200.585Y-61.34
X201.97Y-58.5
X203.355Y-61.34
X204.74Y-58.5
X206.81Y-82.47
X206.81Y-85.24
X206.81Y-88.01
X206.81Y-90.78
X206.81Y-93.55
X209.65Y-83.855
X209.65Y-86.625
X209.65Y-89.395
X209.65Y-92.165
T5
X105.42Y-80.76
X105.42Y-96.0
X128.28Y-80.76
X128.28Y-96.0
X151.14Y-80.76
X151.14Y-96.0
X174.0Y-80.76
X174.0Y-96.0
T6
X79.9Y-87.0
X80.0Y-61.0
X105.9Y-61.0
X131.9Y-61.0
T7
X78.0Y-45.5
X83.0Y-45.5
X88.0Y-45.5
X93.0Y-45.5
T8
X81.9Y-81.0
X81.9Y-93.0
X82.0Y-55.0
X82.0Y-67.0
X94.1Y-81.0
X94.1Y-93.0
X94.2Y-55.0
X94.2Y-67.0
X107.9Y-55.0
X107.9Y-67.0
X120.1Y-55.0
X120.1Y-67.0
X133.9Y-55.0
X133.9Y-67.0
X146.1Y-55.0
X146.1Y-67.0
T9
X114.106Y-127.501
X116.407Y-125.001
X116.407Y-137.201
X121.406Y-127.501
X126.404Y-125.001
X126.404Y-137.201
X128.706Y-127.501
X133.637Y-127.501
X135.938Y-125.001
X135.938Y-137.201
X140.937Y-127.501
X145.936Y-125.001
X145.936Y-137.201
X148.237Y-127.501
X153.169Y-127.501
X155.47Y-125.001
X155.47Y-137.201
X160.469Y-127.501
X165.467Y-125.001
X165.467Y-137.201
X167.769Y-127.501
X172.7Y-127.501
X175.001Y-125.001
X175.001Y-137.201
X180.0Y-127.501
X184.999Y-125.001
X184.999Y-137.201
X187.3Y-127.501
T10
X72.01Y-112.27
X72.01Y-128.39
X97.01Y-112.27
X97.01Y-128.39
X117.0Y-75.42
X117.0Y-100.42
X139.86Y-75.42
X139.86Y-100.42
X162.72Y-75.42
X162.72Y-100.42
X164.57Y-59.92
X185.58Y-75.42
X185.58Y-100.42
X208.23Y-75.51
X208.23Y-100.51
X211.67Y-59.92
T3
X223.9Y-61.0G85X223.1Y-61.0
G05
X223.9Y-71.0G85X223.1Y-71.0
G05
X223.9Y-77.0G85X223.1Y-77.0
G05
X223.9Y-87.0G85X223.1Y-87.0
G05
X223.9Y-93.0G85X223.1Y-93.0
G05
X223.9Y-103.0G85X223.1Y-103.0
G05
X223.9Y-109.0G85X223.1Y-109.0
G05
X223.9Y-119.0G85X223.1Y-119.0
G05
X228.5Y-65.6G85X228.5Y-66.4
G05
X228.5Y-81.6G85X228.5Y-82.4
G05
X228.5Y-97.6G85X228.5Y-98.4
G05
X228.5Y-113.6G85X228.5Y-114.4
G05
T4
X60.0Y-57.042G85X60.0Y-59.042
G05
X60.0Y-70.042G85X60.0Y-72.042
G05
X60.0Y-83.042G85X60.0Y-85.042
G05
X60.0Y-96.042G85X60.0Y-98.042
G05
X62.0Y-62.742G85X64.0Y-62.742
G05
X62.0Y-75.742G85X64.0Y-75.742
G05
X62.0Y-88.742G85X64.0Y-88.742
G05
X62.0Y-101.742G85X64.0Y-101.742
G05
X66.0Y-57.042G85X66.0Y-59.042
G05
X66.0Y-70.042G85X66.0Y-72.042
G05
X66.0Y-83.042G85X66.0Y-85.042
G05
X66.0Y-96.042G85X66.0Y-98.042
G05
T0
M30
