G04 #@! TF.GenerationSoftware,KiCad,Pcbnew,(6.0.1-0)*
G04 #@! TF.CreationDate,2022-02-10T20:32:20-06:00*
G04 #@! TF.ProjectId,Input Board,496e7075-7420-4426-9f61-72642e6b6963,B*
G04 #@! TF.SameCoordinates,Original*
G04 #@! TF.FileFunction,Soldermask,Top*
G04 #@! TF.FilePolarity,Negative*
%FSLAX46Y46*%
G04 Gerber Fmt 4.6, Leading zero omitted, Abs format (unit mm)*
G04 Created by KiCad (PCBNEW (6.0.1-0)) date 2022-02-10 20:32:20*
%MOMM*%
%LPD*%
G01*
G04 APERTURE LIST*
G04 Aperture macros list*
%AMRoundRect*
0 Rectangle with rounded corners*
0 $1 Rounding radius*
0 $2 $3 $4 $5 $6 $7 $8 $9 X,Y pos of 4 corners*
0 Add a 4 corners polygon primitive as box body*
4,1,4,$2,$3,$4,$5,$6,$7,$8,$9,$2,$3,0*
0 Add four circle primitives for the rounded corners*
1,1,$1+$1,$2,$3*
1,1,$1+$1,$4,$5*
1,1,$1+$1,$6,$7*
1,1,$1+$1,$8,$9*
0 Add four rect primitives between the rounded corners*
20,1,$1+$1,$2,$3,$4,$5,0*
20,1,$1+$1,$4,$5,$6,$7,0*
20,1,$1+$1,$6,$7,$8,$9,0*
20,1,$1+$1,$8,$9,$2,$3,0*%
G04 Aperture macros list end*
%ADD10R,2.600000X2.600000*%
%ADD11C,2.600000*%
%ADD12R,1.700000X1.700000*%
%ADD13O,1.700000X1.700000*%
%ADD14R,3.500000X3.500000*%
%ADD15RoundRect,0.750000X-0.750000X-1.000000X0.750000X-1.000000X0.750000X1.000000X-0.750000X1.000000X0*%
%ADD16RoundRect,0.875000X-0.875000X-0.875000X0.875000X-0.875000X0.875000X0.875000X-0.875000X0.875000X0*%
%ADD17C,1.200000*%
%ADD18O,2.500000X1.800000*%
%ADD19O,1.800000X2.500000*%
%ADD20C,4.000000*%
%ADD21R,1.600000X1.600000*%
%ADD22C,1.600000*%
%ADD23R,1.980000X1.980000*%
%ADD24C,1.980000*%
%ADD25C,1.935000*%
%ADD26C,2.400000*%
%ADD27O,2.400000X2.400000*%
%ADD28C,3.200000*%
%ADD29C,2.489200*%
%ADD30R,1.500000X1.500000*%
%ADD31C,1.500000*%
G04 APERTURE END LIST*
D10*
X93000000Y-45500000D03*
D11*
X88000000Y-45500000D03*
X83000000Y-45500000D03*
X78000000Y-45500000D03*
D12*
X72500000Y-70275000D03*
D13*
X72500000Y-67735000D03*
D14*
X66000000Y-58042500D03*
D15*
X60000000Y-58042500D03*
D16*
X63000000Y-62742500D03*
D17*
X228500000Y-109000000D03*
X223500000Y-114000000D03*
X231000000Y-119000000D03*
X231000000Y-109000000D03*
X228500000Y-119000000D03*
D18*
X223500000Y-119000000D03*
D19*
X228500000Y-114000000D03*
D18*
X223500000Y-109000000D03*
D12*
X72500000Y-57275000D03*
D13*
X72500000Y-54735000D03*
D20*
X72010000Y-128389669D03*
X97010000Y-128389669D03*
D21*
X90050000Y-126969669D03*
D22*
X87280000Y-126969669D03*
X84510000Y-126969669D03*
X81740000Y-126969669D03*
X78970000Y-126969669D03*
X88665000Y-129809669D03*
X85895000Y-129809669D03*
X83125000Y-129809669D03*
X80355000Y-129809669D03*
D12*
X72500000Y-96275000D03*
D13*
X72500000Y-93735000D03*
D14*
X66000000Y-97042500D03*
D15*
X60000000Y-97042500D03*
D16*
X63000000Y-101742500D03*
D23*
X107900000Y-55000000D03*
D24*
X107900000Y-67000000D03*
D25*
X105900000Y-61000000D03*
D24*
X120100000Y-55000000D03*
X120100000Y-67000000D03*
D14*
X66000000Y-71042500D03*
D15*
X60000000Y-71042500D03*
D16*
X63000000Y-75742500D03*
D26*
X128280000Y-96000000D03*
D27*
X128280000Y-80760000D03*
D28*
X58000000Y-134000000D03*
D12*
X72500000Y-83275000D03*
D13*
X72500000Y-80735000D03*
D26*
X105420000Y-96000000D03*
D27*
X105420000Y-80760000D03*
D23*
X82000000Y-55000000D03*
D24*
X82000000Y-67000000D03*
D25*
X80000000Y-61000000D03*
D24*
X94200000Y-55000000D03*
X94200000Y-67000000D03*
D17*
X228500000Y-87000000D03*
X228500000Y-77000000D03*
X231000000Y-87000000D03*
X223500000Y-82000000D03*
X231000000Y-77000000D03*
D18*
X223500000Y-87000000D03*
D19*
X228500000Y-82000000D03*
D18*
X223500000Y-77000000D03*
D29*
X128705631Y-127500660D03*
X121405671Y-127500660D03*
X114105711Y-127500660D03*
X126404391Y-125001300D03*
X116406951Y-125001300D03*
X116406951Y-137200920D03*
X126404391Y-137200920D03*
X167768517Y-127500660D03*
X160468557Y-127500660D03*
X153168597Y-127500660D03*
X165467277Y-125001300D03*
X155469837Y-125001300D03*
X155469837Y-137200920D03*
X165467277Y-137200920D03*
D28*
X226000000Y-134000000D03*
X58000000Y-46000000D03*
D23*
X81900000Y-81000000D03*
D24*
X81900000Y-93000000D03*
D25*
X79900000Y-87000000D03*
D24*
X94100000Y-81000000D03*
X94100000Y-93000000D03*
D17*
X228500000Y-103000000D03*
X231000000Y-93000000D03*
X231000000Y-103000000D03*
X228500000Y-93000000D03*
X223500000Y-98000000D03*
D18*
X223500000Y-103000000D03*
D19*
X228500000Y-98000000D03*
D18*
X223500000Y-93000000D03*
D17*
X231000000Y-61000000D03*
X231000000Y-71000000D03*
X223500000Y-66000000D03*
X228500000Y-71000000D03*
X228500000Y-61000000D03*
D18*
X223500000Y-71000000D03*
D19*
X228500000Y-66000000D03*
D18*
X223500000Y-61000000D03*
D14*
X66000000Y-84042500D03*
D15*
X60000000Y-84042500D03*
D16*
X63000000Y-88742500D03*
D28*
X226000000Y-46000000D03*
X213160000Y-131850000D03*
X201730000Y-131850000D03*
D30*
X203000000Y-125500000D03*
D31*
X204270000Y-122960000D03*
X205540000Y-125500000D03*
X206810000Y-122960000D03*
X208080000Y-125500000D03*
X209350000Y-122960000D03*
X210620000Y-125500000D03*
X211890000Y-122960000D03*
D26*
X174000000Y-96000000D03*
D27*
X174000000Y-80760000D03*
D29*
X148237074Y-127500660D03*
X140937114Y-127500660D03*
X133637154Y-127500660D03*
X145935834Y-125001300D03*
X135938394Y-125001300D03*
X135938394Y-137200920D03*
X145935834Y-137200920D03*
D26*
X151140000Y-96000000D03*
D27*
X151140000Y-80760000D03*
D28*
X151000000Y-108000000D03*
D29*
X187299960Y-127500660D03*
X180000000Y-127500660D03*
X172700040Y-127500660D03*
X184998720Y-125001300D03*
X175001280Y-125001300D03*
X175001280Y-137200920D03*
X184998720Y-137200920D03*
D23*
X133900000Y-55000000D03*
D24*
X133900000Y-67000000D03*
D25*
X131900000Y-61000000D03*
D24*
X146100000Y-55000000D03*
X146100000Y-67000000D03*
D20*
X185580000Y-75420000D03*
X185580000Y-100420000D03*
D21*
X184160000Y-93460000D03*
D22*
X184160000Y-90690000D03*
X184160000Y-87920000D03*
X184160000Y-85150000D03*
X184160000Y-82380000D03*
X187000000Y-92075000D03*
X187000000Y-89305000D03*
X187000000Y-86535000D03*
X187000000Y-83765000D03*
D20*
X164570000Y-59920000D03*
X211670000Y-59920000D03*
D21*
X171500000Y-58500000D03*
D22*
X174270000Y-58500000D03*
X177040000Y-58500000D03*
X179810000Y-58500000D03*
X182580000Y-58500000D03*
X185350000Y-58500000D03*
X188120000Y-58500000D03*
X190890000Y-58500000D03*
X193660000Y-58500000D03*
X196430000Y-58500000D03*
X199200000Y-58500000D03*
X201970000Y-58500000D03*
X204740000Y-58500000D03*
X172885000Y-61340000D03*
X175655000Y-61340000D03*
X178425000Y-61340000D03*
X181195000Y-61340000D03*
X183965000Y-61340000D03*
X186735000Y-61340000D03*
X189505000Y-61340000D03*
X192275000Y-61340000D03*
X195045000Y-61340000D03*
X197815000Y-61340000D03*
X200585000Y-61340000D03*
X203355000Y-61340000D03*
D20*
X208229669Y-100510000D03*
X208229669Y-75510000D03*
D21*
X206809669Y-93550000D03*
D22*
X206809669Y-90780000D03*
X206809669Y-88010000D03*
X206809669Y-85240000D03*
X206809669Y-82470000D03*
X209649669Y-92165000D03*
X209649669Y-89395000D03*
X209649669Y-86625000D03*
X209649669Y-83855000D03*
D20*
X72010000Y-112270331D03*
X97010000Y-112270331D03*
D21*
X90050000Y-113690331D03*
D22*
X87280000Y-113690331D03*
X84510000Y-113690331D03*
X81740000Y-113690331D03*
X78970000Y-113690331D03*
X88665000Y-110850331D03*
X85895000Y-110850331D03*
X83125000Y-110850331D03*
X80355000Y-110850331D03*
D20*
X162720000Y-75420000D03*
X162720000Y-100420000D03*
D21*
X161300000Y-93460000D03*
D22*
X161300000Y-90690000D03*
X161300000Y-87920000D03*
X161300000Y-85150000D03*
X161300000Y-82380000D03*
X164140000Y-92075000D03*
X164140000Y-89305000D03*
X164140000Y-86535000D03*
X164140000Y-83765000D03*
D20*
X139860000Y-100420000D03*
X139860000Y-75420000D03*
D21*
X138440000Y-93460000D03*
D22*
X138440000Y-90690000D03*
X138440000Y-87920000D03*
X138440000Y-85150000D03*
X138440000Y-82380000D03*
X141280000Y-92075000D03*
X141280000Y-89305000D03*
X141280000Y-86535000D03*
X141280000Y-83765000D03*
D20*
X117000000Y-100420000D03*
X117000000Y-75420000D03*
D21*
X115580000Y-93460000D03*
D22*
X115580000Y-90690000D03*
X115580000Y-87920000D03*
X115580000Y-85150000D03*
X115580000Y-82380000D03*
X118420000Y-92075000D03*
X118420000Y-89305000D03*
X118420000Y-86535000D03*
X118420000Y-83765000D03*
M02*
