M48
; DRILL file {KiCad (6.0.1-0)} date Thursday, February 10, 2022 at 08:34:04 PM
; FORMAT={-:-/ absolute / metric / decimal}
; #@! TF.CreationDate,2022-02-10T20:34:04-06:00
; #@! TF.GenerationSoftware,Kicad,Pcbnew,(6.0.1-0)
; #@! TF.FileFunction,NonPlated,1,2,NPTH
FMAT,2
METRIC
; #@! TA.AperFunction,NonPlated,NPTH,ComponentDrill
T1C0.762
; #@! TA.AperFunction,NonPlated,NPTH,ComponentDrill
T2C3.200
%
G90
G05
T1
X223.5Y-66.0
X223.5Y-82.0
X223.5Y-98.0
X223.5Y-114.0
X228.5Y-61.0
X228.5Y-71.0
X228.5Y-77.0
X228.5Y-87.0
X228.5Y-93.0
X228.5Y-103.0
X228.5Y-109.0
X228.5Y-119.0
X231.0Y-61.0
X231.0Y-71.0
X231.0Y-77.0
X231.0Y-87.0
X231.0Y-93.0
X231.0Y-103.0
X231.0Y-109.0
X231.0Y-119.0
T2
X58.0Y-46.0
X58.0Y-134.0
X151.0Y-108.0
X201.73Y-131.85
X213.16Y-131.85
X226.0Y-46.0
X226.0Y-134.0
T0
M30
